<?xml version="1.0" encoding="UTF-8" standalone="no"?>
<!-- Created with Inkscape (http://www.inkscape.org/) -->
<svg
   xmlns:dc="http://purl.org/dc/elements/1.1/"
   xmlns:cc="http://creativecommons.org/ns#"
   xmlns:rdf="http://www.w3.org/1999/02/22-rdf-syntax-ns#"
   xmlns:svg="http://www.w3.org/2000/svg"
   xmlns="http://www.w3.org/2000/svg"
   xmlns:sodipodi="http://sodipodi.sourceforge.net/DTD/sodipodi-0.dtd"
   xmlns:inkscape="http://www.inkscape.org/namespaces/inkscape"
   width="406.16327"
   height="102.8225"
   id="svg2"
   sodipodi:version="0.32"
   inkscape:version="0.46"
   sodipodi:docname="logo-above-security.svg"
   inkscape:output_extension="org.inkscape.output.svg.inkscape"
   version="1.0">
  <defs
     id="defs4">
    <inkscape:perspective
       sodipodi:type="inkscape:persp3d"
       inkscape:vp_x="0 : 526.18109 : 1"
       inkscape:vp_y="0 : 1000 : 0"
       inkscape:vp_z="744.09448 : 526.18109 : 1"
       inkscape:persp3d-origin="372.04724 : 350.78739 : 1"
       id="perspective10" />
    <inkscape:perspective
       id="perspective2410"
       inkscape:persp3d-origin="372.04724 : 350.78739 : 1"
       inkscape:vp_z="744.09448 : 526.18109 : 1"
       inkscape:vp_y="0 : 1000 : 0"
       inkscape:vp_x="0 : 526.18109 : 1"
       sodipodi:type="inkscape:persp3d" />
  </defs>
  <sodipodi:namedview
     id="base"
     pagecolor="#ffffff"
     bordercolor="#666666"
     borderopacity="1.0"
     gridtolerance="10000"
     guidetolerance="10"
     objecttolerance="10"
     inkscape:pageopacity="0.0"
     inkscape:pageshadow="2"
     inkscape:zoom="2.9076977"
     inkscape:cx="203.08163"
     inkscape:cy="51.411251"
     inkscape:document-units="px"
     inkscape:current-layer="layer1"
     showgrid="false"
     inkscape:window-width="1280"
     inkscape:window-height="974"
     inkscape:window-x="114"
     inkscape:window-y="25" />
  <metadata
     id="metadata7">
    <rdf:RDF>
      <cc:Work
         rdf:about="">
        <dc:format>image/svg+xml</dc:format>
        <dc:type
           rdf:resource="http://purl.org/dc/dcmitype/StillImage" />
      </cc:Work>
    </rdf:RDF>
  </metadata>
  <g
     inkscape:label="Layer 1"
     inkscape:groupmode="layer"
     id="layer1"
     transform="translate(-168.9656,-474.76984)">
    <g
       id="g2483"
       transform="translate(1.2109375e-6,178.62896)">
      <path
         d="M 197.13363,326.20588 L 181.83963,326.20588 L 177.15944,334.74713 L 168.9656,334.74713 L 190.75563,296.14088 L 199.70001,296.14088 L 205.93576,334.74713 L 198.40163,334.74713 L 197.13363,326.20588 z M 196.1765,319.74338 L 193.87825,304.23338 L 185.37825,319.74338 L 196.1765,319.74338"
         style="fill:#3e4a9b;fill-opacity:1;fill-rule:nonzero;stroke:none"
         id="path2448" />
      <path
         d="M 211.85913,334.74713 L 219.95288,296.14088 L 227.47238,296.14088 L 224.7195,309.00088 C 226.10813,307.95088 227.406,307.20213 228.61113,306.75588 C 229.81575,306.31088 231.12913,306.08713 232.555,306.08713 C 235.50901,306.08713 237.87626,307.07588 239.65363,309.05588 C 241.429,311.03463 242.31763,313.91463 242.31763,317.69338 C 242.31763,320.24338 241.90113,322.71963 241.06525,325.11963 C 240.23313,327.52088 239.1165,329.47338 237.7215,330.97713 C 236.324,332.47963 234.85913,333.59713 233.3225,334.32838 C 231.78588,335.05588 230.1755,335.42213 228.48951,335.42213 C 224.48763,335.42213 221.54613,333.67963 219.66675,330.19338 L 218.68825,334.74713 L 211.85913,334.74713 z M 222.03051,323.36588 C 222.03051,325.25588 222.56076,326.78963 223.62326,327.97338 C 224.68576,329.15463 225.93626,329.74588 227.37626,329.74588 C 228.63888,329.74588 229.847,329.28838 230.99538,328.37088 C 232.14576,327.45338 233.10276,325.98838 233.86551,323.97713 C 234.63063,321.96463 235.0115,319.93463 235.0115,317.88588 C 235.0115,315.89588 234.49738,314.32838 233.472,313.19088 C 232.44263,312.05338 231.20288,311.48213 229.74538,311.48213 C 227.84838,311.48213 226.21701,312.36588 224.84938,314.12838 C 222.97001,316.54713 222.03051,319.62588 222.03051,323.36588"
         style="fill:#3e4a9b;fill-opacity:1;fill-rule:nonzero;stroke:none"
         id="path2450" />
      <path
         d="M 247.45438,323.12963 C 247.45438,317.94213 248.91526,313.80338 251.83913,310.71838 C 254.76351,307.63088 258.60325,306.08713 263.36701,306.08713 C 267.48951,306.08713 270.71413,307.22713 273.03251,309.50213 C 275.35038,311.78213 276.5095,314.84588 276.5095,318.69838 C 276.5095,323.23588 275.05888,327.15588 272.16138,330.46213 C 269.26351,333.76963 265.38263,335.42213 260.52125,335.42213 C 257.8875,335.42213 255.55013,334.89338 253.5125,333.83963 C 251.47588,332.78338 249.95675,331.28963 248.95588,329.35463 C 247.95488,327.41963 247.45438,325.34588 247.45438,323.12963 z M 268.97875,317.71213 C 268.97875,315.91213 268.45588,314.47338 267.41288,313.38838 C 266.36938,312.30588 265.02413,311.76338 263.37325,311.76338 C 261.74388,311.76338 260.29663,312.27088 259.03938,313.28213 C 257.77463,314.29713 256.79125,315.76838 256.09251,317.69713 C 255.39188,319.62713 255.04026,321.40338 255.04026,323.02213 C 255.04026,325.03088 255.58326,326.62588 256.67063,327.80588 C 257.75763,328.98713 259.12325,329.57713 260.77463,329.57713 C 262.83963,329.57713 264.5745,328.68713 265.97976,326.90838 C 267.97776,324.38838 268.97875,321.32088 268.97875,317.71213"
         style="fill:#3e4a9b;fill-opacity:1;fill-rule:nonzero;stroke:none"
         id="path2452" />
      <path
         d="M 294.65638,334.74713 L 288.14875,334.74713 L 282.54325,306.76213 L 289.96163,306.76213 L 291.87913,318.97588 C 292.43438,322.27713 292.77863,324.46213 292.91138,325.53088 C 293.07263,325.26338 293.69763,324.14338 294.79388,322.17588 C 295.88263,320.20463 296.54388,319.01463 296.78263,318.60463 L 303.72888,306.76213 L 311.87763,306.76213 L 294.65638,334.74713"
         style="fill:#3e4a9b;fill-opacity:1;fill-rule:nonzero;stroke:none"
         id="path2454" />
      <path
         d="M 339.27388,323.11463 L 320.30013,323.11463 C 320.28638,323.41463 320.27513,323.64338 320.27513,323.80088 C 320.27513,325.66713 320.81388,327.16963 321.88138,328.31088 C 322.94888,329.45588 324.25513,330.02713 325.79388,330.02713 C 328.32263,330.02713 330.99138,329.11088 331.57513,327.18088 L 338.45138,327.27338 C 337.13138,329.98963 335.36763,332.02713 333.15888,333.38463 C 330.95013,334.74213 328.47013,335.42213 325.72388,335.42213 C 321.95763,335.42213 318.89513,334.22963 316.53513,331.84838 C 314.17513,329.46338 312.99513,326.31338 312.99513,322.38963 C 312.99513,318.55713 314.05888,315.14338 316.18388,312.15463 C 319.08513,308.11088 323.22263,306.08713 328.60013,306.08713 C 332.02388,306.08713 334.75013,307.14838 336.77263,309.26713 C 338.78888,311.38963 339.80013,314.36088 339.80013,318.17838 C 339.80013,320.00838 339.62513,321.65588 339.27388,323.11463 z M 332.88888,318.50713 C 332.90888,318.17088 332.91638,317.91463 332.91638,317.73963 C 332.91638,315.65338 332.45263,314.09088 331.51888,313.04713 C 330.59138,312.00463 329.34388,311.48213 327.78138,311.48213 C 326.22138,311.48213 324.82388,312.07463 323.58388,313.25713 C 322.34388,314.44088 321.50888,316.19213 321.07263,318.50713 L 332.88888,318.50713"
         style="fill:#3e4a9b;fill-opacity:1;fill-rule:nonzero;stroke:none"
         id="path2456" />
      <path
         d="M 285.70776,369.10588 L 274.01925,369.02838 C 273.75563,365.43213 270.64775,364.64588 268.11838,364.64588 C 266.60476,364.64588 265.10525,364.84213 264.27813,365.46838 C 263.73563,365.88213 263.39775,366.44338 263.39475,367.07588 C 263.39138,367.73588 263.71751,368.36088 264.36788,368.95213 C 265.01738,369.54213 266.56613,370.29338 269.01438,371.20713 C 272.11213,372.39713 274.63013,373.52838 276.572,374.59588 C 278.5115,375.66338 280.09551,377.05088 281.32788,378.75838 C 282.55738,380.46213 283.17551,382.58588 283.17551,385.13588 C 283.17551,387.53088 282.50463,389.76838 281.16625,391.83713 C 279.82838,393.91088 277.90013,395.61713 275.38213,396.95463 C 272.86351,398.29338 269.2845,398.96338 264.64475,398.96338 C 258.11213,398.96338 253.47776,397.70963 250.74538,395.20588 C 248.01301,392.70213 246.64625,389.48463 246.64625,385.55713 L 246.65163,384.84088 L 258.8465,384.84088 C 258.8465,387.38463 259.23226,388.13588 260.35276,389.18213 C 261.47338,390.23588 263.02275,390.75963 265.00663,390.75963 C 267.00513,390.75963 268.5295,390.32088 269.57638,389.44963 C 270.62288,388.57088 271.14963,387.57463 271.14963,386.45713 C 271.14963,385.62088 270.81225,384.84838 270.13801,384.13838 C 269.46363,383.43213 267.80588,382.60463 265.17163,381.65213 C 259.159,379.45338 255.35325,377.43713 253.75863,375.59963 C 252.16438,373.76713 251.3665,371.55713 251.3665,368.97338 C 251.3665,366.61588 252.02713,364.46338 253.34988,362.51713 C 254.66976,360.57088 256.59113,359.06088 259.11301,357.98338 C 261.635,356.90463 264.659,356.36713 268.18538,356.36713 C 279.34013,356.36713 284.9915,360.99338 285.70776,369.10588"
         style="fill:#cf324d;fill-opacity:1;fill-rule:nonzero;stroke:none"
         id="path2458" />
      <path
         d="M 328.54013,357.04213 L 326.65013,365.92088 L 305.71013,365.92088 L 304.32013,372.43963 L 320.88638,372.47838 L 319.03263,380.79463 L 302.55013,380.75588 L 300.82138,388.84838 L 323.48263,388.84838 L 321.45638,398.28963 L 286.05588,398.28963 L 294.85013,357.04213 L 328.54013,357.04213"
         style="fill:#cf324d;fill-opacity:1;fill-rule:nonzero;stroke:none"
         id="path2460" />
      <path
         d="M 370.84138,371.90838 L 359.40638,371.87713 L 359.40638,371.65588 C 359.40638,369.67838 358.80263,368.21088 357.60138,367.25213 C 356.40013,366.28963 355.07263,365.80838 353.62513,365.80838 C 351.74888,365.80838 349.91638,366.49338 348.13138,367.86338 C 346.34388,369.23338 344.91138,371.32588 343.83263,374.14213 C 342.75138,376.95963 342.21013,379.69963 342.21013,382.36088 C 342.21013,384.39838 342.76138,386.09838 343.86763,387.46838 C 344.97138,388.83838 346.58263,389.52338 348.70013,389.52338 C 350.64638,389.52338 352.29013,388.90838 353.63138,387.67588 C 354.97013,386.44213 356.14638,384.54963 357.15888,381.99338 L 369.49388,381.95463 C 368.74138,386.14713 365.44638,391.69338 361.89888,394.60213 C 358.35263,397.50963 353.73013,398.96338 348.04013,398.96338 C 342.10513,398.96338 337.57388,397.37963 334.43763,394.21588 C 331.30013,391.05088 329.73513,386.83588 329.73513,381.57088 C 329.73513,377.54338 330.66763,373.49588 332.53013,369.43338 C 334.39888,365.36963 337.11763,362.17338 340.69888,359.85088 C 344.27888,357.52963 348.57388,356.36713 353.57513,356.36713 C 358.76638,356.36713 362.86888,357.66713 365.87888,360.26588 C 368.88888,362.86588 370.84138,367.71588 370.84138,371.90838"
         style="fill:#cf324d;fill-opacity:1;fill-rule:nonzero;stroke:none"
         id="path2462" />
      <path
         d="M 419.31513,357.04213 L 414.01513,381.92963 C 412.75763,387.72838 410.52013,392.02088 407.29888,394.79463 C 404.07513,397.57588 399.29138,398.96338 392.94013,398.96338 C 389.41763,398.96338 386.60513,398.61713 384.49763,397.92838 C 382.39013,397.23213 380.61263,396.19338 379.17263,394.80963 C 377.73013,393.42463 376.68013,391.84838 376.02513,390.07838 C 375.36888,388.31088 375.04263,386.41463 375.04263,384.39213 C 375.04263,381.82838 375.29513,379.37213 375.80013,377.02588 L 380.04388,357.04213 L 392.82888,357.04213 L 387.87638,380.26088 C 387.65138,381.34963 387.53888,382.50588 387.53888,383.72338 C 387.53888,386.99088 389.46388,388.62338 393.32013,388.62338 C 395.35763,388.62338 397.09263,388.00588 398.52513,386.76588 C 399.95138,385.52963 401.04388,383.12713 401.79263,379.55963 L 406.48513,357.04213 L 419.31513,357.04213"
         style="fill:#cf324d;fill-opacity:1;fill-rule:nonzero;stroke:none"
         id="path2464" />
      <path
         d="M 427.32013,357.04213 L 450.73263,357.04213 C 454.77763,357.04213 457.73513,358.10213 459.60388,360.22338 C 461.48013,362.34588 462.41388,364.89838 462.41388,367.87713 C 462.41388,371.10838 461.42388,373.92588 459.44263,376.33838 C 457.46138,378.75088 455.51888,379.46713 451.11513,379.44588 C 461.98138,379.50213 456.28138,388.76088 457.15513,397.12713 C 457.27513,398.25088 457.61263,397.94463 457.66888,398.30713 L 445.24888,398.32838 C 443.99138,397.42963 444.89138,392.70838 445.53013,388.71838 C 446.14513,384.87213 443.39513,383.49338 438.45013,383.69588 C 436.29263,383.59463 434.48138,383.86463 434.48138,383.86463 L 431.36263,398.28963 L 418.58013,398.28963 L 427.32013,357.04213 z M 436.57638,373.67588 L 438.97638,373.67588 C 442.99388,373.67588 445.59013,373.48963 446.77013,373.11713 C 447.95013,372.74838 448.83513,372.12338 449.41138,371.24213 C 449.98763,370.36338 450.27513,369.51338 450.27513,368.69838 C 450.27513,367.65963 449.93138,366.84338 449.24263,366.24713 C 448.55513,365.65713 447.05888,365.35838 444.75263,365.35838 L 438.34138,365.35838 L 436.57638,373.67588"
         style="fill:#cf324d;fill-opacity:1;fill-rule:nonzero;stroke:none"
         id="path2466" />
      <path
         d="M 485.05388,357.04213 L 476.23013,398.28963 L 463.32638,398.28963 L 472.15013,357.04213 L 485.05388,357.04213"
         style="fill:#cf324d;fill-opacity:1;fill-rule:nonzero;stroke:none"
         id="path2468" />
      <path
         d="M 529.42763,357.04213 L 527.32763,367.15588 L 513.98013,367.15588 L 507.29388,398.28963 L 494.47388,398.28963 L 501.16138,367.15588 L 488.40513,367.15588 L 490.54013,357.04213 L 529.42763,357.04213"
         style="fill:#cf324d;fill-opacity:1;fill-rule:nonzero;stroke:none"
         id="path2470" />
      <path
         d="M 575.12888,357.04213 L 555.35513,382.67338 L 552.01138,398.28963 L 539.16388,398.28963 L 542.56388,382.41463 L 530.17263,357.04213 L 543.52638,357.04213 L 549.86888,372.34463 L 560.54763,357.04213 L 575.12888,357.04213"
         style="fill:#cf324d;fill-opacity:1;fill-rule:nonzero;stroke:none"
         id="path2472" />
      <path
         d="M 385.72013,337.08838 C 385.18638,332.94213 381.68888,329.72713 377.39638,329.72713 C 373.24388,329.72713 369.81638,332.72963 369.11388,336.67713 C 366.84513,336.63338 364.58638,336.54588 362.30013,336.54588 C 290.86063,336.54588 224.42263,350.44838 168.98318,374.30463 L 168.98318,381.79963 C 226.04663,356.36713 295.03263,341.31338 369.43013,340.79338 C 370.54013,344.14838 373.66638,346.58588 377.39638,346.58588 C 381.06138,346.58588 384.15013,344.23088 385.31263,340.96213 C 432.79763,341.96338 453.66138,344.67838 486.48013,352.99463 C 455.23513,343.55463 433.41388,339.13588 385.72013,337.08838 z M 377.45513,344.45338 C 373.93638,344.45338 371.08388,341.60213 371.08388,338.08463 C 371.08388,334.56588 373.93638,331.71463 377.45513,331.71463 C 380.97138,331.71463 383.82388,334.56588 383.82388,338.08463 C 383.82388,341.60213 380.97138,344.45338 377.45513,344.45338"
         style="fill:#3e4a9b;fill-opacity:1;fill-rule:nonzero;stroke:none"
         id="path2474" />
    </g>
  </g>
</svg>
