<?xml version="1.0" encoding="UTF-8" standalone="no"?>
<!-- Created with Inkscape (http://www.inkscape.org/) -->
<svg
   xmlns:dc="http://purl.org/dc/elements/1.1/"
   xmlns:cc="http://creativecommons.org/ns#"
   xmlns:rdf="http://www.w3.org/1999/02/22-rdf-syntax-ns#"
   xmlns:svg="http://www.w3.org/2000/svg"
   xmlns="http://www.w3.org/2000/svg"
   xmlns:sodipodi="http://sodipodi.sourceforge.net/DTD/sodipodi-0.dtd"
   xmlns:inkscape="http://www.inkscape.org/namespaces/inkscape"
   width="63.778751"
   height="63.779793"
   id="svg3137"
   sodipodi:version="0.32"
   inkscape:version="0.46"
   version="1.0"
   sodipodi:docname="logo-cnrs-new-intl.svg"
   inkscape:output_extension="org.inkscape.output.svg.inkscape">
  <defs
     id="defs3139">
    <radialGradient
       fx="0"
       fy="0"
       cx="0"
       cy="0"
       r="1"
       gradientUnits="userSpaceOnUse"
       gradientTransform="matrix(32.2071,0,0,-32.20741,151.1965,374.4604)"
       spreadMethod="pad"
       id="radialGradient2924">
      <stop
         style="stop-opacity:1;stop-color:#486492"
         offset="0"
         id="stop2926" />
      <stop
         style="stop-opacity:1;stop-color:#132746"
         offset="1"
         id="stop2928" />
    </radialGradient>
    <clipPath
       clipPathUnits="userSpaceOnUse"
       id="clipPath2910">
      <path
         d="M 119.881,342.992 L 170.904,342.992 L 170.904,394.016 L 119.881,394.016 L 119.881,342.992 z"
         id="path2912" />
    </clipPath>
    <inkscape:perspective
       sodipodi:type="inkscape:persp3d"
       inkscape:vp_x="0 : 526.18109 : 1"
       inkscape:vp_y="0 : 1000 : 0"
       inkscape:vp_z="744.09448 : 526.18109 : 1"
       inkscape:persp3d-origin="372.04724 : 350.78739 : 1"
       id="perspective3145" />
  </defs>
  <sodipodi:namedview
     id="base"
     pagecolor="#ffffff"
     bordercolor="#666666"
     borderopacity="1.0"
     gridtolerance="10000"
     guidetolerance="10"
     objecttolerance="10"
     inkscape:pageopacity="0.0"
     inkscape:pageshadow="2"
     inkscape:zoom="12.856737"
     inkscape:cx="31.889376"
     inkscape:cy="31.889896"
     inkscape:document-units="px"
     inkscape:current-layer="layer1"
     showgrid="false"
     inkscape:window-width="1400"
     inkscape:window-height="1033"
     inkscape:window-x="-4"
     inkscape:window-y="-4" />
  <metadata
     id="metadata3142">
    <rdf:RDF>
      <cc:Work
         rdf:about="">
        <dc:format>image/svg+xml</dc:format>
        <dc:type
           rdf:resource="http://purl.org/dc/dcmitype/StillImage" />
      </cc:Work>
    </rdf:RDF>
  </metadata>
  <g
     inkscape:label="Layer 1"
     inkscape:groupmode="layer"
     id="layer1"
     transform="translate(-340.15787,-494.29119)">
    <g
       transform="matrix(1.25,0,0,-1.25,190.30662,986.81119)"
       id="g2906">
      <g
         clip-path="url(#clipPath2910)"
         id="g2908">
        <g
           id="g2914">
          <g
             id="g2916">
            <g
               id="g2922">
              <path
                 id="path2930"
                 style="fill:url(#radialGradient2924);stroke:none"
                 d="M 144.3109,393.9728 C 137.4519,394.3957 131.265,391.7158 125.9228,386.0058 C 118.9668,378.5713 119.0986,373.3645 120.9968,364.0399 C 122.2407,357.9293 125.8682,352.0298 130.9489,347.8532 C 136.8552,342.9995 143.7944,341.75 151.0165,344.2424 C 158.9749,346.9898 166.588,354.8546 169.531,363.3683 C 172.7356,372.6479 170.2729,381.0598 162.7717,386.4457 C 156.3148,391.0834 150.1042,393.6152 144.3109,393.9728" />
            </g>
          </g>
        </g>
        <g
           id="g2932">
          <path
             id="path2934"
             style="fill:#ffffff;fill-opacity:1;fill-rule:nonzero;stroke:none"
             d="M 135.874,369.7778 L 134.1241,369.7778 L 134.1221,369.7283 C 134.108,369.3889 133.9061,366.4117 131.2425,366.4117 C 128.8618,366.4117 127.6536,368.5452 127.651,372.7534 C 127.6536,376.9615 128.8618,379.0952 131.2425,379.0952 C 133.9524,379.0952 134.1165,375.9139 134.1221,375.7787 L 134.1241,375.7295 L 135.874,375.7295 C 136.0357,375.7295 136.1928,375.7957 136.3053,375.9111 C 136.4134,376.0222 136.4688,376.1654 136.4614,376.3147 C 136.4248,377.1404 136.0015,381.259 131.2179,381.259 C 127.3518,381.259 125.3087,378.3211 125.3087,372.7623 C 125.3087,367.1922 127.3518,364.2479 131.2179,364.2479 C 135.8219,364.2479 136.3943,368.0096 136.4605,369.1623 C 136.472,369.3215 136.4175,369.4743 136.3058,369.5918 C 136.1942,369.7101 136.036,369.7778 135.874,369.7778" />
          <path
             id="path2936"
             style="fill:#66cde2;fill-opacity:1;fill-rule:nonzero;stroke:none"
             d="M 161.266,373.7648 L 161.2666,373.7643 L 159.7588,374.4216 C 158.3095,375.0586 157.7956,375.6779 157.7956,376.79 C 157.7956,378.2396 158.8561,379.2141 160.4344,379.2141 C 161.3677,379.2141 162.133,379.0227 163.0678,378.0709 L 163.1188,378.0187 L 163.9231,378.7545 C 164.389,379.187 164.2543,379.5764 164.0596,379.8268 C 163.2751,380.7524 162.0154,381.2607 160.5112,381.2607 C 157.6105,381.2607 155.5051,379.3684 155.5051,376.7612 C 155.5051,374.1973 157.1206,373.1254 158.866,372.3495 L 160.4041,371.6629 C 161.9497,370.9699 162.6856,370.3787 162.6856,368.8916 C 162.6856,366.8635 160.8529,366.3227 159.7699,366.3227 C 158.8384,366.3227 157.8013,366.5219 156.5269,367.9657 L 156.4771,368.0225 L 155.6392,367.2866 C 155.2081,366.9075 155.2045,366.5823 155.6245,366.042 C 156.7783,364.559 158.4691,364.2479 159.685,364.2479 C 162.3142,364.2479 164.9761,365.8627 164.9761,368.9489 C 164.9761,371.6203 163.4932,372.8061 161.266,373.7648" />
          <path
             id="path2938"
             style="fill:#66cde2;fill-opacity:1;fill-rule:nonzero;stroke:none"
             d="M 147.6048,376.392 C 147.6048,379.0182 145.4766,381.2432 142.8493,381.2432 C 141.6139,381.2432 140.4889,380.7721 139.6431,379.9994 L 139.6431,380.9021 L 138.061,380.9021 C 137.5847,380.9021 137.4027,380.591 137.4027,380.2336 L 137.4027,364.9088 C 137.4027,364.4776 137.6658,364.247 138.0537,364.247 L 139.636,364.247 C 139.636,364.247 139.636,376.2984 139.636,376.299 C 139.636,377.8822 140.9204,379.1659 142.5033,379.1659 C 144.0862,379.1659 145.3703,377.8822 145.3703,376.299 C 145.3703,376.2984 145.3703,364.245 145.3703,364.245 L 146.9427,364.245 C 147.3786,364.245 147.6048,364.4869 147.6048,364.9041 C 147.6048,364.9041 147.6048,376.377 147.6048,376.392" />
          <path
             id="path2940"
             style="fill:#ffffff;fill-opacity:1;fill-rule:nonzero;stroke:none"
             d="M 155.7763,380.0975 C 155.8588,380.2 155.9098,380.3288 155.9098,380.4702 C 155.9098,380.7338 155.7379,380.9553 155.5015,381.0357 C 155.0437,381.1891 154.5559,381.273 154.0492,381.273 C 152.8138,381.273 151.6888,380.8019 150.8431,380.0294 L 150.8431,380.932 L 149.2609,380.932 C 148.7843,380.932 148.602,380.6209 148.602,380.2633 L 148.602,364.9387 C 148.602,364.5074 148.866,364.2769 149.2539,364.2769 L 150.8359,364.2769 C 150.8359,364.2769 150.8359,376.3283 150.8359,376.3287 C 150.8359,377.9121 152.1199,379.1959 153.7036,379.1959 C 154.1185,379.1959 154.5118,379.1058 154.8676,378.9474 L 155.7814,380.0943" />
          <path
             id="path2942"
             style="fill:#ffffff;fill-opacity:1;fill-rule:nonzero;stroke:none"
             d="M 142.9343,347.6681 C 142.9343,347.4332 142.7439,347.2433 142.5089,347.2433 C 142.2745,347.2433 142.0841,347.4332 142.0841,347.6681 L 142.0841,376.582 C 142.0841,376.8168 142.2745,377.0073 142.5089,377.0073 C 142.7439,377.0073 142.9343,376.8168 142.9343,376.582" />
        </g>
      </g>
    </g>
  </g>
</svg>
