<?xml version="1.0" encoding="UTF-8" standalone="no"?>
<!-- Created with Inkscape (http://www.inkscape.org/) -->
<svg
   xmlns:dc="http://purl.org/dc/elements/1.1/"
   xmlns:cc="http://creativecommons.org/ns#"
   xmlns:rdf="http://www.w3.org/1999/02/22-rdf-syntax-ns#"
   xmlns:svg="http://www.w3.org/2000/svg"
   xmlns="http://www.w3.org/2000/svg"
   xmlns:sodipodi="http://sodipodi.sourceforge.net/DTD/sodipodi-0.dtd"
   xmlns:inkscape="http://www.inkscape.org/namespaces/inkscape"
   width="43.73"
   height="24.01"
   id="svg9890"
   sodipodi:version="0.32"
   inkscape:version="0.46"
   version="1.0"
   sodipodi:docname="ENS Cachan.svg"
   inkscape:output_extension="org.inkscape.output.svg.inkscape">
  <defs
     id="defs9892">
    <clipPath
       clipPathUnits="userSpaceOnUse"
       id="clipPath3220">
      <path
         d="M 149.57715,328.25195 C 149.57715,328.25195 149.57715,346.6582 149.57715,346.6582 C 149.57715,346.6582 183.75928,346.6582 183.75928,346.6582 C 183.75928,346.6582 183.75928,328.25195 183.75928,328.25195 C 183.75928,328.25195 149.57715,328.25195 149.57715,328.25195 z"
         id="path3222" />
    </clipPath>
    <inkscape:perspective
       sodipodi:type="inkscape:persp3d"
       inkscape:vp_x="0 : 526.18109 : 1"
       inkscape:vp_y="0 : 1000 : 0"
       inkscape:vp_z="744.09448 : 526.18109 : 1"
       inkscape:persp3d-origin="372.04724 : 350.78739 : 1"
       id="perspective9898" />
  </defs>
  <sodipodi:namedview
     id="base"
     pagecolor="#ffffff"
     bordercolor="#666666"
     borderopacity="1.0"
     gridtolerance="10000"
     guidetolerance="10"
     objecttolerance="10"
     inkscape:pageopacity="0.0"
     inkscape:pageshadow="2"
     inkscape:zoom="9.8894544"
     inkscape:cx="22.26312"
     inkscape:cy="16.182647"
     inkscape:document-units="px"
     inkscape:current-layer="layer1"
     showgrid="false"
     inkscape:window-width="640"
     inkscape:window-height="675"
     inkscape:window-x="132"
     inkscape:window-y="132" />
  <metadata
     id="metadata9895">
    <rdf:RDF>
      <cc:Work
         rdf:about="">
        <dc:format>image/svg+xml</dc:format>
        <dc:type
           rdf:resource="http://purl.org/dc/dcmitype/StillImage" />
      </cc:Work>
    </rdf:RDF>
  </metadata>
  <g
     inkscape:label="Layer 1"
     inkscape:groupmode="layer"
     id="layer1"
     transform="translate(-353.63617,-520.85828)">
    <g
       id="g9953"
       transform="translate(0.5341364,0.5021902)">
      <path
         d="M 377.64068,536.89835 C 377.64068,536.89835 374.52057,536.89835 374.52057,536.89835 C 374.52057,536.89835 374.53399,525.04529 374.53399,525.04529 C 374.53399,525.04529 369.42718,532.07409 367.85919,534.07483 C 366.65192,535.61413 364.79462,536.98743 362.37884,536.98743 C 362.37884,535.5568 362.37884,534.47034 362.37884,534.47034 C 364.40399,534.47034 364.94659,533.63175 365.93292,532.4464 C 366.92108,531.26114 374.15679,521.39172 374.15679,521.39172 C 374.15679,521.39172 377.22503,521.41984 377.22503,521.41984 C 377.22503,521.41984 377.22503,532.34024 377.22503,532.34024 C 377.22503,532.34024 385.16937,521.56873 385.16937,521.56873 C 385.16937,521.56873 388.38775,521.56873 388.38775,521.56873 C 388.38775,521.56873 377.66447,536.89835 377.66447,536.89835"
         style="fill:#104f8c;fill-opacity:1;fill-rule:nonzero;stroke:none"
         id="path3224" />
      <g
         id="g3226"
         transform="matrix(1.25,0,0,1.25,166.66473,954.18103)">
        <path
           d="M 168.78076,-333.82614 C 168.78076,-333.82614 166.28467,-333.82614 166.28467,-333.82614 C 166.28467,-333.82614 166.29541,-343.30859 166.29541,-343.30859 C 166.29541,-343.30859 162.20996,-337.68555 160.95557,-336.08496 C 159.98975,-334.85352 158.50391,-333.75488 156.57129,-333.75488 C 156.57129,-334.89938 156.57129,-335.76855 156.57129,-335.76855 C 158.19141,-335.76855 158.62549,-336.43942 159.41455,-337.3877 C 160.20508,-338.33591 165.99365,-346.23145 165.99365,-346.23145 C 165.99365,-346.23145 168.44824,-346.20895 168.44824,-346.20895 C 168.44824,-346.20895 168.44824,-337.47263 168.44824,-337.47263 C 168.44824,-337.47263 174.80371,-346.08984 174.80371,-346.08984 C 174.80371,-346.08984 177.37842,-346.08984 177.37842,-346.08984 C 177.37842,-346.08984 168.79979,-333.82614 168.79979,-333.82614"
           style="fill:none;stroke:#2a3e92;stroke-width:0.09;stroke-linecap:butt;stroke-linejoin:miter;stroke-miterlimit:4;stroke-dasharray:none;stroke-opacity:1"
           id="path3228" />
      </g>
      <path
         d="M 361.63238,532.16809 C 363.8388,529.28604 366.44012,525.58484 367.75115,523.66345 C 365.01434,521.20255 362.96293,520.87293 361.04154,520.88513 C 358.67095,520.89974 356.37541,522.28405 354.72564,524.81095 C 353.38958,526.85685 353.60809,529.26896 353.83392,530.52751 C 353.98345,531.35144 354.57853,533.246 355.9909,534.60339 C 357.36176,535.92175 358.48297,536.53333 360.9201,537.02038 C 360.9201,535.40418 360.89628,536.2648 360.89628,534.4606 C 358.68438,533.91984 357.6535,532.90173 356.94793,531.63342 C 356.27167,530.42493 356.0385,527.94934 356.80205,526.29529 C 357.38556,525.02819 358.40546,524.08459 359.60418,523.63904 C 360.65215,523.24963 362.43375,523.10074 364.28558,524.29578 C 363.30045,525.70203 359.61759,530.57507 359.61759,530.57507 C 359.61759,530.57507 361.63238,532.16809 361.63238,532.16809 z"
         style="fill:#104f8c;fill-opacity:1;fill-rule:nonzero;stroke:none"
         id="path3230" />
      <g
         id="g3232"
         transform="matrix(1.25,0,0,1.25,166.66473,954.18103)">
        <path
           d="M 155.97412,-337.61035 C 157.73926,-339.91599 159.82031,-342.87695 160.86914,-344.41406 C 158.67969,-346.38278 157.03856,-346.64648 155.50145,-346.63672 C 153.60498,-346.62503 151.76854,-345.51758 150.44873,-343.49606 C 149.37988,-341.85934 149.55469,-339.92966 149.73535,-338.92282 C 149.85498,-338.26367 150.33104,-336.74802 151.46094,-335.66211 C 152.55762,-334.60742 153.45459,-334.11816 155.4043,-333.72852 C 155.4043,-335.02148 155.38524,-334.33298 155.38524,-335.77634 C 153.61572,-336.20895 152.79102,-337.02344 152.22656,-338.03809 C 151.68555,-339.00488 151.49902,-340.98535 152.10986,-342.30859 C 152.57666,-343.32227 153.39258,-344.07715 154.35156,-344.43359 C 155.18994,-344.74512 156.61522,-344.86423 158.09668,-343.9082 C 157.30858,-342.7832 154.36229,-338.88477 154.36229,-338.88477 C 154.36229,-338.88477 155.97412,-337.61035 155.97412,-337.61035 z"
           style="fill:none;stroke:#2a3e92;stroke-width:0.09;stroke-linecap:butt;stroke-linejoin:miter;stroke-miterlimit:4;stroke-dasharray:none;stroke-opacity:1"
           id="path3234" />
      </g>
      <path
         d="M 392.06817,527.95304 C 396.11297,529.75724 396.37849,530.97913 396.33087,533.18493 C 396.28753,535.21374 394.92033,536.4589 393.45793,537.02038 C 391.99493,537.5795 390.45927,537.62829 388.8272,536.8739 C 387.19328,536.1171 386.42426,533.89054 386.34063,532.31579 C 386.34063,532.31579 387.02362,532.31579 388.72833,532.31579 C 388.72833,533.19222 388.95719,533.6586 389.3637,534.19324 C 389.82698,534.8024 390.77787,535.2406 391.87408,534.99645 C 393.18937,534.70349 393.61176,533.90637 393.79852,532.9982 C 393.97003,532.16935 393.44208,530.85095 392.36176,530.41638 C 391.09468,529.90251 389.94779,529.53748 388.99688,528.83069 C 388.36637,528.36075 387.08587,527.16199 387.50458,524.87683 C 387.92692,522.57584 390.08697,521.40149 391.7752,521.349 C 393.11552,521.30506 394.04206,521.66515 394.74943,522.37194 C 395.66313,523.28503 396.16239,524.4191 396.16239,525.61413 C 394.84647,525.61413 395.06622,525.61413 393.82232,525.61413 C 393.72587,524.59001 393.29557,524.06628 392.74992,523.80993 C 391.9229,523.41935 390.71623,523.6586 390.28898,524.46668 C 389.66398,525.65075 390.04852,527.04968 390.90913,527.43424 C 390.90913,527.43424 391.60917,527.74793 392.06817,527.95304 C 392.06817,527.95304 392.06817,527.95304 392.06817,527.95304 z"
         style="fill:#104f8c;fill-opacity:1;fill-rule:nonzero;stroke:none"
         id="path3236" />
      <g
         id="g3238"
         transform="matrix(1.25,0,0,1.25,166.66473,954.18103)">
        <path
           d="M 180.32275,-340.98239 C 183.55859,-339.53903 183.77101,-338.56152 183.73291,-336.79688 C 183.69824,-335.17383 182.60448,-334.1777 181.43456,-333.72852 C 180.26416,-333.28122 179.03563,-333.24219 177.72998,-333.8457 C 176.42284,-334.45114 175.80762,-336.23239 175.74072,-337.49219 C 175.74072,-337.49219 176.28711,-337.49219 177.65088,-337.49219 C 177.65088,-336.79105 177.83397,-336.41794 178.15918,-335.99023 C 178.5298,-335.5029 179.29051,-335.15234 180.16748,-335.34766 C 181.21971,-335.58203 181.55762,-336.21973 181.70703,-336.94626 C 181.84424,-337.60934 181.42188,-338.66406 180.55762,-339.01172 C 179.54396,-339.42282 178.62645,-339.71484 177.86572,-340.28027 C 177.36131,-340.65622 176.33691,-341.61523 176.67188,-343.44336 C 177.00975,-345.28415 178.73779,-346.22363 180.08838,-346.26562 C 181.16063,-346.30078 181.90186,-346.0127 182.46776,-345.44727 C 183.19872,-344.7168 183.59813,-343.80954 183.59813,-342.85352 C 182.54539,-342.85352 182.72119,-342.85352 181.72607,-342.85352 C 181.64891,-343.67282 181.30467,-344.0918 180.86815,-344.29688 C 180.20654,-344.60934 179.2412,-344.41794 178.8994,-343.77148 C 178.3994,-342.82422 178.70703,-341.70508 179.39552,-341.39743 C 179.39552,-341.39743 179.95555,-341.14648 180.32275,-340.98239 C 180.32275,-340.98239 180.32275,-340.98239 180.32275,-340.98239 z"
           style="fill:none;stroke:#2a3e92;stroke-width:0.09;stroke-linecap:butt;stroke-linejoin:miter;stroke-miterlimit:4;stroke-dasharray:none;stroke-opacity:1"
           id="path3240" />
      </g>
      <path
         d="M 356.19964,543.52918 C 356.07023,543.59265 355.79559,543.65613 355.44831,543.65613 C 354.64691,543.65613 354.04754,543.18376 354.04754,542.30969 C 354.04754,541.47595 354.64995,540.9169 355.53314,540.9169 C 355.88348,540.9169 356.11176,540.98771 356.20878,541.03405 C 356.20878,541.03405 356.11603,541.31485 356.11603,541.31485 C 355.97992,541.25134 355.78217,541.20255 355.54473,541.20255 C 354.87823,541.20255 354.43451,541.6005 354.43451,542.29748 C 354.43451,542.95056 354.83551,543.36316 355.52582,543.36316 C 355.75287,543.36316 355.97992,543.32165 356.12762,543.25455 C 356.12762,543.25455 356.19964,543.52918 356.19964,543.52918 z"
         style="fill:#104f8c;fill-opacity:1;fill-rule:nonzero;stroke:none"
         id="path3242" />
      <path
         d="M 372.04742,543.6134 C 371.91924,543.67566 371.65008,543.74036 371.30951,543.74036 C 370.51969,543.74036 369.93072,543.26672 369.93072,542.39396 C 369.93072,541.55895 370.52459,540.99988 371.39252,540.99988 C 371.73614,540.99988 371.96134,541.07068 372.05658,541.1171 C 372.05658,541.1171 371.9638,541.39783 371.9638,541.39783 C 371.83258,541.33435 371.63727,541.28552 371.40409,541.28552 C 370.74859,541.28552 370.31281,541.68347 370.31281,542.38175 C 370.31281,543.03479 370.70648,543.4486 371.38519,543.4486 C 371.60858,543.4486 371.83258,543.4047 371.97723,543.33874 C 371.97723,543.33874 372.04742,543.6134 372.04742,543.6134 z"
         style="fill:#104f8c;fill-opacity:1;fill-rule:nonzero;stroke:none"
         id="path3244" />
      <path
         d="M 362.57416,542.53185 C 362.57416,542.53185 362.83355,541.76404 362.83355,541.76404 C 362.88666,541.6029 362.92816,541.43689 362.96355,541.28308 C 362.96355,541.28308 362.97638,541.28308 362.97638,541.28308 C 363.01544,541.43689 363.05451,541.59435 363.10943,541.76648 C 363.10943,541.76648 363.37372,542.53185 363.37372,542.53185 C 363.37372,542.53185 362.57416,542.53185 362.57416,542.53185 M 363.4439,542.79919 C 363.4439,542.79919 363.7271,543.63293 363.7271,543.63293 C 363.7271,543.63293 364.09454,543.63293 364.09454,543.63293 C 364.09454,543.63293 363.18939,540.98034 363.18939,540.98034 C 363.18939,540.98034 362.77495,540.98034 362.77495,540.98034 C 362.77495,540.98034 361.87284,543.63293 361.87284,543.63293 C 361.87284,543.63293 362.22808,543.63293 362.22808,543.63293 C 362.22808,543.63293 362.50397,542.79919 362.50397,542.79919 C 362.50397,542.79919 363.4439,542.79919 363.4439,542.79919 z"
         style="fill:#104f8c;fill-opacity:1;fill-rule:nonzero;stroke:none"
         id="path3246" />
      <path
         d="M 378.22052,541.12683 C 378.22052,541.12683 378.22052,542.23771 378.22052,542.23771 C 378.22052,542.23771 379.50288,542.23771 379.50288,542.23771 C 379.50288,542.23771 379.50288,541.12683 379.50288,541.12683 C 379.50288,541.12683 379.85015,541.12683 379.85015,541.12683 C 379.85015,541.12683 379.85015,543.78064 379.85015,543.78064 C 379.85015,543.78064 379.50288,543.78064 379.50288,543.78064 C 379.50288,543.78064 379.50288,542.53552 379.50288,542.53552 C 379.50288,542.53552 378.22052,542.53552 378.22052,542.53552 C 378.22052,542.53552 378.22052,543.78064 378.22052,543.78064 C 378.22052,543.78064 377.87323,543.78064 377.87323,543.78064 C 377.87323,543.78064 377.87323,541.12683 377.87323,541.12683 C 377.87323,541.12683 378.22052,541.12683 378.22052,541.12683 z"
         style="fill:#104f8c;fill-opacity:1;fill-rule:nonzero;stroke:none"
         id="path3248" />
      <path
         d="M 386.27592,542.99939 C 386.27592,542.99939 385.96708,543.86609 385.96708,543.86609 C 385.96708,543.86609 385.56974,543.86609 385.56974,543.86609 C 385.56974,543.86609 386.58051,541.10974 386.58051,541.10974 C 386.58051,541.10974 387.04376,541.10974 387.04376,541.10974 C 387.04376,541.10974 388.05818,543.86609 388.05818,543.86609 C 388.05818,543.86609 387.64801,543.86609 387.64801,543.86609 C 387.64801,543.86609 387.33183,542.99939 387.33183,542.99939 C 387.33183,542.99939 386.27592,542.99939 386.27592,542.99939 M 387.25248,542.7211 C 387.25248,542.7211 386.95525,541.92765 386.95525,541.92765 C 386.89422,541.7482 386.85028,541.58338 386.80633,541.42468 C 386.80633,541.42468 386.79353,541.42468 386.79353,541.42468 C 386.75323,541.58338 386.70441,541.75549 386.64642,541.92273 C 386.64642,541.92273 386.35587,542.7211 386.35587,542.7211 C 386.35587,542.7211 387.25248,542.7211 387.25248,542.7211 z"
         style="fill:#104f8c;fill-opacity:1;fill-rule:nonzero;stroke:none"
         id="path3250" />
      <path
         d="M 393.92362,543.86609 C 393.92362,543.86609 393.92362,541.1073 393.92362,541.1073 C 393.92362,541.1073 394.34538,541.1073 394.34538,541.1073 C 394.34538,541.1073 395.28593,542.50378 395.28593,542.50378 C 395.50077,542.8273 395.67657,543.11413 395.81146,543.39974 C 395.81146,543.39974 395.82487,543.39489 395.82487,543.39489 C 395.79071,543.02868 395.78218,542.69177 395.78218,542.26574 C 395.78218,542.26574 395.78218,541.1073 395.78218,541.1073 C 395.78218,541.1073 396.13922,541.1073 396.13922,541.1073 C 396.13922,541.1073 396.13922,543.86609 396.13922,543.86609 C 396.13922,543.86609 395.75468,543.86609 395.75468,543.86609 C 395.75468,543.86609 394.8178,542.4672 394.8178,542.4672 C 394.6115,542.1608 394.41438,541.84461 394.27093,541.54675 C 394.27093,541.54675 394.2575,541.55163 394.2575,541.55163 C 394.27948,541.89953 394.28373,542.23034 394.28373,542.68689 C 394.28373,542.68689 394.28373,543.86609 394.28373,543.86609 C 394.28373,543.86609 393.92362,543.86609 393.92362,543.86609 z"
         style="fill:#104f8c;fill-opacity:1;fill-rule:nonzero;stroke:none"
         id="path3252" />
      <path
         d="M 396.34795,539.73771 C 396.34795,539.73771 353.89373,539.73771 353.89373,539.73771 C 353.89373,539.73771 353.89373,539.19568 353.89373,539.19568 C 353.89373,539.19568 396.34795,539.19568 396.34795,539.19568 C 396.34795,539.19568 396.34795,539.73771 396.34795,539.73771 z"
         style="fill:#104f8c;fill-opacity:1;fill-rule:nonzero;stroke:none"
         id="path3254" />
    </g>
  </g>
</svg>
