<?xml version="1.0" encoding="UTF-8" standalone="no"?>
<!-- Created with Inkscape (http://www.inkscape.org/) -->
<svg
   xmlns:dc="http://purl.org/dc/elements/1.1/"
   xmlns:cc="http://creativecommons.org/ns#"
   xmlns:rdf="http://www.w3.org/1999/02/22-rdf-syntax-ns#"
   xmlns:svg="http://www.w3.org/2000/svg"
   xmlns="http://www.w3.org/2000/svg"
   xmlns:sodipodi="http://sodipodi.sourceforge.net/DTD/sodipodi-0.dtd"
   xmlns:inkscape="http://www.inkscape.org/namespaces/inkscape"
   width="85.03875"
   height="85.038361"
   id="svg3056"
   sodipodi:version="0.32"
   inkscape:version="0.46"
   version="1.0"
   sodipodi:docname="logo-cnrs-new-en.svg"
   inkscape:output_extension="org.inkscape.output.svg.inkscape">
  <defs
     id="defs3058">
    <radialGradient
       fx="0"
       fy="0"
       cx="0"
       cy="0"
       r="1"
       gradientUnits="userSpaceOnUse"
       gradientTransform="matrix(42.9428,0,0,-42.9428,155.1404,450.1476)"
       spreadMethod="pad"
       id="radialGradient2772">
      <stop
         style="stop-opacity:1;stop-color:#486492"
         offset="0"
         id="stop2774" />
      <stop
         style="stop-opacity:1;stop-color:#132746"
         offset="1"
         id="stop2776" />
    </radialGradient>
    <clipPath
       clipPathUnits="userSpaceOnUse"
       id="clipPath2758">
      <path
         d="M 113.386,408.189 L 181.417,408.189 L 181.417,476.221 L 113.386,476.221 L 113.386,408.189 z"
         id="path2760" />
    </clipPath>
    <inkscape:perspective
       sodipodi:type="inkscape:persp3d"
       inkscape:vp_x="0 : 526.18109 : 1"
       inkscape:vp_y="0 : 1000 : 0"
       inkscape:vp_z="744.09448 : 526.18109 : 1"
       inkscape:persp3d-origin="372.04724 : 350.78739 : 1"
       id="perspective3064" />
  </defs>
  <sodipodi:namedview
     id="base"
     pagecolor="#ffffff"
     bordercolor="#666666"
     borderopacity="1.0"
     gridtolerance="10000"
     guidetolerance="10"
     objecttolerance="10"
     inkscape:pageopacity="0.0"
     inkscape:pageshadow="2"
     inkscape:zoom="9.6427071"
     inkscape:cx="42.519375"
     inkscape:cy="42.51918"
     inkscape:document-units="px"
     inkscape:current-layer="layer1"
     showgrid="false"
     inkscape:window-width="1400"
     inkscape:window-height="1033"
     inkscape:window-x="-4"
     inkscape:window-y="-4" />
  <metadata
     id="metadata3061">
    <rdf:RDF>
      <cc:Work
         rdf:about="">
        <dc:format>image/svg+xml</dc:format>
        <dc:type
           rdf:resource="http://purl.org/dc/dcmitype/StillImage" />
      </cc:Work>
    </rdf:RDF>
  </metadata>
  <g
     inkscape:label="Layer 1"
     inkscape:groupmode="layer"
     id="layer1"
     transform="translate(-329.52787,-483.66195)">
    <g
       transform="matrix(1.25,0,0,-1.25,187.79537,1078.9382)"
       id="g2754">
      <g
         clip-path="url(#clipPath2758)"
         id="g2756">
        <g
           id="g2762">
          <g
             id="g2764">
            <g
               id="g2770">
              <path
                 id="path2778"
                 style="fill:url(#radialGradient2772);stroke:none"
                 d="M 145.9592,476.1644 C 136.8139,476.7283 128.5647,473.1548 121.4417,465.5415 C 112.1671,455.6291 112.3428,448.6869 114.8735,436.254 C 116.5321,428.1064 121.369,420.2408 128.1432,414.6716 C 136.0182,408.2004 145.2706,406.534 154.8996,409.8572 C 165.5112,413.5208 175.662,424.0072 179.5856,435.3588 C 183.8592,447.7314 180.5756,458.947 170.574,466.1282 C 161.9644,472.3119 153.6832,475.6876 145.9592,476.1644" />
            </g>
          </g>
        </g>
        <g
           id="g2780">
          <path
             id="path2782"
             style="fill:#ffffff;fill-opacity:1;fill-rule:nonzero;stroke:none"
             d="M 134.71,443.9044 L 132.3768,443.9044 L 132.3741,443.8384 C 132.3553,443.3861 132.0862,439.4162 128.5346,439.4162 C 125.3604,439.4162 123.7495,442.2611 123.746,447.872 C 123.7495,453.4829 125.3604,456.3275 128.5346,456.3275 C 132.1479,456.3275 132.3667,452.0861 132.3741,451.9056 L 132.3768,451.84 L 134.71,451.84 C 134.9256,451.84 135.135,451.9283 135.285,452.0822 C 135.4292,452.2302 135.503,452.4212 135.4932,452.6205 C 135.4444,453.7212 134.88,459.2126 128.5018,459.2126 C 123.3471,459.2126 120.6229,455.2955 120.6229,447.8837 C 120.6229,440.4572 123.3471,436.5314 128.5018,436.5314 C 134.6405,436.5314 135.4038,441.547 135.4921,443.0837 C 135.5073,443.2962 135.4346,443.4998 135.2858,443.6564 C 135.137,443.8142 134.926,443.9044 134.71,443.9044" />
          <path
             id="path2784"
             style="fill:#66cde2;fill-opacity:1;fill-rule:nonzero;stroke:none"
             d="M 168.566,449.2205 L 168.5668,449.2197 L 166.5568,450.0962 C 164.624,450.9455 163.9388,451.7712 163.9388,453.2541 C 163.9388,455.1869 165.3528,456.4861 167.4576,456.4861 C 168.7012,456.4861 169.7224,456.231 170.9684,454.9619 L 171.0364,454.8923 L 172.1092,455.8736 C 172.73,456.4501 172.5504,456.9693 172.2912,457.3033 C 171.2448,458.5372 169.5652,459.215 167.56,459.215 C 163.692,459.215 160.8848,456.6919 160.8848,453.2158 C 160.8848,449.797 163.0388,448.3681 165.366,447.3333 L 167.4168,446.4181 C 169.4776,445.4939 170.4592,444.7056 170.4592,442.7228 C 170.4592,440.0189 168.0152,439.2978 166.5716,439.2978 C 165.3292,439.2978 163.9464,439.5634 162.2472,441.4884 L 162.1808,441.5642 L 161.0636,440.5829 C 160.4888,440.0775 160.484,439.6439 161.0444,438.9236 C 162.5824,436.9462 164.8372,436.5314 166.4584,436.5314 C 169.9636,436.5314 173.5128,438.6845 173.5128,442.7994 C 173.5128,446.3611 171.5356,447.9423 168.566,449.2205" />
          <path
             id="path2786"
             style="fill:#66cde2;fill-opacity:1;fill-rule:nonzero;stroke:none"
             d="M 150.3512,452.7236 C 150.3512,456.2251 147.5135,459.1915 144.0104,459.1915 C 142.3632,459.1915 140.8632,458.5634 139.7354,457.5329 L 139.7354,458.7368 L 137.6261,458.7368 C 136.9909,458.7368 136.7483,458.322 136.7483,457.8455 L 136.7483,437.4127 C 136.7483,436.8376 137.0991,436.5298 137.6163,436.5298 L 139.726,436.5298 C 139.726,436.5298 139.726,452.5986 139.726,452.5994 C 139.726,454.7103 141.4385,456.422 143.5491,456.422 C 145.6596,456.422 147.3717,454.7103 147.3717,452.5994 C 147.3717,452.5986 147.3717,436.5275 147.3717,436.5275 L 149.4684,436.5275 C 150.0497,436.5275 150.3512,436.8501 150.3512,437.4064 C 150.3512,437.4064 150.3512,452.7032 150.3512,452.7236" />
          <path
             id="path2788"
             style="fill:#ffffff;fill-opacity:1;fill-rule:nonzero;stroke:none"
             d="M 161.2464,457.6642 C 161.3568,457.8009 161.4248,457.9724 161.4248,458.1611 C 161.4248,458.5127 161.1948,458.8079 160.88,458.915 C 160.27,459.1196 159.6192,459.2314 158.9436,459.2314 C 157.2964,459.2314 155.7964,458.6032 154.6684,457.5732 L 154.6684,458.7767 L 152.5591,458.7767 C 151.9239,458.7767 151.6809,458.3618 151.6809,457.8853 L 151.6809,437.4525 C 151.6809,436.8775 152.0325,436.5696 152.5497,436.5696 L 154.6592,436.5696 C 154.6592,436.5696 154.6592,452.6384 154.6592,452.6392 C 154.6592,454.7501 156.3716,456.4619 158.4824,456.4619 C 159.0356,456.4619 159.5608,456.3415 160.0348,456.1306 L 161.2536,457.6595" />
          <path
             id="path2790"
             style="fill:#ffffff;fill-opacity:1;fill-rule:nonzero;stroke:none"
             d="M 143.5723,413.984 C 143.6727,413.8552 143.7333,413.5792 143.802,413.4316 C 143.8712,413.2892 144.0184,413.2292 144.202,413.2292 C 144.4094,413.2292 144.5751,413.3308 144.5751,413.538 C 144.5751,413.8364 144.3497,413.984 143.9864,413.984 L 143.5723,413.984 z M 144.3634,414.4528 C 144.4552,414.4528 144.5379,414.508 144.5379,414.5816 C 144.5379,414.6136 144.5336,414.6464 144.5243,414.6644 L 144.8466,414.6644 C 144.8739,414.6052 144.9055,414.5176 144.9055,414.4208 C 144.9055,414.1996 144.8188,414.016 144.5793,414.002 L 144.5793,413.9924 C 144.8231,413.8596 144.943,413.666 144.943,413.376 C 144.943,412.9808 144.7223,412.7324 144.2481,412.7324 C 143.6962,412.7324 143.5813,412.9716 143.4708,413.3072 L 143.3653,413.694 C 143.3145,413.8728 143.2637,413.984 143.0477,413.984 C 142.8223,413.984 142.6794,413.9056 142.6794,413.6432 C 142.6794,413.312 142.9145,413.266 143.1536,413.266 L 143.1536,412.7972 C 142.6294,412.7972 142.3395,413.0128 142.3395,413.666 C 142.3395,414.1036 142.5098,414.4528 142.9462,414.4528" />
          <path
             id="path2792"
             style="fill:#ffffff;fill-opacity:1;fill-rule:nonzero;stroke:none"
             d="M 142.7348,415.7728 C 142.7348,415.488 142.9645,415.3872 143.6317,415.3872 C 144.193,415.3872 144.5473,415.4604 144.5473,415.8052 C 144.5473,416.1456 144.1973,416.224 143.6688,416.224 C 143.0754,416.224 142.7348,416.1552 142.7348,415.7728 z M 144.5751,416.224 L 144.5751,416.2148 C 144.736,416.1504 144.943,416.026 144.943,415.672 C 144.943,415.0924 144.4599,414.862 143.609,414.862 C 142.5098,414.862 142.3395,415.2488 142.3395,415.626 C 142.3395,415.8924 142.4723,416.0948 142.693,416.1872 L 142.693,416.1964 L 141.5942,416.1964 L 141.5942,416.6936 L 144.8786,416.6936 L 144.8786,416.224" />
          <path
             id="path2794"
             style="fill:#ffffff;fill-opacity:1;fill-rule:nonzero;stroke:none"
             d="M 142.4036,416.9648 L 142.4036,417.4984 L 144.3544,417.9312 L 144.3544,417.9396 L 142.4036,418.3312 L 142.4036,418.86 L 144.8786,418.2068 L 144.8786,417.6272" />
          <path
             id="path2796"
             style="fill:#ffffff;fill-opacity:1;fill-rule:nonzero;stroke:none"
             d="M 143.5723,420.2312 C 143.6727,420.1024 143.7333,419.8264 143.802,419.6788 C 143.8712,419.5368 144.0184,419.4764 144.202,419.4764 C 144.4094,419.4764 144.5751,419.578 144.5751,419.7852 C 144.5751,420.0836 144.3497,420.2312 143.9864,420.2312 L 143.5723,420.2312 z M 144.3634,420.7 C 144.4552,420.7 144.5379,420.7552 144.5379,420.8288 C 144.5379,420.8608 144.5336,420.8936 144.5243,420.9116 L 144.8466,420.9116 C 144.8739,420.8524 144.9055,420.7648 144.9055,420.668 C 144.9055,420.4468 144.8188,420.2632 144.5793,420.2492 L 144.5793,420.2396 C 144.8231,420.1068 144.943,419.9132 144.943,419.6232 C 144.943,419.228 144.7223,418.9796 144.2481,418.9796 C 143.6962,418.9796 143.5813,419.2188 143.4708,419.5548 L 143.3653,419.9412 C 143.3145,420.1204 143.2637,420.2312 143.0477,420.2312 C 142.8223,420.2312 142.6794,420.1532 142.6794,419.8904 C 142.6794,419.5592 142.9145,419.5132 143.1536,419.5132 L 143.1536,419.0444 C 142.6294,419.0444 142.3395,419.26 142.3395,419.9132 C 142.3395,420.3508 142.5098,420.7 142.9462,420.7" />
          <path
             id="path2798"
             style="fill:#ffffff;fill-opacity:1;fill-rule:nonzero;stroke:none"
             d="M 142.4036,421.206 L 142.4036,421.6756 L 142.693,421.6756 L 142.693,421.6888 C 142.4723,421.8132 142.3395,422.0484 142.3395,422.324 C 142.3395,422.7016 142.5098,422.9404 143.011,422.9404 L 144.8786,422.9404 L 144.8786,422.4436 L 143.1805,422.4436 C 142.859,422.4436 142.7348,422.3468 142.7348,422.0984 C 142.7348,421.896 142.8958,421.7032 143.2177,421.7032 L 144.8786,421.7032 L 144.8786,421.206" />
          <path
             id="path2800"
             style="fill:#ffffff;fill-opacity:1;fill-rule:nonzero;stroke:none"
             d="M 143.977,425.0884 C 144.5704,425.056 144.943,424.854 144.943,424.242 C 144.943,423.524 144.4094,423.322 143.6411,423.322 C 142.8731,423.322 142.3395,423.524 142.3395,424.242 C 142.3302,424.9828 142.9192,425.0928 143.227,425.0928 L 143.227,424.596 C 142.9973,424.596 142.6977,424.532 142.7071,424.242 C 142.7071,423.8836 143.0938,423.8188 143.6411,423.8188 C 144.1884,423.8188 144.5751,423.8836 144.5751,424.242 C 144.5793,424.518 144.3497,424.6196 143.977,424.6196" />
          <path
             id="path2802"
             style="fill:#ffffff;fill-opacity:1;fill-rule:nonzero;stroke:none"
             d="M 142.4036,425.4836 L 142.4036,425.9804 L 144.8786,425.9804 L 144.8786,425.4836 L 142.4036,425.4836 z M 141.5575,425.4836 L 141.5575,425.9804 L 142.0544,425.9804 L 142.0544,425.4836" />
          <path
             id="path2804"
             style="fill:#ffffff;fill-opacity:1;fill-rule:nonzero;stroke:none"
             d="M 142.4036,426.482 L 142.4036,426.9516 L 142.693,426.9516 L 142.693,426.9656 C 142.4723,427.0896 142.3395,427.324 142.3395,427.6 C 142.3395,427.9772 142.5098,428.2164 143.011,428.2164 L 144.8786,428.2164 L 144.8786,427.7196 L 143.1805,427.7196 C 142.859,427.7196 142.7348,427.6232 142.7348,427.3748 C 142.7348,427.1724 142.8958,426.9788 143.2177,426.9788 L 144.8786,426.9788 L 144.8786,426.482" />
          <path
             id="path2806"
             style="fill:#ffffff;fill-opacity:1;fill-rule:nonzero;stroke:none"
             d="M 144.4645,429.5412 C 144.4645,429.9272 143.977,429.9688 143.586,429.9688 C 143.1805,429.9688 142.7348,429.9188 142.7348,429.5732 C 142.7348,429.2148 143.1028,429.1548 143.563,429.1548 C 143.9864,429.1548 144.4645,429.1732 144.4645,429.5412 z M 145.0903,429.1912 C 145.2418,429.1912 145.3848,429.3296 145.3848,429.55 C 145.3848,429.8076 145.2052,429.9688 144.9196,429.9688 L 144.52,429.9688 L 144.52,429.96 C 144.736,429.868 144.8602,429.6376 144.8602,429.3984 C 144.8602,428.8188 144.2895,428.6576 143.6137,428.6576 C 143.0708,428.6576 142.3395,428.7404 142.3395,429.4444 C 142.3395,429.7344 142.5278,429.9412 142.7071,429.9876 L 142.7071,429.9968 L 142.4036,429.9968 L 142.4036,430.4656 L 144.759,430.4656 C 145.3614,430.4656 145.7251,430.2076 145.7251,429.5412 C 145.7251,428.8052 145.2926,428.7224 145.0903,428.7224" />
          <path
             id="path2808"
             style="fill:#ffffff;fill-opacity:1;fill-rule:nonzero;stroke:none"
             d="M 142.6661,431.9772 L 142.6661,431.6412 L 142.4356,431.6412 L 142.4356,431.9772 L 141.7598,431.9772 L 141.7598,432.2532 L 142.4356,432.2532 L 142.4356,432.686 L 142.6661,432.686 L 142.6661,432.2532 L 144.418,432.2532 C 144.6118,432.2532 144.6758,432.336 144.6758,432.5156 C 144.6758,432.5712 144.6665,432.6256 144.6481,432.686 L 144.8786,432.686 C 144.8969,432.654 144.9055,432.5844 144.9055,432.4928 C 144.9055,432.1204 144.8052,431.9772 144.4786,431.9772" />
          <path
             id="path2810"
             style="fill:#ffffff;fill-opacity:1;fill-rule:nonzero;stroke:none"
             d="M 141.5942,432.9852 L 141.5942,433.2608 L 142.7762,433.2608 L 142.7762,433.2704 C 142.5278,433.3388 142.3809,433.578 142.3809,433.868 C 142.3809,434.2404 142.5739,434.4936 143.034,434.4936 L 144.8786,434.4936 L 144.8786,434.218 L 143.1122,434.218 C 142.7762,434.218 142.6106,434.0796 142.6106,433.7992 C 142.6106,433.4772 142.859,433.2608 143.2364,433.2608 L 144.8786,433.2608 L 144.8786,432.9852" />
          <path
             id="path2812"
             style="fill:#ffffff;fill-opacity:1;fill-rule:nonzero;stroke:none"
             d="M 143.4384,436.2601 C 142.8317,436.2507 142.6106,436.0804 142.6106,435.7404 C 142.6106,435.4 142.8317,435.2296 143.4384,435.2204 L 143.4384,436.2601 z M 144.0692,436.5314 C 144.5887,436.4898 144.9336,436.2052 144.9336,435.7444 C 144.9336,435.2296 144.5751,434.9256 143.6552,434.9256 C 142.8083,434.9256 142.3809,435.2296 142.3809,435.768 C 142.3809,436.3107 142.7536,436.5544 143.5676,436.5544 L 143.6688,436.5544 L 143.6688,435.2204 L 143.784,435.2204 C 144.4876,435.2204 144.7036,435.4688 144.7036,435.7404 C 144.7036,436.0296 144.4966,436.2096 144.0692,436.2554" />
          <path
             id="path2814"
             style="fill:#ffffff;fill-opacity:1;fill-rule:nonzero;stroke:none"
             d="M 142.7716,438.09 L 142.7716,437.7447 L 142.4036,437.7447 L 142.4036,438.09 L 142.1739,438.09 C 141.704,438.09 141.5575,438.3154 141.5575,438.7205 C 141.5575,438.8259 141.5621,438.9181 141.5712,438.9915 L 141.9524,438.9915 L 141.9524,438.8536 C 141.9524,438.6696 142.0219,438.5869 142.1876,438.5869 L 142.4036,438.5869 L 142.4036,438.9915 L 142.7716,438.9915 L 142.7716,438.5869 L 144.8786,438.5869 L 144.8786,438.09" />
          <path
             id="path2816"
             style="fill:#ffffff;fill-opacity:1;fill-rule:nonzero;stroke:none"
             d="M 142.4036,439.2173 L 142.4036,439.7138 L 142.7903,439.7138 L 142.7903,439.7228 C 142.5141,439.8337 142.3395,440.0173 142.3395,440.2978 C 142.3395,440.3533 142.3485,440.3853 142.3575,440.4178 L 142.8637,440.4178 C 142.8544,440.3806 142.8364,440.2935 142.8364,440.2107 C 142.8364,439.9853 142.9368,439.7138 143.3973,439.7138 L 144.8786,439.7138 L 144.8786,439.2173" />
          <path
             id="path2818"
             style="fill:#ffffff;fill-opacity:1;fill-rule:nonzero;stroke:none"
             d="M 144.5751,441.4894 C 144.5751,441.8527 144.2716,441.9173 143.6411,441.9173 C 143.0938,441.9173 142.7071,441.8527 142.7071,441.4894 C 142.7071,441.1306 143.0938,441.0662 143.6411,441.0662 C 144.2716,441.0662 144.5751,441.1306 144.5751,441.4894 z M 142.3395,441.4894 C 142.3395,442.2115 142.8731,442.4142 143.6411,442.4142 C 144.4094,442.4142 144.943,442.179 144.943,441.4894 C 144.943,440.804 144.4094,440.5693 143.6411,440.5693 C 142.8731,440.5693 142.3395,440.7716 142.3395,441.4894" />
          <path
             id="path2820"
             style="fill:#ffffff;fill-opacity:1;fill-rule:nonzero;stroke:none"
             d="M 142.4036,442.7959 L 142.4036,443.265 L 142.693,443.265 L 142.693,443.2791 C 142.4723,443.4032 142.3395,443.6376 142.3395,443.9134 C 142.3395,444.2908 142.5098,444.5298 143.011,444.5298 L 144.8786,444.5298 L 144.8786,444.0329 L 143.1805,444.0329 C 142.859,444.0329 142.7348,443.9369 142.7348,443.6884 C 142.7348,443.4862 142.8958,443.2923 143.2177,443.2923 L 144.8786,443.2923 L 144.8786,442.7959" />
          <path
             id="path2822"
             style="fill:#ffffff;fill-opacity:1;fill-rule:nonzero;stroke:none"
             d="M 142.4036,444.7876 L 142.4036,445.1279 L 141.6993,445.1279 L 141.6993,445.6247 L 142.4036,445.6247 L 142.4036,446.0296 L 142.7716,446.0296 L 142.7716,445.6247 L 144.2481,445.6247 C 144.4415,445.6247 144.5106,445.68 144.5106,445.8501 C 144.5106,445.9238 144.5059,445.9837 144.4966,446.0296 L 144.8645,446.0296 C 144.8926,445.9238 144.9055,445.7859 144.9055,445.629 C 144.9055,445.2937 144.8141,445.1279 144.3083,445.1279 L 142.7716,445.1279 L 142.7716,444.7876" />
          <path
             id="path2824"
             style="fill:#ffffff;fill-opacity:1;fill-rule:nonzero;stroke:none"
             d="M 142.4036,446.3099 L 142.4036,446.8068 L 144.8786,446.8068 L 144.8786,446.3099 L 142.4036,446.3099 z M 141.5575,446.3099 L 141.5575,446.8068 L 142.0544,446.8068 L 142.0544,446.3099" />
          <path
             id="path2826"
             style="fill:#ffffff;fill-opacity:1;fill-rule:nonzero;stroke:none"
             d="M 143.3653,448.5323 L 143.2317,448.5323 C 142.9192,448.5323 142.6794,448.4306 142.6794,448.1503 C 142.6794,447.8329 142.9926,447.7362 143.3145,447.7362 L 143.3653,447.7362 L 143.3653,448.5323 z M 143.7052,447.7362 L 143.8481,447.7362 C 144.179,447.7362 144.6028,447.7777 144.6028,448.1503 C 144.6028,448.5042 144.1973,448.5455 144.0504,448.5455 L 144.0504,449.0152 C 144.5981,449.0152 144.943,448.6837 144.943,448.1456 C 144.943,447.741 144.8231,447.2394 143.6774,447.2394 C 143.0294,447.2394 142.3395,447.3777 142.3395,448.155 C 142.3395,448.8448 142.7536,449.0287 143.443,449.0287 L 143.7052,449.0287" />
          <path
             id="path2828"
             style="fill:#ffffff;fill-opacity:1;fill-rule:nonzero;stroke:none"
             d="M 142.4036,449.438 L 142.4036,449.9347 L 142.7903,449.9347 L 142.7903,449.9441 C 142.5141,450.0546 142.3395,450.2386 142.3395,450.5189 C 142.3395,450.5745 142.3485,450.6066 142.3575,450.6384 L 142.8637,450.6384 C 142.8544,450.6019 142.8364,450.5142 142.8364,450.4315 C 142.8364,450.2066 142.9368,449.9347 143.3973,449.9347 L 144.8786,449.9347 L 144.8786,449.438" />
          <path
             id="path2830"
             style="fill:#ffffff;fill-opacity:1;fill-rule:nonzero;stroke:none"
             d="M 143.1262,451.9542 L 143.0614,451.9542 C 142.8637,451.9542 142.6794,451.8853 142.6794,451.6275 C 142.6794,451.43 142.7716,451.2736 143.002,451.2736 C 143.1946,451.2736 143.2731,451.3612 143.3653,451.6228 L 143.4754,451.9406 C 143.5997,452.3085 143.7973,452.4786 144.1884,452.4786 C 144.7176,452.4786 144.943,452.0925 144.943,451.591 C 144.943,450.9652 144.6532,450.7767 144.1743,450.7767 L 144.0825,450.7767 L 144.0825,451.2183 L 144.1606,451.2183 C 144.4462,451.2183 144.6028,451.3199 144.6028,451.605 C 144.6028,451.8759 144.4645,452.0095 144.2391,452.0095 C 144.0552,452.0095 143.9352,451.9128 143.8758,451.738 L 143.7333,451.3331 C 143.6044,450.9609 143.4157,450.8043 143.02,450.8043 C 142.5555,450.8043 142.3395,451.14 142.3395,451.6507 C 142.3395,452.2808 142.7071,452.4238 143.0153,452.4238 L 143.1262,452.4238" />
        </g>
      </g>
    </g>
  </g>
</svg>
