<?xml version="1.0" encoding="UTF-8" standalone="no"?>
<!-- Created with Inkscape (http://www.inkscape.org/) -->
<svg
   xmlns:dc="http://purl.org/dc/elements/1.1/"
   xmlns:cc="http://creativecommons.org/ns#"
   xmlns:rdf="http://www.w3.org/1999/02/22-rdf-syntax-ns#"
   xmlns:svg="http://www.w3.org/2000/svg"
   xmlns="http://www.w3.org/2000/svg"
   xmlns:sodipodi="http://sodipodi.sourceforge.net/DTD/sodipodi-0.dtd"
   xmlns:inkscape="http://www.inkscape.org/namespaces/inkscape"
   id="svg2"
   sodipodi:version="0.32"
   inkscape:version="0.46"
   width="335.73822"
   height="225.94496"
   xml:space="preserve"
   sodipodi:docname="logo-lsv.svg"
   version="1.0"
   inkscape:output_extension="org.inkscape.output.svg.inkscape"><metadata
     id="metadata7"><rdf:RDF><cc:Work
         rdf:about=""><dc:format>image/svg+xml</dc:format><dc:type
           rdf:resource="http://purl.org/dc/dcmitype/StillImage" /></cc:Work></rdf:RDF></metadata><defs
     id="defs5"><inkscape:perspective
       sodipodi:type="inkscape:persp3d"
       inkscape:vp_x="0 : 526.18109 : 1"
       inkscape:vp_y="0 : 1000 : 0"
       inkscape:vp_z="744.09448 : 526.18109 : 1"
       inkscape:persp3d-origin="372.04724 : 350.78739 : 1"
       id="perspective9" /><clipPath
       clipPathUnits="userSpaceOnUse"
       id="clipPath19"><path
         d="M 0,0 L 595,0 L 595,842 L 0,842 L 0,0 z"
         id="path21" /></clipPath><clipPath
       clipPathUnits="userSpaceOnUse"
       id="clipPath29"><path
         d="M 0,6.419919 L 594.929,6.419919 L 594.929,841.99992 L 0,841.99992 L 0,6.419919 z"
         id="path31" /></clipPath><clipPath
       clipPathUnits="userSpaceOnUse"
       id="clipPath121"><path
         d="M 0,6.31992 L 594.929,6.31992 L 594.929,841.99992 L 0,841.99992 L 0,6.31992 z"
         id="path123" /></clipPath><clipPath
       clipPathUnits="userSpaceOnUse"
       id="clipPath285"><path
         d="M 39.0953,725.345 L 147.382,725.345 L 147.382,785.86801 L 39.0953,785.86801 L 39.0953,725.345 z"
         id="path287" /></clipPath><clipPath
       clipPathUnits="userSpaceOnUse"
       id="clipPath345"><path
         d="M 68.3617,74.6918 L 118.64599,74.6918 L 118.64599,134.82499 L 68.3617,134.82499 L 68.3617,74.6918 z"
         id="path347" /></clipPath><clipPath
       clipPathUnits="userSpaceOnUse"
       id="clipPath365"><path
         d="M 42.4648,20.6484 L 144.553,20.6484 L 144.553,82.96091 L 42.4648,82.96091 L 42.4648,20.6484 z"
         id="path367" /></clipPath><clipPath
       clipPathUnits="userSpaceOnUse"
       id="clipPath607"><path
         d="M 0,0 L 595,0 L 595,842 L 0,842 L 0,0 z"
         id="path609" /></clipPath><clipPath
       clipPathUnits="userSpaceOnUse"
       id="clipPath3006"><rect
         style="fill:none"
         id="rect3008"
         width="270.44669"
         height="180.75597"
         x="107.08043"
         y="-329.0206"
         transform="scale(1,-1)" /></clipPath></defs><sodipodi:namedview
     inkscape:window-height="977"
     inkscape:window-width="1400"
     inkscape:pageshadow="2"
     inkscape:pageopacity="0.0"
     guidetolerance="10.0"
     gridtolerance="10.0"
     objecttolerance="10.0"
     borderopacity="1.0"
     bordercolor="#666666"
     pagecolor="#ffffff"
     id="base"
     showgrid="false"
     inkscape:zoom="3.3459476"
     inkscape:cx="167.86911"
     inkscape:cy="112.97248"
     inkscape:window-x="0"
     inkscape:window-y="25"
     inkscape:current-layer="g11" /><g
     id="g11"
     inkscape:groupmode="layer"
     inkscape:label="rr-lsv-2008-18"
     transform="matrix(1.25,0,0,-1.25,-133.85054,411.27575)"><g
       id="g13" /><g
       id="g15"><g
         id="g17"
         clip-path="url(#clipPath19)"><path
           d="M 0,6.31992 L 0,6.31992 L 0,6.31992 L 0,6.31992 z"
           style="fill:#000000;fill-opacity:1;fill-rule:nonzero;stroke:none"
           id="path23" /></g></g><g
       id="g25"
       clip-path="url(#clipPath3006)"><g
         id="g27"
         clip-path="url(#clipPath29)"><path
           d="M 0,0 L 159.788,0 L 159.788,842 L 0,842 L 0,0 z"
           style="fill:#0059e0;fill-opacity:1;fill-rule:nonzero;stroke:none"
           id="path33" /><path
           d="M 124.872,284.065 C 130.929,284.065 136.082,284.553 140.815,285.04 C 140.676,284.065 140.467,283.021 140.467,282.046 C 140.467,281.071 140.676,280.028 140.815,279.053 L 114.429,279.053 L 114.429,326.465 C 116.169,326.326 117.91,326.117 119.651,326.117 C 121.391,326.117 123.131,326.326 124.872,326.465 L 124.872,284.065"
           style="fill:#ffffff;fill-opacity:1;fill-rule:nonzero;stroke:none"
           id="path35" /><path
           d="M 163.377,282.831 C 163.377,281.146 163.877,280.6 165.698,280.691 L 165.698,279.645 C 164.605,279.144 162.877,278.416 161.602,278.416 C 159.463,278.416 157.824,279.736 157.095,281.738 C 155.912,279.645 153.637,278.416 151.27,278.416 C 147.538,278.416 144.762,280.464 144.762,284.424 C 144.762,288.748 147.402,290.022 153.091,291.388 C 154.229,291.661 155.412,291.934 156.413,292.571 C 156.96,293.072 157.096,293.664 157.096,294.346 C 157.096,296.53 154.866,298.351 152.773,298.351 C 149.86,298.351 147.493,296.348 147.22,295.529 L 146.902,295.529 L 146.31,298.259 C 148.449,300.262 151.863,301.309 154.73,301.309 C 158.553,301.309 163.379,299.761 163.379,295.21 L 163.379,282.83 L 163.377,282.831 z M 157.095,290.75 C 155.957,290.249 153.91,289.84 152.59,288.793 C 151.407,287.838 151.133,286.472 151.133,285.016 C 151.133,283.332 151.679,281.375 153.637,281.375 C 156.412,281.375 157.004,284.06 157.095,286.337 L 157.095,290.752"
           style="fill:#0059e0;fill-opacity:1;fill-rule:nonzero;stroke:none"
           id="path37" /><path
           d="M 159.714,278.801 C 158.506,279.33 157.59,280.377 157.095,281.738 C 155.912,279.645 153.637,278.416 151.27,278.416 C 147.538,278.416 144.762,280.464 144.762,284.424 C 144.762,288.748 147.402,290.022 153.091,291.388 C 154.229,291.661 155.412,291.934 156.413,292.571 C 156.961,293.072 157.096,293.664 157.096,294.346 C 157.096,296.53 154.867,298.351 152.773,298.351 C 149.86,298.351 147.493,296.348 147.22,295.529 L 146.902,295.529 L 146.31,298.259 C 148.449,300.262 151.863,301.309 154.73,301.309 C 156.356,301.309 158.163,301.029 159.703,300.357 M 157.095,290.75 C 155.957,290.249 153.91,289.84 152.59,288.793 C 151.407,287.838 151.133,286.472 151.133,285.016 C 151.133,283.332 151.679,281.375 153.637,281.375 C 156.412,281.375 157.004,284.06 157.095,286.337 L 157.095,290.752"
           style="fill:#ffffff;fill-opacity:1;fill-rule:nonzero;stroke:none"
           id="path39" /><path
           d="M 168.886,313.417 C 169.933,313.326 170.98,313.189 172.027,313.189 C 173.073,313.189 174.12,313.326 175.167,313.417 L 175.167,297.713 C 176.35,299.943 178.717,301.309 181.266,301.309 C 187.229,301.309 190.234,295.984 190.234,290.612 C 190.234,287.7 189.596,284.24 187.639,281.964 C 185.682,279.644 182.996,278.414 179.948,278.414 C 177.535,278.414 175.031,279.507 173.712,281.599 C 172.346,280.825 171.071,279.87 169.798,279.051 L 168.888,279.051 L 168.888,313.414 L 168.886,313.417 z M 179.173,280.464 C 181.995,280.464 183.496,284.195 183.496,289.839 C 183.496,292.661 183.451,298.352 179.446,298.352 C 175.441,298.352 175.168,292.57 175.168,289.704 C 175.168,286.927 175.122,280.464 179.174,280.464"
           style="fill:#0059e0;fill-opacity:1;fill-rule:nonzero;stroke:none"
           id="path41" /><path
           d="M 193.235,289.384 C 193.235,296.53 197.377,301.31 204.341,301.31 C 211.213,301.31 215.538,297.123 215.538,290.386 C 215.538,283.468 211.441,278.416 204.295,278.416 C 197.559,278.416 193.235,282.648 193.235,289.386 L 193.235,289.384 z M 199.972,289.52 C 199.972,286.608 200.336,280.464 204.296,280.464 C 207.801,280.555 208.802,286.107 208.802,291.114 C 208.802,295.529 207.664,299.261 204.615,299.261 C 200.928,299.261 199.972,294.892 199.972,289.52"
           style="fill:#0059e0;fill-opacity:1;fill-rule:nonzero;stroke:none"
           id="path43" /><path
           d="M 220.088,300.9 C 221.135,300.809 222.182,300.672 223.229,300.672 C 224.275,300.672 225.322,300.808 226.369,300.9 L 226.369,295.256 C 227.324,298.579 229.328,301.31 233.788,301.31 C 233.56,299.171 233.424,297.077 233.56,295.12 L 233.15,294.756 C 232.559,295.166 231.557,295.348 230.83,295.348 C 228.827,295.348 227.188,294.301 226.641,292.344 C 226.232,291.024 226.368,288.521 226.368,287.065 L 226.368,278.826 C 225.321,278.917 224.274,279.054 223.227,279.054 C 222.18,279.054 221.134,278.918 220.087,278.826 L 220.087,300.901"
           style="fill:#0059e0;fill-opacity:1;fill-rule:nonzero;stroke:none"
           id="path45" /><path
           d="M 254.45,282.831 C 254.45,281.146 254.951,280.6 256.77,280.691 L 256.77,279.645 C 255.679,279.144 253.949,278.416 252.674,278.416 C 250.535,278.416 248.896,279.736 248.168,281.738 C 246.985,279.645 244.709,278.416 242.342,278.416 C 238.61,278.416 235.833,280.464 235.833,284.424 C 235.833,288.748 238.473,290.022 244.162,291.388 C 245.3,291.661 246.484,291.934 247.485,292.571 C 248.03,293.072 248.168,293.664 248.168,294.346 C 248.168,296.53 245.937,298.351 243.843,298.351 C 240.929,298.351 238.562,296.348 238.29,295.529 L 237.972,295.529 L 237.38,298.259 C 239.52,300.262 242.933,301.309 245.801,301.309 C 249.623,301.309 254.449,299.761 254.449,295.21 L 254.449,282.83 L 254.45,282.831 z M 248.17,290.75 C 247.032,290.249 244.983,289.84 243.663,288.793 C 242.48,287.838 242.206,286.472 242.206,285.016 C 242.206,283.332 242.752,281.375 244.71,281.375 C 247.486,281.375 248.079,284.06 248.17,286.337 L 248.17,290.752"
           style="fill:#0059e0;fill-opacity:1;fill-rule:nonzero;stroke:none"
           id="path47" /><path
           d="M 267.606,285.015 C 267.606,281.874 267.788,280.191 271.839,281.238 L 271.839,279.462 C 270.155,278.825 268.516,278.415 267.105,278.415 C 262.372,278.415 261.325,281.555 261.325,285.789 L 261.325,297.986 L 258.229,297.986 C 258.366,299.033 258.366,299.852 258.229,300.899 L 261.325,300.899 L 261.325,306.043 C 263.374,306.861 265.421,307.817 267.606,308.864 L 267.606,300.899 L 271.476,300.899 C 271.339,299.852 271.339,299.033 271.476,297.986 L 267.606,297.986 L 267.606,285.014"
           style="fill:#0059e0;fill-opacity:1;fill-rule:nonzero;stroke:none"
           id="path49" /><path
           d="M 274.152,289.384 C 274.152,296.53 278.293,301.31 285.257,301.31 C 292.13,301.31 296.454,297.123 296.454,290.386 C 296.454,283.468 292.357,278.416 285.211,278.416 C 278.475,278.416 274.152,282.648 274.152,289.386 L 274.152,289.384 z M 280.888,289.52 C 280.888,286.608 281.252,280.464 285.211,280.464 C 288.716,280.555 289.718,286.107 289.718,291.114 C 289.718,295.529 288.58,299.261 285.53,299.261 C 281.843,299.261 280.888,294.892 280.888,289.52"
           style="fill:#0059e0;fill-opacity:1;fill-rule:nonzero;stroke:none"
           id="path51" /><path
           d="M 301.14,300.9 C 302.187,300.809 303.234,300.672 304.281,300.672 C 305.328,300.672 306.375,300.808 307.421,300.9 L 307.421,278.825 C 306.375,278.916 305.328,279.053 304.281,279.053 C 303.234,279.053 302.187,278.917 301.14,278.825 L 301.14,300.9 z M 304.236,312.825 C 306.193,312.825 307.877,311.186 307.877,309.229 C 307.877,307.272 306.194,305.634 304.236,305.634 C 302.278,305.634 300.685,307.317 300.685,309.229 C 300.685,311.14 302.278,312.825 304.236,312.825"
           style="fill:#0059e0;fill-opacity:1;fill-rule:nonzero;stroke:none"
           id="path53" /><path
           d="M 313.651,300.9 C 314.698,300.809 315.743,300.672 316.791,300.672 C 317.838,300.672 318.885,300.808 319.932,300.9 L 319.932,295.256 C 320.888,298.579 322.891,301.31 327.351,301.31 C 327.123,299.171 326.987,297.077 327.123,295.12 L 326.713,294.756 C 326.122,295.166 325.12,295.348 324.393,295.348 C 322.39,295.348 320.751,294.301 320.205,292.344 C 319.795,291.024 319.931,288.521 319.931,287.065 L 319.931,278.826 C 318.884,278.917 317.837,279.054 316.79,279.054 C 315.743,279.054 314.696,278.918 313.65,278.826 L 313.65,300.901"
           style="fill:#0059e0;fill-opacity:1;fill-rule:nonzero;stroke:none"
           id="path55" /><path
           d="M 336.634,289.839 C 336.498,285.151 338.136,281.373 342.96,281.373 C 344.826,281.373 346.875,282.238 348.286,283.421 L 348.832,283.012 L 347.831,280.464 C 346.01,279.189 343.552,278.415 341.322,278.415 C 333.766,278.415 329.898,282.967 329.898,290.385 C 329.898,296.757 333.72,301.309 340.321,301.309 C 347.467,301.309 350.152,296.348 349.652,289.839 L 336.634,289.839 z M 343.37,292.024 C 343.37,294.436 343.097,299.261 340.366,299.261 C 337.043,299.261 336.724,294.437 336.634,292.024 L 343.37,292.024"
           style="fill:#0059e0;fill-opacity:1;fill-rule:nonzero;stroke:none"
           id="path57" /><path
           d="M 136.112,253.22 C 134.719,256.909 132.073,259.276 128.105,259.276 C 122.604,259.276 120.447,256.422 120.447,252.453 C 120.447,243.054 141.612,244.795 141.612,228.852 C 141.612,219.94 133.954,213.534 123.162,213.534 C 119.333,213.534 115.225,214.44 111.953,216.528 C 112.788,219.452 113.554,222.377 113.971,225.37 L 115.294,225.37 C 116.338,220.566 120.098,217.712 124.901,217.712 C 129.218,217.712 133.047,220.149 133.047,224.953 C 133.047,236.093 112.3,232.054 112.3,248.833 C 112.3,256.84 117.8,263.454 128.383,263.454 C 133.396,263.454 137.852,261.574 139.382,260.112 C 138.548,257.884 137.852,255.586 137.155,253.22 L 136.111,253.22"
           style="fill:#ffffff;fill-opacity:1;fill-rule:nonzero;stroke:none"
           id="path59" /><path
           d="M 177.473,225.576 C 177.336,220.888 178.975,217.11 183.799,217.11 C 185.665,217.11 187.714,217.975 189.125,219.158 L 189.67,218.748 L 188.669,216.199 C 186.848,214.924 184.39,214.15 182.161,214.15 C 174.604,214.15 170.736,218.703 170.736,226.121 C 170.736,232.493 174.559,237.045 181.159,237.045 C 188.305,237.045 190.989,232.083 190.489,225.575 L 177.472,225.575 L 177.473,225.576 z M 184.209,227.761 C 184.209,230.173 183.936,234.998 181.205,234.998 C 177.883,234.998 177.564,230.173 177.473,227.761 L 184.209,227.761 z M 182.798,246.377 C 183.754,247.47 184.346,248.015 185.802,248.015 C 186.94,248.015 187.805,247.15 187.805,246.012 C 187.805,244.557 186.485,243.965 185.438,243.282 L 179.476,239.595 L 176.927,239.595 L 182.798,246.378"
           style="fill:#0059e0;fill-opacity:1;fill-rule:nonzero;stroke:none"
           id="path61" /><path
           d="M 212.021,230.264 L 210.928,230.264 C 210.609,232.767 208.971,234.998 206.286,234.998 C 202.007,234.998 200.687,229.446 200.687,226.077 C 200.687,220.614 202.644,217.11 207.605,217.11 C 209.289,217.11 211.246,217.929 212.339,219.249 L 213.112,218.612 L 212.02,215.881 C 210.745,214.743 207.514,214.152 205.875,214.152 C 198.82,214.152 193.951,218.066 193.951,225.212 C 193.951,232.449 198.775,237.046 205.921,237.046 C 208.515,237.046 211.611,236.409 213.75,234.998 L 212.02,230.264"
           style="fill:#0059e0;fill-opacity:1;fill-rule:nonzero;stroke:none"
           id="path63" /><path
           d="M 217.849,236.637 C 218.896,236.546 219.943,236.409 220.99,236.409 C 222.037,236.409 223.084,236.546 224.13,236.637 L 224.13,214.561 C 223.084,214.652 222.038,214.789 220.99,214.789 C 219.943,214.789 218.896,214.652 217.849,214.561 L 217.849,236.637 z M 220.944,248.561 C 222.902,248.561 224.585,246.923 224.585,244.966 C 224.585,243.009 222.902,241.37 220.944,241.37 C 218.987,241.37 217.394,243.055 217.394,244.966 C 217.394,246.877 218.987,248.561 220.944,248.561"
           style="fill:#0059e0;fill-opacity:1;fill-rule:nonzero;stroke:none"
           id="path65" /><path
           d="M 227.72,233.723 C 227.857,234.679 227.857,235.544 227.72,236.636 L 231.089,236.636 C 231.452,239.093 232.045,241.779 233.455,244.191 C 235.685,248.196 238.235,249.698 242.877,248.924 C 242.558,247.013 242.558,244.828 242.695,243.144 L 242.103,242.917 C 240.965,243.508 239.419,244.191 238.098,244.191 C 237.324,244.191 236.186,244.191 235.595,243.599 C 235.322,243.325 235.049,243.098 235.049,242.643 C 235.049,241.414 236.46,237.955 237.052,236.636 L 241.649,236.636 C 241.512,235.543 241.512,234.815 241.649,233.723 L 237.371,233.723 L 237.371,214.561 C 236.324,214.652 235.277,214.789 234.23,214.789 C 233.183,214.789 232.136,214.652 231.089,214.561 L 231.089,233.723 L 227.721,233.723"
           style="fill:#0059e0;fill-opacity:1;fill-rule:nonzero;stroke:none"
           id="path67" /><path
           d="M 244.832,236.637 C 245.879,236.546 246.926,236.409 247.973,236.409 C 249.02,236.409 250.066,236.546 251.113,236.637 L 251.113,214.561 C 250.065,214.652 249.02,214.789 247.973,214.789 C 246.926,214.789 245.879,214.652 244.832,214.561 L 244.832,236.637 z M 247.928,248.561 C 249.884,248.561 251.569,246.923 251.569,244.966 C 251.569,243.009 249.885,241.37 247.928,241.37 C 245.971,241.37 244.377,243.055 244.377,244.966 C 244.377,246.877 245.97,248.561 247.928,248.561"
           style="fill:#0059e0;fill-opacity:1;fill-rule:nonzero;stroke:none"
           id="path69" /><path
           d="M 274.411,230.264 L 273.318,230.264 C 273,232.767 271.362,234.998 268.676,234.998 C 264.398,234.998 263.078,229.446 263.078,226.077 C 263.078,220.614 265.034,217.11 269.996,217.11 C 271.68,217.11 273.638,217.929 274.729,219.249 L 275.503,218.612 L 274.411,215.881 C 273.136,214.743 269.904,214.152 268.266,214.152 C 261.211,214.152 256.341,218.066 256.341,225.212 C 256.341,232.449 261.166,237.046 268.312,237.046 C 270.907,237.046 274.002,236.409 276.141,234.998 L 274.411,230.264"
           style="fill:#0059e0;fill-opacity:1;fill-rule:nonzero;stroke:none"
           id="path71" /><path
           d="M 296.761,218.567 C 296.761,216.882 297.262,216.337 299.082,216.427 L 299.082,215.38 C 297.991,214.879 296.261,214.152 294.986,214.152 C 292.846,214.152 291.207,215.471 290.479,217.474 C 289.296,215.38 287.02,214.152 284.653,214.152 C 280.921,214.152 278.144,216.2 278.144,220.16 C 278.144,224.483 280.785,225.758 286.474,227.124 C 287.612,227.397 288.796,227.67 289.796,228.308 C 290.343,228.809 290.479,229.4 290.479,230.082 C 290.479,232.267 288.249,234.088 286.155,234.088 C 283.241,234.088 280.876,232.085 280.603,231.266 L 280.284,231.266 L 279.692,233.997 C 281.832,236 285.245,237.046 288.112,237.046 C 291.935,237.046 296.76,235.499 296.76,230.947 L 296.76,218.568 L 296.761,218.567 z M 290.48,226.487 C 289.343,225.986 287.294,225.576 285.974,224.529 C 284.79,223.573 284.517,222.209 284.517,220.752 C 284.517,219.068 285.063,217.111 287.021,217.111 C 289.798,217.111 290.389,219.796 290.48,222.072 L 290.48,226.488"
           style="fill:#0059e0;fill-opacity:1;fill-rule:nonzero;stroke:none"
           id="path73" /><path
           d="M 309.917,220.752 C 309.917,217.611 310.099,215.927 314.15,216.974 L 314.15,215.198 C 312.466,214.561 310.827,214.152 309.416,214.152 C 304.683,214.152 303.636,217.292 303.636,221.525 L 303.636,233.724 L 300.54,233.724 C 300.677,234.771 300.677,235.59 300.54,236.637 L 303.636,236.637 L 303.636,241.78 C 305.684,242.599 307.732,243.555 309.917,244.602 L 309.917,236.637 L 313.786,236.637 C 313.649,235.59 313.649,234.771 313.786,233.724 L 309.917,233.724 L 309.917,220.752"
           style="fill:#0059e0;fill-opacity:1;fill-rule:nonzero;stroke:none"
           id="path75" /><path
           d="M 318.146,236.637 C 319.193,236.546 320.24,236.409 321.287,236.409 C 322.334,236.409 323.38,236.546 324.427,236.637 L 324.427,214.561 C 323.38,214.652 322.334,214.789 321.287,214.789 C 320.24,214.789 319.193,214.652 318.146,214.561 L 318.146,236.637 z M 321.242,248.561 C 323.198,248.561 324.884,246.923 324.884,244.966 C 324.884,243.009 323.2,241.37 321.242,241.37 C 319.284,241.37 317.691,243.055 317.691,244.966 C 317.691,246.877 319.285,248.561 321.242,248.561"
           style="fill:#0059e0;fill-opacity:1;fill-rule:nonzero;stroke:none"
           id="path77" /><path
           d="M 329.11,225.121 C 329.11,232.267 333.252,237.046 340.216,237.046 C 347.089,237.046 351.412,232.859 351.412,226.123 C 351.412,219.205 347.316,214.152 340.17,214.152 C 333.433,214.152 329.109,218.386 329.109,225.122 L 329.11,225.121 z M 335.846,225.257 C 335.846,222.345 336.21,216.2 340.17,216.2 C 343.674,216.291 344.675,221.843 344.675,226.851 C 344.675,231.266 343.537,234.998 340.488,234.998 C 336.801,234.998 335.845,230.629 335.845,225.258"
           style="fill:#0059e0;fill-opacity:1;fill-rule:nonzero;stroke:none"
           id="path79" /><path
           d="M 355.416,236.637 C 356.417,236.546 357.418,236.409 358.465,236.409 C 359.466,236.409 360.468,236.546 361.47,236.637 L 361.47,233.268 C 363.291,235.408 365.657,237.046 368.479,237.046 C 374.214,237.046 375.671,233.359 375.671,227.898 L 375.671,214.561 C 374.625,214.652 373.578,214.789 372.531,214.789 C 371.484,214.789 370.437,214.652 369.39,214.561 L 369.39,225.895 C 369.39,230.127 368.844,233.223 365.657,233.223 C 361.698,233.223 361.698,227.898 361.698,225.03 L 361.698,214.561 C 360.651,214.652 359.604,214.789 358.557,214.789 C 357.511,214.789 356.464,214.652 355.417,214.561 L 355.417,236.637"
           style="fill:#0059e0;fill-opacity:1;fill-rule:nonzero;stroke:none"
           id="path81" /><path
           d="M 147.307,237.139 C 148.307,237.048 149.309,236.912 150.356,236.912 C 151.357,236.912 152.359,237.048 153.361,237.139 L 153.361,233.133 C 154.408,235.819 156.546,237.548 159.596,237.548 C 166.15,237.548 168.562,232.269 168.562,226.489 C 168.562,218.342 164.148,214.654 159.459,214.654 C 156.409,214.654 154.68,216.202 153.588,217.932 L 153.588,203.504 C 152.541,203.595 151.494,203.732 150.447,203.732 C 149.4,203.732 148.354,203.595 147.307,203.504 L 147.307,237.139 z M 161.826,225.987 C 161.826,231.13 160.87,234.59 157.866,234.59 C 153.907,234.59 153.451,228.627 153.451,225.76 C 153.451,222.983 153.77,217.613 157.592,217.613 C 160.506,217.932 161.826,221.209 161.826,225.988"
           style="fill:#0059e0;fill-opacity:1;fill-rule:nonzero;stroke:none"
           id="path83" /><path
           d="M 159.657,214.667 C 156.607,214.667 154.81,216.215 153.718,217.945 L 153.718,203.517 C 152.671,203.608 151.624,203.745 150.577,203.745 C 149.53,203.745 148.483,203.609 147.436,203.517 L 147.436,237.153 C 148.438,237.062 149.438,236.925 150.486,236.925 C 151.487,236.925 152.489,237.062 153.491,237.153 L 153.491,233.147 C 154.538,235.833 156.608,237.562 159.658,237.562 M 162.037,226.108 C 162.037,231.251 161.081,234.711 158.077,234.711 C 154.118,234.711 153.662,228.748 153.662,225.881 C 153.662,223.104 153.981,217.734 157.804,217.734 C 160.717,218.053 162.037,221.33 162.037,226.109"
           style="fill:#ffffff;fill-opacity:1;fill-rule:nonzero;stroke:none"
           id="path85" /><path
           d="M 131.764,150.525 C 130.72,150.525 129.746,150.316 128.771,150.177 C 122.922,166.399 116.656,182.133 110.112,197.938 C 112.131,197.798 114.22,197.589 116.238,197.589 C 118.257,197.589 120.347,197.798 122.366,197.938 C 125.777,186.38 130.511,175.032 134.689,163.474 C 139.423,174.892 143.948,186.38 147.709,197.938 C 148.752,197.798 149.867,197.729 150.911,197.729 C 151.955,197.729 153.069,197.798 154.114,197.938 C 147.361,182.133 140.538,166.537 134.689,150.177 C 133.714,150.316 132.74,150.525 131.764,150.525"
           style="fill:#ffffff;fill-opacity:1;fill-rule:nonzero;stroke:none"
           id="path87" /><path
           d="M 163.623,161.312 C 163.487,156.624 165.125,152.846 169.951,152.846 C 171.817,152.846 173.865,153.712 175.276,154.895 L 175.822,154.486 L 174.821,151.937 C 173,150.663 170.542,149.889 168.312,149.889 C 160.756,149.889 156.888,154.441 156.888,161.86 C 156.888,168.232 160.711,172.783 167.31,172.783 C 174.456,172.783 177.141,167.822 176.641,161.314 L 163.623,161.314 L 163.623,161.312 z M 170.36,163.497 C 170.36,165.91 170.087,170.734 167.356,170.734 C 164.034,170.734 163.714,165.91 163.623,163.497 L 170.361,163.497 L 170.36,163.497 z M 168.949,182.113 C 169.905,183.206 170.496,183.752 171.954,183.752 C 173.091,183.752 173.955,182.887 173.955,181.749 C 173.955,180.293 172.636,179.702 171.589,179.018 L 165.626,175.331 L 163.078,175.331 L 168.949,182.113"
           style="fill:#ffffff;fill-opacity:1;fill-rule:nonzero;stroke:none"
           id="path89" /><path
           d="M 181.104,172.372 C 182.15,172.281 183.197,172.145 184.244,172.145 C 185.291,172.145 186.338,172.281 187.385,172.372 L 187.385,166.729 C 188.341,170.052 190.343,172.782 194.804,172.782 C 194.576,170.643 194.44,168.55 194.576,166.592 L 194.166,166.228 C 193.574,166.637 192.572,166.82 191.844,166.82 C 189.841,166.82 188.203,165.773 187.657,163.816 C 187.247,162.496 187.384,159.993 187.384,158.537 L 187.384,150.299 C 186.337,150.39 185.29,150.526 184.243,150.526 C 183.196,150.526 182.149,150.389 181.102,150.299 L 181.102,172.373"
           style="fill:#0059e0;fill-opacity:1;fill-rule:nonzero;stroke:none"
           id="path91" /><path
           d="M 198.943,172.372 C 199.99,172.281 201.037,172.145 202.084,172.145 C 203.131,172.145 204.178,172.281 205.225,172.372 L 205.225,150.298 C 204.178,150.389 203.131,150.525 202.084,150.525 C 201.037,150.525 199.99,150.388 198.943,150.298 L 198.943,172.372 z M 202.039,184.298 C 203.996,184.298 205.68,182.659 205.68,180.702 C 205.68,178.746 203.996,177.107 202.039,177.107 C 200.081,177.107 198.488,178.791 198.488,180.702 C 198.488,182.614 200.081,184.298 202.039,184.298"
           style="fill:#0059e0;fill-opacity:1;fill-rule:nonzero;stroke:none"
           id="path93" /><path
           d="M 208.814,169.46 C 208.951,170.416 208.951,171.28 208.814,172.372 L 212.182,172.372 C 212.547,174.83 213.138,177.516 214.548,179.929 C 216.778,183.934 219.328,185.436 223.97,184.662 C 223.652,182.75 223.652,180.565 223.788,178.882 L 223.196,178.654 C 222.059,179.246 220.511,179.929 219.191,179.929 C 218.417,179.929 217.279,179.929 216.687,179.336 C 216.414,179.064 216.141,178.836 216.141,178.38 C 216.141,177.152 217.552,173.692 218.144,172.372 L 222.741,172.372 C 222.604,171.279 222.604,170.552 222.741,169.46 L 218.462,169.46 L 218.462,150.298 C 217.415,150.389 216.368,150.525 215.321,150.525 C 214.275,150.525 213.228,150.388 212.181,150.298 L 212.181,169.46 L 208.813,169.46"
           style="fill:#0059e0;fill-opacity:1;fill-rule:nonzero;stroke:none"
           id="path95" /><path
           d="M 225.927,172.372 C 226.974,172.281 228.021,172.145 229.068,172.145 C 230.115,172.145 231.162,172.281 232.209,172.372 L 232.209,150.298 C 231.162,150.389 230.115,150.525 229.068,150.525 C 228.021,150.525 226.975,150.388 225.927,150.298 L 225.927,172.372 z M 229.022,184.298 C 230.979,184.298 232.663,182.659 232.663,180.702 C 232.663,178.746 230.979,177.107 229.022,177.107 C 227.065,177.107 225.472,178.791 225.472,180.702 C 225.472,182.614 227.065,184.298 229.022,184.298"
           style="fill:#0059e0;fill-opacity:1;fill-rule:nonzero;stroke:none"
           id="path97" /><path
           d="M 255.506,166 L 254.413,166 C 254.095,168.504 252.456,170.734 249.77,170.734 C 245.492,170.734 244.172,165.181 244.172,161.814 C 244.172,156.352 246.129,152.846 251.09,152.846 C 252.774,152.846 254.732,153.666 255.823,154.986 L 256.598,154.348 L 255.505,151.618 C 254.231,150.48 250.998,149.888 249.359,149.888 C 242.304,149.888 237.435,153.802 237.435,160.949 C 237.435,168.186 242.258,172.782 249.405,172.782 C 252,172.782 255.095,172.145 257.234,170.734 L 255.505,166"
           style="fill:#0059e0;fill-opacity:1;fill-rule:nonzero;stroke:none"
           id="path99" /><path
           d="M 277.856,154.304 C 277.856,152.619 278.357,152.074 280.178,152.164 L 280.178,151.118 C 279.086,150.617 277.356,149.889 276.081,149.889 C 273.941,149.889 272.304,151.209 271.575,153.212 C 270.391,151.118 268.115,149.889 265.748,149.889 C 262.016,149.889 259.24,151.937 259.24,155.897 C 259.24,160.221 261.88,161.496 267.569,162.861 C 268.707,163.134 269.89,163.407 270.892,164.045 C 271.438,164.546 271.575,165.137 271.575,165.82 C 271.575,168.005 269.345,169.826 267.25,169.826 C 264.338,169.826 261.971,167.823 261.698,167.004 L 261.38,167.004 L 260.788,169.735 C 262.927,171.738 266.341,172.784 269.208,172.784 C 273.032,172.784 277.856,171.236 277.856,166.685 L 277.856,154.304 z M 271.575,162.223 C 270.437,161.721 268.388,161.312 267.069,160.265 C 265.886,159.309 265.612,157.944 265.612,156.487 C 265.612,154.804 266.158,152.846 268.116,152.846 C 270.893,152.846 271.485,155.531 271.576,157.807 L 271.576,162.223"
           style="fill:#0059e0;fill-opacity:1;fill-rule:nonzero;stroke:none"
           id="path101" /><path
           d="M 291.012,156.488 C 291.012,153.348 291.195,151.664 295.245,152.71 L 295.245,150.935 C 293.561,150.298 291.922,149.888 290.511,149.888 C 285.778,149.888 284.731,153.029 284.731,157.261 L 284.731,169.46 L 281.637,169.46 C 281.773,170.507 281.773,171.325 281.637,172.372 L 284.731,172.372 L 284.731,177.516 C 286.78,178.335 288.828,179.291 291.012,180.338 L 291.012,172.372 L 294.881,172.372 C 294.744,171.325 294.744,170.507 294.881,169.46 L 291.012,169.46 L 291.012,156.488"
           style="fill:#0059e0;fill-opacity:1;fill-rule:nonzero;stroke:none"
           id="path103" /><path
           d="M 299.241,172.372 C 300.288,172.281 301.335,172.145 302.382,172.145 C 303.429,172.145 304.476,172.281 305.523,172.372 L 305.523,150.298 C 304.476,150.389 303.429,150.525 302.382,150.525 C 301.335,150.525 300.288,150.388 299.241,150.298 L 299.241,172.372 z M 302.336,184.298 C 304.293,184.298 305.978,182.659 305.978,180.702 C 305.978,178.746 304.294,177.107 302.336,177.107 C 300.378,177.107 298.786,178.791 298.786,180.702 C 298.786,182.614 300.378,184.298 302.336,184.298"
           style="fill:#0059e0;fill-opacity:1;fill-rule:nonzero;stroke:none"
           id="path105" /><path
           d="M 310.204,160.857 C 310.204,168.003 314.346,172.782 321.31,172.782 C 328.183,172.782 332.507,168.595 332.507,161.859 C 332.507,154.94 328.41,149.888 321.265,149.888 C 314.529,149.888 310.204,154.121 310.204,160.857 z M 316.94,160.994 C 316.94,158.08 317.305,151.936 321.265,151.936 C 324.77,152.027 325.77,157.579 325.77,162.586 C 325.77,167.001 324.632,170.734 321.583,170.734 C 317.895,170.734 316.939,166.364 316.939,160.994"
           style="fill:#0059e0;fill-opacity:1;fill-rule:nonzero;stroke:none"
           id="path107" /><path
           d="M 336.51,172.372 C 337.511,172.281 338.513,172.145 339.56,172.145 C 340.562,172.145 341.562,172.281 342.563,172.372 L 342.563,169.004 C 344.384,171.143 346.751,172.781 349.572,172.781 C 355.308,172.781 356.764,169.095 356.764,163.632 L 356.764,150.297 C 355.717,150.388 354.67,150.524 353.623,150.524 C 352.576,150.524 351.529,150.387 350.482,150.297 L 350.482,161.63 C 350.482,165.863 349.936,168.959 346.75,168.959 C 342.79,168.959 342.79,163.633 342.79,160.766 L 342.79,150.298 C 341.743,150.389 340.696,150.525 339.65,150.525 C 338.603,150.525 337.556,150.388 336.509,150.298 L 336.509,172.372"
           style="fill:#0059e0;fill-opacity:1;fill-rule:nonzero;stroke:none"
           id="path109" /><path
           d="M 159.808,169.982 C 161.584,171.815 164.134,172.888 167.338,172.888 C 174.484,172.888 177.169,167.927 176.669,161.419 L 163.652,161.419 C 163.516,156.73 165.154,152.953 169.979,152.953 C 171.845,152.953 173.893,153.818 175.304,155.002 L 175.85,154.591 L 174.849,152.043 C 173.029,150.769 170.571,149.994 168.34,149.994 C 164.527,149.994 161.652,151.154 159.74,153.257 M 170.388,163.604 C 170.388,166.016 170.115,170.841 167.383,170.841 C 164.061,170.841 163.741,166.016 163.65,163.604 L 170.388,163.604 z M 168.976,182.219 C 169.932,183.312 170.524,183.858 171.98,183.858 C 173.118,183.858 173.983,182.993 173.983,181.855 C 173.983,180.398 172.664,179.807 171.617,179.123 L 165.654,175.437 L 163.105,175.437 L 168.977,182.219"
           style="fill:#0059e0;fill-opacity:1;fill-rule:nonzero;stroke:none"
           id="path111" /><path
           d="M 169.968,196.984 C 169.889,194.249 170.845,192.045 173.659,192.045 C 174.748,192.045 175.943,192.55 176.766,193.24 L 177.085,193.001 L 176.501,191.514 C 175.439,190.771 174.004,190.319 172.704,190.319 C 168.295,190.319 166.037,192.975 166.037,197.304 C 166.037,201.022 168.268,203.678 172.12,203.678 C 176.289,203.678 177.856,200.783 177.564,196.986 L 169.969,196.986 L 169.968,196.984 z M 173.899,198.259 C 173.899,199.667 173.74,202.482 172.146,202.482 C 170.208,202.482 170.022,199.667 169.968,198.259 L 173.898,198.259"
           style="fill:#0059e0;fill-opacity:1;fill-rule:nonzero;stroke:none"
           id="path113" /><path
           d="M 184.287,194.169 C 184.287,192.336 184.393,191.353 186.757,191.965 L 186.757,190.929 C 185.774,190.557 184.818,190.318 183.994,190.318 C 181.232,190.318 180.621,192.151 180.621,194.621 L 180.621,201.738 L 178.816,201.738 C 178.895,202.349 178.895,202.827 178.816,203.438 L 180.621,203.438 L 180.621,206.438 C 181.816,206.916 183.012,207.474 184.286,208.085 L 184.286,203.438 L 186.543,203.438 C 186.463,202.827 186.463,202.349 186.543,201.738 L 184.286,201.738 L 184.286,194.169"
           style="fill:#0059e0;fill-opacity:1;fill-rule:nonzero;stroke:none"
           id="path115" /></g></g><rect
       style="fill:none"
       id="rect3002"
       width="370.09103"
       height="255.68886"
       x="128.70244"
       y="637.79211"
       transform="matrix(0.8,0,0,-0.8,0,842)"
       clip-path="none" /></g></svg>