<?xml version="1.0" encoding="UTF-8" standalone="no"?>
<!-- Created with Inkscape (http://www.inkscape.org/) -->
<svg
   xmlns:dc="http://purl.org/dc/elements/1.1/"
   xmlns:cc="http://creativecommons.org/ns#"
   xmlns:rdf="http://www.w3.org/1999/02/22-rdf-syntax-ns#"
   xmlns:svg="http://www.w3.org/2000/svg"
   xmlns="http://www.w3.org/2000/svg"
   xmlns:sodipodi="http://sodipodi.sourceforge.net/DTD/sodipodi-0.dtd"
   xmlns:inkscape="http://www.inkscape.org/namespaces/inkscape"
   width="161.52397"
   height="41.540466"
   id="svg2405"
   sodipodi:version="0.32"
   inkscape:version="0.46"
   version="1.0"
   sodipodi:docname="logo-inria.svg"
   inkscape:output_extension="org.inkscape.output.svg.inkscape">
  <defs
     id="defs2407">
    <inkscape:perspective
       sodipodi:type="inkscape:persp3d"
       inkscape:vp_x="0 : 526.18109 : 1"
       inkscape:vp_y="0 : 1000 : 0"
       inkscape:vp_z="744.09448 : 526.18109 : 1"
       inkscape:persp3d-origin="372.04724 : 350.78739 : 1"
       id="perspective2413" />
  </defs>
  <sodipodi:namedview
     id="base"
     pagecolor="#ffffff"
     bordercolor="#666666"
     borderopacity="1.0"
     gridtolerance="10000"
     guidetolerance="10"
     objecttolerance="10"
     inkscape:pageopacity="0.0"
     inkscape:pageshadow="2"
     inkscape:zoom="8.054532"
     inkscape:cx="80.761986"
     inkscape:cy="20.770233"
     inkscape:document-units="px"
     inkscape:current-layer="layer1"
     showgrid="false"
     inkscape:window-width="1400"
     inkscape:window-height="977"
     inkscape:window-x="0"
     inkscape:window-y="25" />
  <metadata
     id="metadata2410">
    <rdf:RDF>
      <cc:Work
         rdf:about="">
        <dc:format>image/svg+xml</dc:format>
        <dc:type
           rdf:resource="http://purl.org/dc/dcmitype/StillImage" />
      </cc:Work>
    </rdf:RDF>
  </metadata>
  <g
     inkscape:label="Layer 1"
     inkscape:groupmode="layer"
     id="layer1"
     transform="translate(-236.38088,-191.59195)">
    <g
       id="content"
       transform="matrix(1.249992,0,0,-1.249992,-63.704704,977.72765)"
       xml:space="preserve"
       stroke-miterlimit="10.433"
       fill-rule="even-odd"
       font-style="normal"
       font-variant="normal"
       font-weight="normal"
       font-stretch="normal"
       font-size-adjust="none"
       letter-spacing="normal"
       word-spacing="normal"
       style="font-style:normal;font-variant:normal;font-weight:normal;font-stretch:normal;letter-spacing:normal;word-spacing:normal;text-anchor:start;fill:none;fill-opacity:1;stroke:#000000;stroke-linecap:butt;stroke-linejoin:miter;stroke-miterlimit:10.43299961;stroke-dasharray:none;stroke-dashoffset:0;stroke-opacity:1">
<path
   d="M 244.98,607.12 L 245.15,607.43 L 245.32,607.74 L 245.67,608.35 L 246.02,608.95 L 246.37,609.55 L 246.74,610.14 L 247.11,610.73 L 247.49,611.33 L 247.68,611.64 L 247.88,611.95 C 248.59,613.05 249.82,614.61 250.21,615.38 C 250.25,615.47 250.12,615.55 250.14,615.63 C 250.18,615.77 250.25,615.87 250.16,616.05 C 249.97,616.46 249.8,616.56 249.52,616.8 C 249.56,616.77 249.09,616.61 249.2,616.72 L 248.61,616.06 L 248.14,615.4 L 247.82,615.08 L 247.52,614.47 L 247.37,614.25 L 247,613.83 L 246.71,613.25 C 246.65,613.12 246.55,613 246.41,612.72 L 245.96,612.16 C 245.96,612.16 245.91,612.07 245.83,611.92 C 245.79,611.84 245.73,611.76 245.69,611.65 C 245.66,611.57 245.45,611.43 245.43,611.23 C 245.43,611.14 245.23,610.76 245.17,610.62 C 245.11,610.51 244.91,610.18 244.76,609.91 C 244.6,609.63 244.79,610 244.64,609.73 C 244.43,609.35 244.31,609.04 244.3,609.02 C 244.3,609.02 243.21,607.02 243.09,606.78 C 242.61,605.84 240.91,602.4 240.25,599.95 C 240.25,599.93 240.14,599.94 240.07,599.94 C 240.77,609.49 241.12,619.07 240.75,628.64 C 240.79,628.64 240.84,628.64 240.88,628.64 C 247.18,628.13 253.4,627.96 259.67,628.12 C 265.25,628.27 270.78,628.96 276.36,628.91 C 276.36,628.82 276.33,628.76 276.29,628.75 C 276.08,628.7 275.32,628.36 274.37,627.91 C 273.93,627.7 273.71,627.58 273.95,627.7 C 273.79,627.62 273.53,627.45 273.37,627.36 C 273.14,627.25 272.94,627.2 272.7,627.07 C 272.46,626.96 272.43,626.9 272.23,626.8 C 272.14,626.75 272.09,626.81 272,626.77 C 271.91,626.72 271.84,626.63 271.75,626.57 C 271.69,626.55 270.86,626.04 270.8,626.01 C 270.59,625.92 270.98,626.08 270.75,625.95 C 270.55,625.84 270.6,625.97 270.42,625.87 C 270.28,625.79 270.12,625.61 269.99,625.53 C 269.86,625.46 269.95,625.55 269.83,625.48 C 269.51,625.28 269.33,625.16 269.24,625.1 C 269.05,624.99 269.1,625.03 268.44,624.66 C 268.25,624.53 267.34,623.92 267.09,623.74 C 266.89,623.61 267.52,623.98 267.38,623.88 C 267.14,623.75 266.98,623.64 266.76,623.48 C 266.63,623.4 266.2,623.03 266.07,622.95 C 265.73,622.73 265.46,622.52 265.1,622.33 C 264.93,622.56 264.55,622.98 264.35,623.17 C 264.81,622.76 263.07,624.11 262.46,624.45 C 261.89,624.77 263.83,623.52 263.83,623.57 C 263.83,623.57 263.59,623.61 262.89,624.18 C 263.12,623.99 263.07,624.07 262.63,624.34 C 262.54,624.4 261.59,624.81 261.5,624.86 C 261.3,624.96 261.37,624.88 261.16,624.96 C 261.04,625.01 261.05,625.02 260.93,625.07 C 260.83,625.1 261.3,624.9 261.21,624.93 C 261.14,624.95 260.32,625.3 260.08,625.38 C 261.22,625.05 260.75,625.16 259.24,625.55 C 258.86,625.65 257.63,625.76 257.46,625.79 C 257.34,625.82 257.43,625.71 257.3,625.73 C 257.15,625.76 257.33,625.68 257.18,625.71 C 257,625.74 257.02,625.77 256.84,625.79 C 256.75,625.8 256.86,625.82 256.77,625.82 C 256.6,625.85 257.06,625.7 256.89,625.72 C 256.68,625.74 256.71,625.72 256.59,625.73 C 256.47,625.74 256.72,625.72 256.59,625.74 C 256.27,625.77 256.27,625.68 255.8,625.68 C 255.65,625.68 255.46,625.68 255.37,625.68 C 255.18,625.68 254.52,625.62 254.35,625.62 C 254.16,625.61 254.22,625.53 254.07,625.53 C 253.59,625.52 253.36,625.49 253.59,625.55 C 253.18,625.45 253.29,625.47 252.75,625.3 C 252.59,625.25 251.94,625.15 251.67,625.08 C 252.53,625.29 250.99,624.84 250.91,624.83 C 250.76,624.81 250.34,624.6 250.19,624.56 C 249.87,624.47 249.84,624.47 249.73,624.41 C 249.52,624.3 249.52,624.3 249.27,624.2 C 249.16,624.16 248.97,624.09 248.85,624.05 C 248.69,623.99 248.49,623.85 248.33,623.78 C 248.1,623.68 248.24,623.72 247.98,623.6 C 247.85,623.55 247.63,623.51 247.45,623.41 C 247.35,623.35 247.25,623.27 247.16,623.22 C 247.08,623.18 246.86,623.03 246.79,623 C 246.54,622.89 246.49,622.82 246.28,622.7 C 245.85,622.46 245.49,622.12 245.01,621.78 C 245.02,621.55 244.99,621.52 245.16,621.38 C 245.25,621.3 245.43,621.31 245.88,621.45 C 248.85,623.11 252.07,623.96 255.4,624.12 C 258.32,624.27 261.62,623.63 263.47,621.18 C 262.15,620.1 260.86,619.15 259.57,618.05 C 259.47,617.97 259.34,617.78 259.24,617.7 C 259.17,617.64 258.98,617.57 258.85,617.45 C 258.78,617.39 258.82,617.34 258.75,617.28 C 258.61,617.16 258.4,617.08 258.23,616.91 C 258.11,616.79 258.05,616.74 257.9,616.6 C 257.83,616.54 257.73,616.38 257.67,616.32 C 257.54,616.21 257.42,616.09 257.3,615.98 C 257.23,615.92 257.05,615.82 256.99,615.76 C 256.8,615.58 256.75,615.57 256.57,615.4 C 256.51,615.35 256.34,615.25 256.27,615.17 C 256.13,615.02 255.98,614.82 255.86,614.74 C 255.63,614.59 255.62,614.52 255.44,614.35 C 255.33,614.25 255.29,614.22 255.16,614.14 C 255.09,614.09 255.03,614.03 254.98,613.96 C 254.93,613.87 254.75,613.86 254.68,613.78 C 254.38,613.44 253.92,612.99 253.62,612.67 C 253.56,612.6 253.5,612.61 253.45,612.55 C 253.33,612.42 253.29,612.34 253.07,612.14 C 253,612.07 252.84,611.97 252.79,611.91 C 252.58,611.7 252.59,611.63 252.52,611.57 C 252.41,611.47 252.25,611.38 252.13,611.28 C 251.99,611.17 251.88,610.99 251.77,610.85 C 251.66,610.71 251.56,610.72 251.41,610.53 C 251.22,610.3 251.1,610.16 251,610.04 C 250.91,609.94 250.84,609.91 250.75,609.8 C 250.7,609.73 250.64,609.65 250.56,609.59 C 250.18,609.35 250.09,609.19 249.82,608.91 C 249.76,608.85 249.61,608.87 249.45,608.62 C 249.32,608.45 248.85,607.93 248.73,607.79 C 248.64,607.69 248.9,607.91 248.65,607.65 C 248.49,607.47 248.47,607.43 248.32,607.26 C 248.24,607.18 248.06,607.06 247.99,606.98 C 247.85,606.83 247.78,606.73 247.66,606.57 C 247.6,606.49 247.56,606.62 247.27,606.15 C 247.14,605.93 247.02,605.74 246.68,605.51 C 246.51,605.39 246.58,605.16 246.35,605.05 C 246.07,604.92 246.19,605.02 246.16,604.91 C 246.17,604.97 245.56,604.41 245.43,603.98 C 245.34,603.88 245.14,603.67 245.04,603.55 C 244.95,603.45 244.86,603.4 244.77,603.28 C 244.65,603.13 244.59,602.94 244.46,602.78 C 244.35,602.66 244.32,602.64 244.22,602.51 C 244.1,602.36 243.91,602.21 243.79,602.06 C 243.67,601.92 243.55,601.67 243.44,601.53 C 243.2,601.24 243.05,601.2 242.77,600.73 C 242.33,600.19 241.97,599.74 241.8,599.5 C 241.73,599.6 241.7,599.64 241.7,599.64 C 242.75,602.52 244.52,606.23 244.98,607.12 z"
   id="path9"
   style="fill:#334cff;fill-rule:nonzero;stroke:#334cff;stroke-width:0" />
<path
   d="M 253.64,620.56 L 253.62,620.57 L 253.6,620.57 L 253.58,620.58 L 253.56,620.59 L 253.54,620.59 L 253.52,620.6 L 253.49,620.6 L 253.47,620.61 L 253.43,620.62 L 253.39,620.63 L 253.34,620.63 L 253.32,620.64 L 253.3,620.65 C 253.11,620.69 252.94,620.7 252.78,620.67 C 251.98,620.55 251.57,619.6 251.12,619 C 251.21,618.91 251.3,618.84 251.4,618.8 C 251.52,618.73 251.59,618.82 251.71,618.76 C 251.91,618.67 252.18,618.6 252.34,618.72 C 252.42,618.78 252.67,618.72 252.76,618.74 C 253.15,618.86 253.02,619 253.48,619.19 C 253.77,619.31 253.98,619.75 253.89,620.29 C 253.86,620.45 253.76,620.52 253.64,620.56 z"
   id="path11"
   style="fill:#334cff;fill-rule:nonzero;stroke:#334cff;stroke-width:0" />
<path
   d="M 247.93,604.15 L 247.5,603.65 L 247.08,603.15 L 246.67,602.65 L 246.27,602.14 L 245.87,601.64 L 245.48,601.13 L 244.72,600.11 L 243.98,599.07 L 243.24,598.01 L 242.87,597.47 L 242.51,596.92 L 242.14,596.36 L 241.77,595.8 C 241.73,595.74 241.79,595.68 241.83,595.68 C 249.28,596.52 256.59,596.34 263.95,595.74 C 263.95,595.83 263.98,595.96 263.93,595.99 C 261.19,597.87 259.47,600.28 258.42,603.35 C 257.73,605.36 257.26,607.51 257.64,609.65 C 259.67,610.7 261.77,611.62 263.18,613.66 C 264.48,615.53 265.21,617.98 264.15,620.02 C 258.11,615.42 253.03,610.01 247.93,604.15 z"
   id="path13"
   style="fill:#334cff;fill-rule:nonzero;stroke:#334cff;stroke-width:0" />
<path
   d="M 270.95,612.15 L 271.12,612.71 L 271.28,613.26 L 271.43,613.81 L 271.58,614.35 L 271.73,614.88 L 271.88,615.41 L 272.17,616.45 L 272.46,617.47 L 272.77,618.48 L 272.93,618.99 L 273.1,619.49 L 273.27,619.99 L 273.46,620.49 C 274.36,622.87 276.44,627.2 276.88,627.94 C 276.9,627.98 276.78,628.11 276.84,628.03 C 272.82,626.43 269.16,624.05 265.78,621.38 C 265.95,621.13 266.12,620.88 266.23,620.6 C 266.3,620.47 266.46,620.07 266.4,620.18 C 266.36,620.26 266.5,619.98 266.54,619.82 C 266.57,619.7 266.63,619.46 266.65,619.34 C 266.68,619.16 266.78,618.88 266.8,618.7 C 266.83,618.47 266.89,618.29 266.86,618.05 C 266.8,617.65 266.87,617.71 266.86,617.41 C 266.86,617.16 266.82,617.45 266.82,617.24 C 266.81,617.1 266.82,616.69 266.77,616.57 C 266.71,616.41 266.83,616.46 266.62,616.02 C 266.51,615.78 266.51,615.76 266.43,615.54 C 266.38,615.43 266.37,615.31 266.33,615.18 C 266.26,614.99 266.04,614.59 266.03,614.52 C 266.01,614.35 266.01,614.45 265.75,614.05 C 265.57,613.78 265.4,613.5 265.11,613.22 C 265.03,613.15 265.04,613.02 264.96,612.94 L 264.96,612.94 C 264.84,612.8 264.66,612.72 264.41,612.4 C 264.33,612.32 264.32,612.18 264.24,612.1 C 264.07,611.93 263.96,611.94 263.78,611.78 C 263.6,611.63 263.47,611.5 263.2,611.18 C 262.9,610.95 262.48,610.79 262.27,610.65 C 262.22,610.59 262.09,610.49 261.84,610.34 C 261.75,610.29 261.63,610.22 261.5,610.15 C 261.42,610.11 261.34,609.99 261.25,609.95 C 260.79,609.77 260.29,609.52 259.57,609.17 C 259.56,609.03 259.55,608.9 259.54,608.76 C 259.54,608.61 259.5,608.47 259.5,608.32 C 259.5,608.23 259.5,608.1 259.5,608.02 C 259.5,607.88 259.54,607.78 259.54,607.64 C 259.54,607.52 259.55,607.29 259.56,607.17 C 259.58,606.9 259.64,606.59 259.68,606.32 C 259.69,606.25 259.63,606.25 259.64,606.18 C 259.68,605.93 259.77,605.83 259.81,605.63 C 259.83,605.52 259.8,605.37 259.85,605.13 C 259.88,605.02 259.9,604.97 259.93,604.86 C 259.98,604.64 260.04,604.36 260.1,604.15 C 260.13,604.05 260.16,603.97 260.18,603.88 C 260.22,603.77 260.29,603.75 260.32,603.65 C 260.39,603.43 260.4,603.33 260.48,603.13 C 260.56,602.93 260.66,602.69 260.76,602.32 C 260.78,602.23 260.89,602.2 260.93,602.11 C 261.07,601.82 261.13,601.5 261.39,601.16 C 261.44,601.1 261.4,600.99 261.43,600.93 C 261.48,600.83 261.53,600.85 261.57,600.76 C 261.74,600.45 261.81,600.29 262.01,599.98 C 262.05,599.91 262.15,599.6 262.25,599.57 C 262.35,599.52 262.37,599.45 262.43,599.35 C 262.54,599.2 262.7,598.88 262.82,598.75 C 263.19,598.33 263.49,597.85 264.2,597.24 C 264.3,597.16 264.4,597.06 264.5,596.97 C 264.65,596.84 264.91,596.61 264.97,596.72 C 267.75,601.59 269.41,606.81 270.95,612.15 z"
   id="path15"
   style="fill:#334cff;fill-rule:nonzero;stroke:#334cff;stroke-width:0" />
<path
   d="M 282.79,615.68 L 282.8,615.71 L 282.81,615.74 L 282.82,615.77 L 282.82,615.8 L 282.83,615.83 L 282.83,615.86 L 282.83,615.9 L 282.83,615.93 L 282.83,615.97 L 282.82,616.01 L 282.82,616.04 L 282.81,616.08 L 282.8,616.11 L 282.78,616.15 L 282.76,616.19 L 282.74,616.22 L 282.72,616.26 L 282.7,616.29 L 282.67,616.32 L 282.63,616.36 L 282.62,616.37 L 282.6,616.39 L 282.58,616.4 L 282.56,616.41 L 282.54,616.43 L 282.52,616.44 L 282.5,616.45 L 282.47,616.47 L 282.45,616.48 L 282.42,616.49 L 282.4,616.5 L 282.37,616.51 L 282.34,616.52 L 282.31,616.53 L 282.28,616.54 L 282.25,616.55 L 282.22,616.55 L 282.18,616.56 L 282.15,616.57 L 282.11,616.57 L 282.08,616.58 L 282.04,616.58 L 282,616.58 L 281.96,616.59 L 282.06,616.9 L 287.15,616.9 L 287.03,616.59 C 286.41,616.55 285.98,616.27 285.73,615.68 C 285.75,615.68 282.46,603.63 282.45,603.61 C 282.27,602.95 282.83,602.65 283.23,602.7 C 283.22,602.7 283.16,602.39 283.16,602.39 L 278.08,602.39 L 278.2,602.7 C 278.59,602.7 279.24,603.02 279.48,603.57 L 282.78,615.67"
   id="path17"
   style="fill:#000000;fill-rule:nonzero;stroke-width:0" />
<path
   d="M 344.32,615.68 L 344.33,615.71 L 344.34,615.74 L 344.34,615.77 L 344.35,615.8 L 344.36,615.83 L 344.36,615.86 L 344.36,615.9 L 344.36,615.93 L 344.36,615.97 L 344.35,616.01 L 344.35,616.04 L 344.34,616.08 L 344.32,616.11 L 344.31,616.15 L 344.29,616.19 L 344.27,616.22 L 344.25,616.26 L 344.22,616.29 L 344.2,616.32 L 344.16,616.36 L 344.15,616.37 L 344.13,616.39 L 344.11,616.4 L 344.09,616.41 L 344.07,616.43 L 344.05,616.44 L 344.02,616.45 L 344,616.47 L 343.98,616.48 L 343.95,616.49 L 343.92,616.5 L 343.9,616.51 L 343.87,616.52 L 343.84,616.53 L 343.81,616.54 L 343.78,616.55 L 343.75,616.55 L 343.71,616.56 L 343.68,616.57 L 343.64,616.57 L 343.6,616.58 L 343.57,616.58 L 343.53,616.58 L 343.49,616.59 L 343.59,616.9 L 348.68,616.9 L 348.56,616.59 C 347.95,616.55 347.51,616.27 347.26,615.68 C 347.28,615.68 343.99,603.63 343.98,603.61 C 343.79,602.95 344.36,602.65 344.76,602.7 C 344.75,602.7 344.69,602.39 344.69,602.39 L 339.61,602.39 L 339.72,602.7 C 340.12,602.7 340.77,603.02 341,603.57 L 344.31,615.67"
   id="path19"
   style="fill:#000000;fill-rule:nonzero;stroke-width:0" />
<path
   d="M 328.88,616.9 L 319.98,616.9 L 319.88,616.58 C 320.5,616.59 320.81,616.13 320.68,615.68 L 317.38,603.59 C 317.15,603.08 316.89,602.7 316.12,602.7 L 316.04,602.38 L 321.07,602.38 L 321.14,602.72 L 320.99,602.72 C 320.57,602.84 320.22,603.16 320.37,603.65 L 323.69,615.68 C 323.69,615.68 327.46,615.67 327.46,615.68 C 328.68,615.7 329.32,614.55 329.23,613.76 C 329.23,612.47 328.42,611.26 327.26,610.88 C 325.96,610.4 324.12,610.53 323.21,610.79 L 322.72,610.13 C 323.67,609.25 324.34,608.48 325.39,606.84 C 327.28,603.61 330.3,601.41 333.61,601.46 C 334.41,601.5 335.5,601.51 335.95,602.45 C 336.04,602.65 335.79,602.51 335.86,602.55 C 331.91,602.11 331.32,603.65 328.96,606.88 C 328.21,608.03 327.42,609.21 326.92,609.41 C 328.44,609.72 330.02,610.12 331.24,611.4 C 332.31,612.7 332.58,613.95 332.03,615.18 C 331.03,617.14 329.15,616.84 328.88,616.9 z"
   id="path21"
   style="fill:#000000;fill-rule:nonzero;stroke-width:0" />
<path
   d="M 365.24,603.61 L 365.24,603.58 L 365.24,603.54 L 365.24,603.51 L 365.24,603.48 L 365.24,603.45 L 365.24,603.42 L 365.23,603.39 L 365.23,603.37 L 365.22,603.31 L 365.2,603.26 L 365.19,603.21 L 365.17,603.17 L 365.15,603.13 L 365.13,603.09 L 365.11,603.05 L 365.09,603.01 L 365.06,602.98 L 365.03,602.95 L 365,602.92 L 364.97,602.89 L 364.94,602.87 L 364.91,602.84 L 364.87,602.82 L 364.84,602.8 L 364.8,602.79 L 364.76,602.77 L 364.73,602.76 L 364.69,602.75 L 364.65,602.73 L 364.61,602.73 L 364.57,602.72 L 364.53,602.71 L 364.49,602.71 L 364.45,602.71 L 364.41,602.7 L 364.38,602.7 L 364.29,602.39 L 369.18,602.39 L 369.29,602.7 C 368.38,602.7 368.3,603.28 368.16,603.61 L 365.87,616.43 C 365.77,616.84 365.32,616.9 365.02,616.9 L 362.18,616.9 L 362.09,616.59 C 362.56,616.59 362.95,616.21 362.6,615.68 L 354,603.61 C 353.7,603.32 353.35,602.77 352.29,602.7 L 352.17,602.39 L 356.09,602.39 L 356.21,602.7 C 355.98,602.64 355.51,603.03 355.93,603.61 C 355.92,603.61 358.77,607.57 358.77,607.57 L 361.67,607.57 C 362.12,607.57 362.86,607.57 363.3,607.32 L 364.3,608.8 L 364.27,608.96 L 359.76,608.96 L 363.38,614.03 C 363.39,613.97 364.18,609.39 364.27,608.96 L 365.24,603.61 z"
   id="path23"
   style="fill:#000000;fill-rule:nonzero;stroke-width:0" />
<path
   d="M 307.05,616.58 L 307.13,616.9 L 311.01,616.9 L 310.92,616.58 L 310.72,616.58 C 310.27,616.52 309.84,616.32 309.64,615.67 L 306.12,602.8 C 306.05,602.37 305.62,602.38 305.62,602.38 L 304.39,602.38 C 304.39,602.38 297.79,613.5 297.78,613.55 C 297.78,613.55 295.1,604.11 295.07,603.6 C 295.02,602.95 295.38,602.7 295.99,602.7 L 295.93,602.38 C 295.93,602.38 294.95,602.38 293.97,602.38 C 293.04,602.38 292.12,602.37 292.1,602.38 C 292.1,602.38 292.23,602.7 292.18,602.7 C 292.58,602.7 293.29,603.01 293.41,603.6 L 296.64,615.51 C 296.72,616.12 296.22,616.58 295.6,616.58 L 295.7,616.9 L 298.31,616.9 C 298.7,616.86 298.99,616.96 299.55,615.91 L 305.4,606.15 L 308.02,615.67 C 308.12,616.28 307.67,616.58 307.38,616.58 L 307.05,616.58 z"
   id="path25"
   style="fill:#000000;fill-rule:nonzero;stroke-width:0" />
</g>  </g>
</svg>
