<?xml version="1.0" encoding="UTF-8" standalone="no"?>
<!-- Created with Inkscape (http://www.inkscape.org/) -->
<svg
   xmlns:dc="http://purl.org/dc/elements/1.1/"
   xmlns:cc="http://creativecommons.org/ns#"
   xmlns:rdf="http://www.w3.org/1999/02/22-rdf-syntax-ns#"
   xmlns:svg="http://www.w3.org/2000/svg"
   xmlns="http://www.w3.org/2000/svg"
   xmlns:sodipodi="http://sodipodi.sourceforge.net/DTD/sodipodi-0.dtd"
   xmlns:inkscape="http://www.inkscape.org/namespaces/inkscape"
   id="svg2"
   sodipodi:version="0.32"
   inkscape:version="0.46"
   width="79.903969"
   height="26.383375"
   xml:space="preserve"
   sodipodi:docname="logo-uqam.svg"
   version="1.0"
   inkscape:output_extension="org.inkscape.output.svg.inkscape"><metadata
     id="metadata7"><rdf:RDF><cc:Work
         rdf:about=""><dc:format>image/svg+xml</dc:format><dc:type
           rdf:resource="http://purl.org/dc/dcmitype/StillImage" /></cc:Work></rdf:RDF></metadata><defs
     id="defs5"><inkscape:perspective
       sodipodi:type="inkscape:persp3d"
       inkscape:vp_x="0 : 526.18109 : 1"
       inkscape:vp_y="0 : 1000 : 0"
       inkscape:vp_z="744.09448 : 526.18109 : 1"
       inkscape:persp3d-origin="372.04724 : 350.78739 : 1"
       id="perspective9" /><clipPath
       clipPathUnits="userSpaceOnUse"
       id="clipPath19"><path
         d="M 0,453.258 L 2480,453.258 L 2480,3.25781 L 0,3.25781 L 0,453.258"
         id="path21" /></clipPath></defs><sodipodi:namedview
     inkscape:window-height="977"
     inkscape:window-width="1400"
     inkscape:pageshadow="2"
     inkscape:pageopacity="0.0"
     guidetolerance="10.0"
     gridtolerance="10.0"
     objecttolerance="10.0"
     borderopacity="1.0"
     bordercolor="#666666"
     pagecolor="#ffffff"
     id="base"
     showgrid="false"
     inkscape:zoom="16.282045"
     inkscape:cx="39.951984"
     inkscape:cy="13.191688"
     inkscape:window-x="0"
     inkscape:window-y="25"
     inkscape:current-layer="g11" /><g
     id="g11"
     inkscape:groupmode="layer"
     inkscape:label="logo_daspe_couleur"
     transform="matrix(1.25,0,0,-1.25,2.1701389e-4,56.65725)"><g
       id="g2847"><path
         d="M 33.2223,24.7551 C 31.9262,24.6098 30.9398,24.4781 29.5895,24.2191 C 28.5445,24.5637 24.6035,26.2109 22.4211,26.8953 C 16.6754,26.9473 14.8793,30.9359 14.8852,34.2371 C 14.8922,38.0293 17.4223,41.7777 22.8031,41.7738 C 28.457,41.7695 30.8027,38.0129 30.7871,34.2539 C 30.773,30.9086 28.2848,27.8691 25.4828,27.3215 C 25.7828,27.268 25.7281,27.3477 26.423,27.1238 C 26.8723,26.9789 32.2344,25.2504 33.2223,24.9262 L 33.2223,24.7551 z M 22.8148,40.4863 C 19.4922,40.5031 18.2629,37.3707 18.2473,34.252 C 18.2301,30.9262 19.9551,28.3012 22.7703,28.2832 C 25.6547,28.2641 27.2969,30.9004 27.407,34.2578 C 27.5105,37.4094 26.1746,40.4699 22.8148,40.4863"
         style="fill:#1d7fc9;fill-opacity:1;fill-rule:nonzero;stroke:none"
         id="path23" /><path
         d="M 35.2914,31.4477 L 33.6719,27.2328 L 31.2699,27.2328 C 31.9828,28.9824 37.2789,40.848 37.5383,41.4961 L 39.1809,41.4961 C 39.6344,40.6539 45.0129,28.4965 45.5957,27.2328 L 42.2371,27.2328 L 40.5371,31.4477 L 35.2914,31.4477 z M 39.9246,32.9883 L 37.8574,38.1191 L 35.8953,32.9883 L 39.9246,32.9883"
         style="fill:#1d7fc9;fill-opacity:1;fill-rule:nonzero;stroke:none"
         id="path25" /><path
         d="M 55.3805,31.8809 L 50.759,41.4961 L 48.8137,41.4961 L 46.8652,27.2328 L 49.2242,27.2328 L 50.0668,36.623 C 50.423,36.1051 54.3227,27.6664 54.5172,27.2129 L 55.4543,27.2129 L 59.7336,36.623 L 60.5445,27.2328 L 63.923,27.2328 L 62.0922,41.4961 L 60.0199,41.4961 L 55.3805,31.8809"
         style="fill:#1d7fc9;fill-opacity:1;fill-rule:nonzero;stroke:none"
         id="path27" /><path
         d="M 10.1812,41.4961 C 10.1812,39.7141 10.1816,34.2539 10.1812,33.4762 C 10.1812,31.4211 9.73203,28.666 6.66523,28.6625 C 4.71133,28.6605 3.2082,29.7281 3.20469,32.3516 C 3.20352,33.0641 3.20469,41.2047 3.20469,41.4961 L 0.0015625,41.4961 C 0.0015625,40.0703 -0.00234375,33.709 0.0015625,32.4133 C 0.0136719,28.7277 2.85312,27.0082 6.27578,26.9809 C 10.7242,26.9457 12.7039,29.525 12.7125,32.5602 C 12.718,34.666 12.7125,41.4961 12.7125,41.4961 L 10.1812,41.4961"
         style="fill:#1d7fc9;fill-opacity:1;fill-rule:nonzero;stroke:none"
         id="path29" /><path
         d="M 31.4629,44.791 C 32.7418,44.9586 34.0406,45.1848 34.9055,45.3258 C 35.707,45.0586 40.6484,43.173 41.6199,42.8812 L 41.6199,42.7426 C 40.8434,42.6137 40.166,42.4609 39.173,42.1691 C 38.4195,42.4121 32.1191,44.4594 31.4629,44.6543 L 31.4629,44.791"
         style="fill:#1d7fc9;fill-opacity:1;fill-rule:nonzero;stroke:none"
         id="path31" /></g></g></svg>