<?xml version="1.0" encoding="UTF-8" standalone="no"?>
<!-- Created with Inkscape (http://www.inkscape.org/) -->
<svg
   xmlns:dc="http://purl.org/dc/elements/1.1/"
   xmlns:cc="http://creativecommons.org/ns#"
   xmlns:rdf="http://www.w3.org/1999/02/22-rdf-syntax-ns#"
   xmlns:svg="http://www.w3.org/2000/svg"
   xmlns="http://www.w3.org/2000/svg"
   xmlns:sodipodi="http://sodipodi.sourceforge.net/DTD/sodipodi-0.dtd"
   xmlns:inkscape="http://www.inkscape.org/namespaces/inkscape"
   width="378"
   height="69.518333"
   id="svg2"
   sodipodi:version="0.32"
   inkscape:version="0.46"
   version="1.0"
   sodipodi:docname="logo-latece.svg"
   inkscape:output_extension="org.inkscape.output.svg.inkscape">
  <defs
     id="defs4">
    <inkscape:perspective
       sodipodi:type="inkscape:persp3d"
       inkscape:vp_x="0 : 526.18109 : 1"
       inkscape:vp_y="0 : 1000 : 0"
       inkscape:vp_z="744.09448 : 526.18109 : 1"
       inkscape:persp3d-origin="372.04724 : 350.78739 : 1"
       id="perspective10" />
    <inkscape:perspective
       id="perspective2464"
       inkscape:persp3d-origin="372.04724 : 350.78739 : 1"
       inkscape:vp_z="744.09448 : 526.18109 : 1"
       inkscape:vp_y="0 : 1000 : 0"
       inkscape:vp_x="0 : 526.18109 : 1"
       sodipodi:type="inkscape:persp3d" />
    <inkscape:perspective
       id="perspective2514"
       inkscape:persp3d-origin="372.04724 : 350.78739 : 1"
       inkscape:vp_z="744.09448 : 526.18109 : 1"
       inkscape:vp_y="0 : 1000 : 0"
       inkscape:vp_x="0 : 526.18109 : 1"
       sodipodi:type="inkscape:persp3d" />
    <inkscape:perspective
       id="perspective2568"
       inkscape:persp3d-origin="372.04724 : 350.78739 : 1"
       inkscape:vp_z="744.09448 : 526.18109 : 1"
       inkscape:vp_y="0 : 1000 : 0"
       inkscape:vp_x="0 : 526.18109 : 1"
       sodipodi:type="inkscape:persp3d" />
    <inkscape:perspective
       id="perspective2638"
       inkscape:persp3d-origin="372.04724 : 350.78739 : 1"
       inkscape:vp_z="744.09448 : 526.18109 : 1"
       inkscape:vp_y="0 : 1000 : 0"
       inkscape:vp_x="0 : 526.18109 : 1"
       sodipodi:type="inkscape:persp3d" />
  </defs>
  <sodipodi:namedview
     id="base"
     pagecolor="#ffffff"
     bordercolor="#666666"
     borderopacity="1.0"
     gridtolerance="10000"
     guidetolerance="10"
     objecttolerance="10"
     inkscape:pageopacity="0.0"
     inkscape:pageshadow="2"
     inkscape:zoom="2.2883598"
     inkscape:cx="189"
     inkscape:cy="34.759167"
     inkscape:document-units="px"
     inkscape:current-layer="layer1"
     showgrid="false"
     inkscape:window-width="1280"
     inkscape:window-height="977"
     inkscape:window-x="0"
     inkscape:window-y="19" />
  <metadata
     id="metadata7">
    <rdf:RDF>
      <cc:Work
         rdf:about="">
        <dc:format>image/svg+xml</dc:format>
        <dc:type
           rdf:resource="http://purl.org/dc/dcmitype/StillImage" />
      </cc:Work>
    </rdf:RDF>
  </metadata>
  <g
     inkscape:label="Layer 1"
     inkscape:groupmode="layer"
     id="layer1"
     transform="translate(-189.4081,-308.1942)">
    <path
       style="fill:#013364;fill-opacity:1"
       d="M 343.40811,340.1942 L 343.40811,328.1942 L 331.40811,328.1942 L 319.40811,328.1942 L 319.40811,324.1942 L 319.40811,320.1942 L 347.40811,320.1942 L 375.40811,320.1942 L 375.40811,324.1942 L 375.40811,328.1942 L 363.40811,328.1942 L 351.40811,328.1942 L 351.40811,340.1942 L 351.40811,352.1942 L 347.40811,352.1942 L 343.40811,352.1942 L 343.40811,340.1942 z M 382.40811,336.1942 L 382.40811,320.1942 L 410.40811,320.1942 L 438.40811,320.1942 L 438.40811,324.1942 L 438.40811,328.1942 L 414.40811,328.1942 L 390.40811,328.1942 L 390.40811,330.1942 L 390.40811,332.1942 L 414.40811,332.1942 L 438.40811,332.1942 L 438.40811,336.1942 L 438.40811,340.1942 L 414.40811,340.1942 L 390.40811,340.1942 L 390.40811,342.1942 L 390.40811,344.1942 L 414.40811,344.1942 L 438.40811,344.1942 L 438.40811,348.1942 L 438.40811,352.1942 L 410.40811,352.1942 L 382.40811,352.1942 L 382.40811,336.1942 z M 446.40811,336.1942 L 446.40811,320.1942 L 474.40811,320.1942 L 502.40811,320.1942 L 502.40811,324.1942 L 502.40811,328.1942 L 478.40811,328.1942 L 454.40811,328.1942 L 454.40811,336.1942 L 454.40811,344.1942 L 478.40811,344.1942 L 502.40811,344.1942 L 502.40811,348.1942 L 502.40811,352.1942 L 474.40811,352.1942 L 446.40811,352.1942 L 446.40811,336.1942 z M 510.40811,336.1942 L 510.40811,320.1942 L 538.40811,320.1942 L 566.40811,320.1942 L 566.40811,324.1942 L 566.40811,328.1942 L 542.40811,328.1942 L 518.40811,328.1942 L 518.40811,330.1942 L 518.40811,332.1942 L 542.40811,332.1942 L 566.40811,332.1942 L 566.40811,336.1942 L 566.40811,340.1942 L 542.40811,340.1942 L 518.40811,340.1942 L 518.40811,342.1942 L 518.40811,344.1942 L 542.40811,344.1942 L 566.40811,344.1942 L 566.40811,348.1942 L 566.40811,352.1942 L 538.40811,352.1942 L 510.40811,352.1942 L 510.40811,336.1942 z M 189.4081,324.1942 L 189.4081,308.1942 L 193.4081,308.1942 L 197.4081,308.1942 L 197.4081,320.1942 L 197.4081,332.1942 L 221.4081,332.1942 L 245.4081,332.1942 L 245.4081,336.1942 L 245.4081,340.1942 L 217.4081,340.1942 L 189.4081,340.1942 L 189.4081,324.1942 z M 253.4081,324.1942 L 253.4081,308.1942 L 281.40811,308.1942 L 309.40811,308.1942 L 309.40811,324.1942 L 309.40811,340.1942 L 305.40811,340.1942 L 301.40811,340.1942 L 301.40811,334.1942 L 301.40811,328.1942 L 281.40811,328.1942 L 261.40811,328.1942 L 261.40811,334.1942 L 261.40811,340.1942 L 257.40811,340.1942 L 253.4081,340.1942 L 253.4081,324.1942 z M 301.40811,318.1942 L 301.40811,316.1942 L 281.40811,316.1942 L 261.40811,316.1942 L 261.40811,318.1942 L 261.40811,320.1942 L 281.40811,320.1942 L 301.40811,320.1942 L 301.40811,318.1942 z M 319.40811,312.1942 L 319.40811,308.1942 L 443.40811,308.1942 L 567.40811,308.1942 L 567.40811,312.1942 L 567.40811,316.1942 L 443.40811,316.1942 L 319.40811,316.1942 L 319.40811,312.1942 z"
       id="path2520" />
    <path
       style="fill:#999a32;fill-opacity:1"
       d="M 192.36266,375.25799 C 190.03895,372.93428 189.90811,372.18559 189.90811,361.21253 C 189.90811,350.23947 190.03895,349.49078 192.36266,347.16708 L 194.8172,344.71253 L 250.40811,344.71253 L 305.99902,344.71253 L 308.45355,347.16708 C 310.25064,348.96415 310.9081,350.70524 310.9081,353.66708 L 310.9081,357.71253 L 438.9081,357.71253 L 566.90811,357.71253 L 566.90811,360.71253 L 566.90811,363.71253 L 438.9081,363.71253 L 310.9081,363.71253 L 310.9081,368.25799 C 310.9081,371.75069 310.33963,373.37192 308.45355,375.25799 L 305.99902,377.71253 L 250.40811,377.71253 L 194.8172,377.71253 L 192.36266,375.25799 z M 304.9081,361.21253 L 304.9081,350.71253 L 250.40811,350.71253 L 195.90811,350.71253 L 195.90811,361.21253 L 195.90811,371.71253 L 250.40811,371.71253 L 304.9081,371.71253 L 304.9081,361.21253 z"
       id="path2522" />
  </g>
</svg>
