<?xml version="1.0" encoding="UTF-8" standalone="no"?>
<!-- Created with Inkscape (http://www.inkscape.org/) -->
<svg
   xmlns:dc="http://purl.org/dc/elements/1.1/"
   xmlns:cc="http://creativecommons.org/ns#"
   xmlns:rdf="http://www.w3.org/1999/02/22-rdf-syntax-ns#"
   xmlns:svg="http://www.w3.org/2000/svg"
   xmlns="http://www.w3.org/2000/svg"
   xmlns:sodipodi="http://sodipodi.sourceforge.net/DTD/sodipodi-0.dtd"
   xmlns:inkscape="http://www.inkscape.org/namespaces/inkscape"
   width="400.90536"
   height="102.82231"
   id="svg2"
   sodipodi:version="0.32"
   inkscape:version="0.46"
   sodipodi:docname="logo-above-security-fr.svg"
   inkscape:output_extension="org.inkscape.output.svg.inkscape"
   version="1.0">
  <defs
     id="defs4">
    <inkscape:perspective
       sodipodi:type="inkscape:persp3d"
       inkscape:vp_x="0 : 526.18109 : 1"
       inkscape:vp_y="0 : 1000 : 0"
       inkscape:vp_z="744.09448 : 526.18109 : 1"
       inkscape:persp3d-origin="372.04724 : 350.78739 : 1"
       id="perspective10" />
    <inkscape:perspective
       id="perspective2410"
       inkscape:persp3d-origin="372.04724 : 350.78739 : 1"
       inkscape:vp_z="744.09448 : 526.18109 : 1"
       inkscape:vp_y="0 : 1000 : 0"
       inkscape:vp_x="0 : 526.18109 : 1"
       sodipodi:type="inkscape:persp3d" />
  </defs>
  <sodipodi:namedview
     id="base"
     pagecolor="#ffffff"
     bordercolor="#666666"
     borderopacity="1.0"
     gridtolerance="10000"
     guidetolerance="10"
     objecttolerance="10"
     inkscape:pageopacity="0.0"
     inkscape:pageshadow="2"
     inkscape:zoom="0.72408531"
     inkscape:cx="199.41565"
     inkscape:cy="526.18109"
     inkscape:document-units="px"
     inkscape:current-layer="layer1"
     showgrid="false"
     inkscape:window-width="1280"
     inkscape:window-height="974"
     inkscape:window-x="114"
     inkscape:window-y="25" />
  <metadata
     id="metadata7">
    <rdf:RDF>
      <cc:Work
         rdf:about="">
        <dc:format>image/svg+xml</dc:format>
        <dc:type
           rdf:resource="http://purl.org/dc/dcmitype/StillImage" />
      </cc:Work>
    </rdf:RDF>
  </metadata>
  <g
     inkscape:label="Layer 1"
     inkscape:groupmode="layer"
     id="layer1"
     transform="translate(-171.59457,-474.76994)">
    <g
       id="g2700"
       transform="translate(-0.9677138,-178.62906)">
      <path
         d="M 200.73075,683.46551 L 185.43625,683.46551 L 180.75613,692.00651 L 172.56228,692.00651 L 194.35188,653.399 L 203.29563,653.399 L 209.532,692.00651 L 201.99826,692.00651 L 200.73075,683.46551 z M 199.77375,677.00251 L 197.47438,661.49226 L 188.97488,677.00251 L 199.77375,677.00251"
         style="fill:#3e4a9b;fill-opacity:1;fill-rule:nonzero;stroke:none"
         id="path2416" />
      <path
         d="M 215.45538,692.00651 L 223.55013,653.399 L 231.06963,653.399 L 228.31613,666.25938 C 229.70488,665.20963 231.00275,664.46101 232.20675,664.01576 C 233.41188,663.56901 234.72538,663.34676 236.15163,663.34676 C 239.10525,663.34676 241.47288,664.33563 243.25025,666.31463 C 245.02563,668.29313 245.91388,671.17401 245.91388,674.95326 C 245.91388,677.50301 245.49825,679.97863 244.66188,682.38 C 243.82938,684.77988 242.71213,686.73301 241.31863,688.236 C 239.92013,689.73988 238.45588,690.8565 236.91926,691.5865 C 235.38263,692.31501 233.77225,692.68125 232.08625,692.68125 C 228.08425,692.68125 225.14238,690.93863 223.26351,687.45326 L 222.28488,692.00651 L 215.45538,692.00651 z M 225.62676,680.62463 C 225.62676,682.51426 226.15751,684.04988 227.22001,685.23251 C 228.28251,686.41326 229.53251,687.005 230.97288,687.005 C 232.23563,687.005 233.44363,686.54601 234.59201,685.6295 C 235.7425,684.7115 236.6995,683.24676 237.46163,681.23651 C 238.22738,679.22325 238.60813,677.1935 238.60813,675.14613 C 238.60813,673.15388 238.094,671.58751 237.06863,670.45025 C 236.03938,669.31213 234.79913,668.74138 233.34163,668.74138 C 231.44563,668.74138 229.81376,669.62463 228.44563,671.38775 C 226.56663,673.80576 225.62676,676.88438 225.62676,680.62463"
         style="fill:#3e4a9b;fill-opacity:1;fill-rule:nonzero;stroke:none"
         id="path2418" />
      <path
         d="M 251.05051,680.38775 C 251.05051,675.19988 252.5115,671.06263 255.43575,667.97663 C 258.35913,664.88976 262.20051,663.34676 266.96263,663.34676 C 271.08663,663.34676 274.31075,664.486 276.62913,666.76238 C 278.94651,669.04113 280.10626,672.10413 280.10626,675.95763 C 280.10626,680.49526 278.65551,684.41463 275.75763,687.72176 C 272.86013,691.02838 268.97875,692.68125 264.11788,692.68125 C 261.48363,692.68125 259.14675,692.15301 257.10913,691.09825 C 255.072,690.04363 253.55301,688.5485 252.55201,686.61338 C 251.55101,684.67888 251.05051,682.60463 251.05051,680.38775 z M 272.57601,674.97038 C 272.57601,673.17201 272.05201,671.7315 271.00901,670.64663 C 269.96613,669.56501 268.62088,669.02213 266.97051,669.02213 C 265.34063,669.02213 263.89338,669.52938 262.636,670.54163 C 261.37138,671.55576 260.38851,673.02838 259.68926,674.95663 C 258.98851,676.88688 258.637,678.66176 258.637,680.28038 C 258.637,682.28963 259.18,683.88388 260.26688,685.06463 C 261.35375,686.24626 262.72051,686.8365 264.37088,686.8365 C 266.43625,686.8365 268.17113,685.94538 269.57638,684.16713 C 271.575,681.64763 272.57601,678.58113 272.57601,674.97038"
         style="fill:#3e4a9b;fill-opacity:1;fill-rule:nonzero;stroke:none"
         id="path2420" />
      <path
         d="M 298.25388,692.00651 L 291.74588,692.00651 L 286.13988,664.02063 L 293.55763,664.02063 L 295.47513,676.23501 C 296.03013,679.53575 296.37388,681.72088 296.50763,682.79013 C 296.67013,682.52163 297.29513,681.40338 298.39013,679.43463 C 299.47888,677.46451 300.14013,676.274 300.37763,675.86388 L 307.32638,664.02063 L 315.47388,664.02063 L 298.25388,692.00651"
         style="fill:#3e4a9b;fill-opacity:1;fill-rule:nonzero;stroke:none"
         id="path2422" />
      <path
         d="M 342.87013,680.37413 L 323.89763,680.37413 C 323.88263,680.67438 323.87263,680.90301 323.87263,681.06013 C 323.87263,682.92538 324.41013,684.42838 325.47763,685.57088 C 326.54513,686.71588 327.85138,687.28575 329.39013,687.28575 C 331.91888,687.28575 334.58763,686.36926 335.17138,684.43963 L 342.04888,684.53238 C 340.72763,687.24913 338.96388,689.28676 336.75513,690.64413 C 334.54513,692.00163 332.06638,692.68125 329.32013,692.68125 C 325.55513,692.68125 322.49138,691.48888 320.13263,689.10701 C 317.77138,686.72176 316.59138,683.57138 316.59138,679.649 C 316.59138,675.81601 317.65513,672.40338 319.78013,669.41363 C 322.68138,665.36926 326.81888,663.34676 332.19638,663.34676 C 335.62138,663.34676 338.34638,664.40788 340.36888,666.52701 C 342.38513,668.64813 343.39763,671.61926 343.39763,675.43763 C 343.39763,677.26776 343.22138,678.91413 342.87013,680.37413 z M 336.48513,675.76626 C 336.50513,675.43025 336.51263,675.17401 336.51263,674.99813 C 336.51263,672.91226 336.04888,671.34976 335.11513,670.30576 C 334.18763,669.26238 332.94013,668.74138 331.37763,668.74138 C 329.81888,668.74138 328.42013,669.33313 327.18138,670.51725 C 325.94138,671.70025 325.10513,673.45176 324.67013,675.76626 L 336.48513,675.76626"
         style="fill:#3e4a9b;fill-opacity:1;fill-rule:nonzero;stroke:none"
         id="path2424" />
      <path
         d="M 389.31638,694.34776 C 388.78263,690.20076 385.28388,686.986 380.99263,686.986 C 376.84138,686.986 373.41388,689.98838 372.71013,693.93613 C 370.44138,693.89276 368.18263,693.80438 365.89638,693.80438 C 294.45638,693.80438 228.01888,707.70563 172.57937,731.56213 L 172.57937,739.06063 C 229.64388,713.62513 298.63013,698.57238 373.02638,698.05288 C 374.13638,701.40738 377.26138,703.84488 380.99263,703.84488 C 384.65888,703.84488 387.74638,701.49038 388.90888,698.22088 C 436.39513,699.22176 457.25763,701.93813 490.07638,710.25213 C 458.83138,700.81413 437.00888,696.39463 389.31638,694.34776 z M 381.05263,701.712 C 377.53263,701.712 374.68013,698.861 374.68013,695.34388 C 374.68013,691.82576 377.53263,688.97426 381.05263,688.97426 C 384.56763,688.97426 387.42013,691.82576 387.42013,695.34388 C 387.42013,698.861 384.56763,701.712 381.05263,701.712"
         style="fill:#3e4a9b;fill-opacity:1;fill-rule:nonzero;stroke:none"
         id="path2426" />
      <path
         d="M 289.305,726.36288 L 277.616,726.28963 C 277.35238,722.69401 274.24388,721.90638 271.71513,721.90638 C 270.20138,721.90638 268.70188,722.09926 267.87426,722.72763 C 267.33138,723.14276 266.99438,723.70475 266.991,724.3365 C 266.98763,724.99325 267.31475,725.61825 267.96363,726.20963 C 268.61401,726.80288 270.16238,727.55438 272.61063,728.46401 C 275.70875,729.65388 278.22688,730.78575 280.16926,731.85363 C 282.10813,732.92051 283.69213,734.31213 284.92513,736.01526 C 286.15413,737.71938 286.77275,739.84676 286.77275,742.39313 C 286.77275,744.79213 286.10138,747.02599 284.76351,749.09875 C 283.42513,751.17004 281.49688,752.87414 278.97825,754.21203 C 276.46025,755.55383 272.88113,756.22131 268.2415,756.22131 C 261.70826,756.22131 257.074,754.97131 254.34163,752.46301 C 251.60863,749.96301 250.24288,746.74523 250.24288,742.81851 L 250.24788,742.09776 L 262.44263,742.09776 C 262.44263,744.64413 262.82888,745.39269 263.9495,746.44397 C 265.06963,747.49328 266.61838,748.0172 268.60325,748.0172 C 270.60188,748.0172 272.12576,747.58117 273.17263,746.70617 C 274.21951,745.83216 274.74638,744.83513 274.74638,743.71788 C 274.74638,742.88201 274.4095,742.10901 273.73463,741.3995 C 273.06038,740.69051 271.40263,739.86151 268.76838,738.91326 C 262.75513,736.71501 258.9495,734.69451 257.35525,732.85701 C 255.7605,731.02501 254.96313,728.81951 254.96313,726.23351 C 254.96313,723.87263 255.62375,721.72476 256.94613,719.77838 C 258.26688,717.83263 260.18826,716.31801 262.70925,715.24038 C 265.23126,714.16563 268.25563,713.62513 271.7815,713.62513 C 282.93676,713.62513 288.58813,718.25401 289.305,726.36288"
         style="fill:#cf324d;fill-opacity:1;fill-rule:nonzero;stroke:none"
         id="path2428" />
      <path
         d="M 332.13638,714.29901 L 330.24763,723.17838 L 309.30638,723.17838 L 307.91638,729.69688 L 324.48388,729.736 L 322.62888,738.05288 L 306.14638,738.01326 L 304.41763,746.10559 L 327.07888,746.10559 L 325.05263,755.54651 L 289.65213,755.54651 L 298.44763,714.29901 L 332.13638,714.29901"
         style="fill:#cf324d;fill-opacity:1;fill-rule:nonzero;stroke:none"
         id="path2430" />
      <path
         d="M 374.43888,729.16951 L 363.00263,729.13538 L 363.00263,728.91713 C 363.00263,726.93563 362.39763,725.46838 361.19763,724.50888 C 359.99638,723.55038 358.66763,723.06601 357.22138,723.06601 C 355.34513,723.06601 353.51263,723.7545 351.72763,725.12413 C 349.94013,726.49376 348.50763,728.587 347.42888,731.40338 C 346.34638,734.21688 345.80638,736.95613 345.80638,739.62213 C 345.80638,741.65588 346.35763,743.35901 347.46388,744.73013 C 348.56638,746.09973 350.17888,746.78039 352.29763,746.78039 C 354.24263,746.78039 355.88638,746.16907 357.22888,744.93273 C 358.56638,743.70326 359.74263,741.80776 360.75388,739.25013 L 373.09013,739.21101 C 372.33763,743.40876 369.04388,748.95081 365.49638,751.85852 C 361.94888,754.76769 357.32638,756.22131 351.63638,756.22131 C 345.70138,756.22131 341.17013,754.64074 338.03388,751.47278 C 334.89763,748.31115 333.33138,744.09726 333.33138,738.82925 C 333.33138,734.80338 334.26513,730.75738 336.12638,726.69001 C 337.99513,722.63051 340.71388,719.43463 344.29638,717.10901 C 347.87513,714.79063 352.17013,713.62513 357.17263,713.62513 C 362.36263,713.62513 366.46513,714.92401 369.47638,717.52313 C 372.48513,720.12176 374.43888,724.97613 374.43888,729.16951"
         style="fill:#cf324d;fill-opacity:1;fill-rule:nonzero;stroke:none"
         id="path2432" />
      <path
         d="M 422.91138,714.29901 L 417.61138,739.18663 C 416.35388,744.98841 414.11638,749.27844 410.89638,752.05529 C 407.67013,754.83362 402.88888,756.22131 396.53888,756.22131 C 393.01513,756.22131 390.20138,755.87707 388.09388,755.18518 C 385.98638,754.49279 384.20888,753.45422 382.77013,752.06994 C 381.32638,750.68567 380.27513,749.10608 379.62263,747.33508 C 378.96638,745.56848 378.63888,743.67488 378.63888,741.65251 C 378.63888,739.08901 378.89138,736.63051 379.39763,734.28426 L 383.64013,714.29901 L 396.42513,714.29901 L 391.47388,737.52163 C 391.24763,738.6105 391.13513,739.76275 391.13513,740.98501 C 391.13513,744.25163 393.06013,745.88098 396.91638,745.88098 C 398.95388,745.88098 400.69013,745.26331 402.12138,744.02701 C 403.54888,742.78675 404.64013,740.38388 405.38888,736.81988 L 410.08138,714.29901 L 422.91138,714.29901"
         style="fill:#cf324d;fill-opacity:1;fill-rule:nonzero;stroke:none"
         id="path2434" />
      <path
         d="M 430.91513,714.29901 L 454.32888,714.29901 C 458.37388,714.29901 461.33138,715.36001 463.20138,717.4815 C 465.07638,719.60263 466.01138,722.15538 466.01138,725.13775 C 466.01138,728.36538 465.01888,731.18613 463.03888,733.59588 C 461.05888,736.01188 459.11638,736.72813 454.71013,736.70376 C 465.57888,736.75988 459.87763,746.01769 460.75263,754.38782 C 460.87138,755.51233 461.20888,755.20227 461.26388,755.56848 L 448.84513,755.58557 C 447.58763,754.68713 448.48763,749.96546 449.12763,745.97619 C 449.74138,742.1295 446.99138,740.75063 442.04513,740.95663 C 439.88888,740.85163 438.07763,741.12513 438.07763,741.12513 L 434.95888,755.54651 L 422.17638,755.54651 L 430.91513,714.29901 z M 440.17513,730.93376 L 442.57388,730.93376 C 446.59013,730.93376 449.18638,730.75063 450.36638,730.37801 C 451.54638,730.00601 452.43138,729.38101 453.00763,728.50301 C 453.58388,727.62076 453.87263,726.7745 453.87263,725.95663 C 453.87263,724.92001 453.52763,724.10113 452.84013,723.50788 C 452.15013,722.91463 450.65513,722.61588 448.35138,722.61588 L 441.93763,722.61588 L 440.17513,730.93376"
         style="fill:#cf324d;fill-opacity:1;fill-rule:nonzero;stroke:none"
         id="path2436" />
      <path
         d="M 488.65013,714.29901 L 479.82763,755.54651 L 466.92388,755.54651 L 475.74638,714.29901 L 488.65013,714.29901"
         style="fill:#cf324d;fill-opacity:1;fill-rule:nonzero;stroke:none"
         id="path2438" />
      <path
         d="M 533.02513,714.29901 L 530.92388,724.41363 L 517.57638,724.41363 L 510.89013,755.54651 L 498.07013,755.54651 L 504.75763,724.41363 L 492.00138,724.41363 L 494.13638,714.29901 L 533.02513,714.29901"
         style="fill:#cf324d;fill-opacity:1;fill-rule:nonzero;stroke:none"
         id="path2440" />
      <path
         d="M 333.09888,707.02838 L 299.27138,711.37663 L 332.50013,711.37663 L 333.09888,707.02838"
         style="fill:#cf324d;fill-opacity:1;fill-rule:nonzero;stroke:none"
         id="path2442" />
      <path
         d="M 572.20638,714.29901 L 570.31763,723.17838 L 549.37763,723.17838 L 547.98763,729.69688 L 564.55388,729.736 L 562.69888,738.05288 L 546.21638,738.01326 L 544.48888,746.10559 L 567.15013,746.10559 L 565.12388,755.54651 L 529.72263,755.54651 L 538.51888,714.29901 L 572.20638,714.29901"
         style="fill:#cf324d;fill-opacity:1;fill-rule:nonzero;stroke:none"
         id="path2444" />
      <path
         d="M 573.46763,707.02838 L 539.64138,711.37663 L 572.87138,711.37663 L 573.46763,707.02838"
         style="fill:#cf324d;fill-opacity:1;fill-rule:nonzero;stroke:none"
         id="path2446" />
    </g>
  </g>
</svg>
