<?xml version="1.0" encoding="UTF-8" standalone="no"?>
<!-- Created with Inkscape (http://www.inkscape.org/) -->
<svg
   xmlns:dc="http://purl.org/dc/elements/1.1/"
   xmlns:cc="http://creativecommons.org/ns#"
   xmlns:rdf="http://www.w3.org/1999/02/22-rdf-syntax-ns#"
   xmlns:svg="http://www.w3.org/2000/svg"
   xmlns="http://www.w3.org/2000/svg"
   xmlns:sodipodi="http://sodipodi.sourceforge.net/DTD/sodipodi-0.dtd"
   xmlns:inkscape="http://www.inkscape.org/namespaces/inkscape"
   id="svg2408"
   sodipodi:version="0.32"
   inkscape:version="0.46"
   width="73.038193"
   height="74.236252"
   xml:space="preserve"
   sodipodi:docname="logo-cnrs-old-small.svg"
   version="1.0"
   inkscape:output_extension="org.inkscape.output.svg.inkscape"><metadata
     id="metadata2413"><rdf:RDF><cc:Work
         rdf:about=""><dc:format>image/svg+xml</dc:format><dc:type
           rdf:resource="" /><dc:title /><dc:date /><dc:creator><cc:Agent><dc:title /></cc:Agent></dc:creator><dc:rights><cc:Agent><dc:title /></cc:Agent></dc:rights><dc:publisher><cc:Agent><dc:title /></cc:Agent></dc:publisher><dc:identifier /><dc:source /><dc:relation /><dc:language /><dc:subject><rdf:Bag /></dc:subject><dc:coverage /><dc:description /><dc:contributor><cc:Agent><dc:title /></cc:Agent></dc:contributor><cc:license
           rdf:resource="" /></cc:Work></rdf:RDF></metadata><defs
     id="defs2411"><inkscape:perspective
       sodipodi:type="inkscape:persp3d"
       id="perspective2415"
       inkscape:vp_x="-50 : 600 : 1"
       inkscape:vp_y="0 : 1000 : 0"
       inkscape:vp_z="700 : 600 : 1"
       inkscape:persp3d-origin="300 : 400 : 1" /><clipPath
       clipPathUnits="userSpaceOnUse"
       id="clipPath2425"><path
         d="M -0.42499,566.465 L 396.42501,566.465 L 396.42501,-0.465 L -0.42499,-0.465 L -0.42499,566.465 z"
         id="path2427" /></clipPath><clipPath
       clipPathUnits="userSpaceOnUse"
       id="clipPath2431"><path
         d="M 0,566.94 L 396.84,566.94 L 396.84,0 L 0,0 L 0,566.94 z"
         id="path2433" /></clipPath><clipPath
       clipPathUnits="userSpaceOnUse"
       id="clipPath2445"><path
         d="M 25.087,84.651 L 25.087,25.096 L 150.489,25.096 L 150.489,84.651"
         id="path2447" /></clipPath><clipPath
       clipPathUnits="userSpaceOnUse"
       id="clipPath2459"><path
         d="M 25.087,84.651 L 25.087,25.096 L 150.489,25.096 L 150.489,84.651"
         id="path2461" /></clipPath><clipPath
       clipPathUnits="userSpaceOnUse"
       id="clipPath2479"><path
         d="M 25.087,84.651 L 25.087,25.096 L 150.489,25.096 L 150.489,84.651"
         id="path2481" /></clipPath><clipPath
       clipPathUnits="userSpaceOnUse"
       id="clipPath2557"><path
         d="M 25.087,84.651 L 25.087,25.096 L 150.489,25.096 L 150.489,84.651"
         id="path2559" /></clipPath><clipPath
       clipPathUnits="userSpaceOnUse"
       id="clipPath2667"><path
         d="M 79.712,372.15 C 79.712,357.079 67.481,344.848 52.41,344.848 C 37.339,344.848 25.108,357.079 25.108,372.15 C 25.108,387.221 37.339,399.452 52.41,399.452 C 67.481,399.452 79.712,387.221 79.712,372.15"
         clip-rule="evenodd"
         id="path2669" /></clipPath><clipPath
       clipPathUnits="userSpaceOnUse"
       id="clipPath2679"><path
         d="M 152.492,372.15 C 152.492,357.079 140.261,344.848 125.19,344.848 C 110.119,344.848 97.888,357.079 97.888,372.15 C 97.888,387.221 110.119,399.452 125.19,399.452 C 140.261,399.452 152.492,387.221 152.492,372.15"
         clip-rule="evenodd"
         id="path2681" /></clipPath><clipPath
       clipPathUnits="userSpaceOnUse"
       id="clipPath2691"><path
         d="M 225.302,372.15 C 225.302,357.079 213.071,344.848 198,344.848 C 182.929,344.848 170.698,357.079 170.698,372.15 C 170.698,387.221 182.929,399.452 198,399.452 C 213.071,399.452 225.302,387.221 225.302,372.15"
         clip-rule="evenodd"
         id="path2693" /></clipPath><clipPath
       clipPathUnits="userSpaceOnUse"
       id="clipPath2703"><path
         d="M 298.113,372.15 C 298.113,357.079 285.881,344.848 270.81,344.848 C 255.739,344.848 243.508,357.079 243.508,372.15 C 243.508,387.221 255.739,399.452 270.81,399.452 C 285.881,399.452 298.113,387.221 298.113,372.15"
         clip-rule="evenodd"
         id="path2705" /></clipPath><clipPath
       clipPathUnits="userSpaceOnUse"
       id="clipPath2715"><path
         d="M 370.892,372.15 C 370.892,357.079 358.661,344.848 343.59,344.848 C 328.519,344.848 316.288,357.079 316.288,372.15 C 316.288,387.221 328.519,399.452 343.59,399.452 C 358.661,399.452 370.892,387.221 370.892,372.15"
         clip-rule="evenodd"
         id="path2717" /></clipPath><clipPath
       clipPathUnits="userSpaceOnUse"
       id="clipPath2727"><path
         d="M 230.247,200.343 L 230.247,-104.818 L 536.797,-104.818 L 536.797,200.343"
         id="path2729" /></clipPath><clipPath
       clipPathUnits="userSpaceOnUse"
       id="clipPath2733"><path
         d="M 172.488,196.904 L 422.949,196.904 L 422.949,-30.47 L 172.488,-30.47 L 172.488,196.904 z"
         clip-rule="evenodd"
         id="path2735" /></clipPath><clipPath
       clipPathUnits="userSpaceOnUse"
       id="clipPath2739"><path
         d="M -0.42499,566.465 L 396.42501,566.465 L 396.42501,-0.465 L -0.42499,-0.465 L -0.42499,566.465 z"
         id="path2741" /></clipPath><clipPath
       clipPathUnits="userSpaceOnUse"
       id="clipPath2745"><path
         d="M 0,566.94 L 396.84,566.94 L 396.84,0 L 0,0 L 0,566.94 z"
         id="path2747" /></clipPath><clipPath
       clipPathUnits="userSpaceOnUse"
       id="clipPath2757"><path
         d="M -0.42499,566.465 L 396.42501,566.465 L 396.42501,-0.465 L -0.42499,-0.465 L -0.42499,566.465 z"
         id="path2759" /></clipPath><clipPath
       clipPathUnits="userSpaceOnUse"
       id="clipPath2763"><path
         d="M 0,566.94 L 396.84,566.94 L 396.84,0 L 0,0 L 0,566.94 z"
         id="path2765" /></clipPath></defs><sodipodi:namedview
     inkscape:window-height="977"
     inkscape:window-width="1400"
     inkscape:pageshadow="2"
     inkscape:pageopacity="0.0"
     guidetolerance="10.0"
     gridtolerance="10.0"
     objecttolerance="10.0"
     borderopacity="1.0"
     bordercolor="#666666"
     pagecolor="#ffffff"
     id="base"
     showgrid="false"
     units="cm"
     inkscape:zoom="10.183704"
     inkscape:cx="36.519096"
     inkscape:cy="37.118126"
     inkscape:window-x="0"
     inkscape:window-y="25"
     inkscape:current-layer="g2417" /><g
     id="g2417"
     inkscape:groupmode="layer"
     inkscape:label="CNRS-metiers-fiches"
     transform="matrix(1.25,0,0,-1.25,-34.529603,670.95171)"><path
       d="M 67.469238,477.37237 L 72.349238,493.71137 L 69.567238,493.71137 L 64.688238,477.37237 L 67.469238,477.37237"
       style="fill:#000000;fill-opacity:1;fill-rule:nonzero;stroke:none"
       id="path2453" /><path
       d="M 79.536238,489.51737 L 86.054238,511.26037 L 83.272238,511.26037 L 76.754238,489.51737 L 79.536238,489.51737"
       style="fill:#000000;fill-opacity:1;fill-rule:nonzero;stroke:none"
       id="path2465" /><path
       d="M 61.762238,486.32337 L 63.963238,493.72837 L 61.228238,493.72837 L 59.026238,486.32337 L 61.762238,486.32337"
       style="fill:#000000;fill-opacity:1;fill-rule:nonzero;stroke:none"
       id="path2469" /><path
       d="M 80.292238,520.42337 L 85.171238,536.76137 L 82.390238,536.76137 L 77.511238,520.42337 L 80.292238,520.42337"
       style="fill:#000000;fill-opacity:1;fill-rule:nonzero;stroke:none"
       id="path2473" /><path
       d="M 71.428238,518.69737 L 74.507238,528.99937 L 71.771238,528.99937 L 68.692238,518.69737 L 71.428238,518.69737"
       style="fill:#000000;fill-opacity:1;fill-rule:nonzero;stroke:none"
       id="path2485" /><g
       id="g3633"
       style="fill:#999999;fill-opacity:1"><g
         transform="translate(2.4542382,452.19337)"
         style="fill:#999999;fill-opacity:1;stroke:none"
         id="g2455"><g
           style="fill:#999999;fill-opacity:1;stroke:none"
           clip-path="url(#clipPath2459)"
           id="g2457"><path
             id="path2463"
             style="fill:#999999;fill-opacity:1;stroke:none;stroke-width:0.16599999;stroke-linecap:butt;stroke-linejoin:miter;stroke-miterlimit:4;stroke-dasharray:none;stroke-opacity:1"
             d="M 65.015,25.179 L 69.895,41.518 L 67.113,41.518 L 62.234,25.179 L 65.015,25.179 z" /></g></g><path
         id="path2467"
         style="fill:#999999;fill-opacity:1;stroke:none;stroke-width:0.16599999;stroke-linecap:butt;stroke-linejoin:miter;stroke-miterlimit:4;stroke-dasharray:none;stroke-opacity:1"
         d="M 79.536238,489.51737 L 86.054238,511.26037 L 83.272238,511.26037 L 76.754238,489.51737 L 79.536238,489.51737 z" /><path
         id="path2471"
         style="fill:#999999;fill-opacity:1;stroke:none;stroke-width:0.16599999;stroke-linecap:butt;stroke-linejoin:miter;stroke-miterlimit:4;stroke-dasharray:none;stroke-opacity:1"
         d="M 61.762238,486.32337 L 63.963238,493.72837 L 61.228238,493.72837 L 59.026238,486.32337 L 61.762238,486.32337 z" /><g
         transform="translate(2.4542382,452.19337)"
         style="fill:#999999;fill-opacity:1;stroke:none"
         id="g2475"><g
           style="fill:#999999;fill-opacity:1;stroke:none"
           clip-path="url(#clipPath2479)"
           id="g2477"><path
             id="path2483"
             style="fill:#999999;fill-opacity:1;stroke:none;stroke-width:0.16599999;stroke-linecap:butt;stroke-linejoin:miter;stroke-miterlimit:4;stroke-dasharray:none;stroke-opacity:1"
             d="M 77.838,68.23 L 82.717,84.568 L 79.936,84.568 L 75.057,68.23 L 77.838,68.23 z" /></g></g><path
         id="path2487"
         style="fill:#999999;fill-opacity:1;stroke:none;stroke-width:0.16599999;stroke-linecap:butt;stroke-linejoin:miter;stroke-miterlimit:4;stroke-dasharray:none;stroke-opacity:1"
         d="M 71.428238,518.69737 L 74.507238,528.99937 L 71.771238,528.99937 L 68.692238,518.69737 L 71.428238,518.69737 z" /></g><path
       d="M 52.560238,503.95437 L 58.152238,503.95437 C 65.856238,503.95437 65.856238,515.10337 58.152238,515.10337 C 54.672238,515.10337 52.560238,515.10337 52.560238,515.10337 L 52.554238,510.72337 C 52.554238,510.72337 56.450238,510.72337 58.146238,510.72337 C 60.316238,510.72337 60.316238,508.29437 58.146238,508.29437 C 55.791238,508.29437 52.554238,508.29437 52.554238,508.29437 L 52.560238,503.95437"
       style="fill:#000000;fill-opacity:1;fill-rule:nonzero;stroke:none"
       id="path2489" /><path
       d="M 62.971238,501.36937 L 59.239238,507.76037 L 55.417238,505.65137 L 58.761238,500.03637 C 61.216238,495.92137 61.615238,495.60937 65.371238,495.60937 L 70.253238,495.60937 C 73.704238,495.60937 77.005238,497.92937 77.005238,501.73837 C 77.005238,507.39337 70.842238,507.67037 70.842238,510.77537 C 70.842238,512.10237 71.996238,512.85337 73.104238,512.85337 C 74.247238,512.85337 77.268238,512.85337 77.268238,512.85337 L 77.268238,511.08737 L 81.980238,515.05737 L 77.268238,519.07337 L 77.268238,517.28537 L 73.231238,517.28537 C 69.734238,517.28537 66.399238,514.78037 66.399238,510.67137 C 66.399238,504.85437 72.396238,504.75037 72.396238,502.07237 C 72.396238,501.05737 71.858238,499.93737 70.242238,499.93737 C 67.299238,499.93737 67.241238,499.93737 65.856238,499.93737 C 63.386238,499.93737 63.894238,499.86837 62.971238,501.36937"
       style="fill:#000000;fill-opacity:1;fill-rule:nonzero;stroke:none"
       id="path2493" /><g
       id="g3624"
       style="fill:#003366;fill-opacity:1"><path
         id="path2491"
         style="fill:#003366;fill-opacity:1;stroke:none;stroke-width:0.16599999;stroke-linecap:butt;stroke-linejoin:miter;stroke-miterlimit:4;stroke-dasharray:none;stroke-opacity:1"
         d="M 52.560238,503.95437 L 58.152238,503.95437 C 65.856238,503.95437 65.856238,515.10337 58.152238,515.10337 C 54.672238,515.10337 52.560238,515.10337 52.560238,515.10337 L 52.554238,510.72337 C 52.554238,510.72337 56.450238,510.72337 58.146238,510.72337 C 60.316238,510.72337 60.316238,508.29437 58.146238,508.29437 C 55.791238,508.29437 52.554238,508.29437 52.554238,508.29437 L 52.560238,503.95437 z" /><g
         transform="translate(2.4542382,452.19337)"
         style="fill:#003366;fill-opacity:1;stroke:none"
         id="g2441"><g
           style="fill:#003366;fill-opacity:1;stroke:none"
           clip-path="url(#clipPath2445)"
           id="g2443"><path
             id="path2449"
             style="fill:#003366;fill-opacity:1;fill-rule:nonzero;stroke:none"
             d="M 49.52,59.29 L 43.562,69.385 C 41.83,64.053 38.472,61.248 33.971,61.248 C 28.408,61.248 24.889,66.227 25.187,71.59 C 25.43,75.948 28.373,81.192 36.429,80.915 L 36.429,82.716 L 41.128,78.71 L 36.429,74.821 L 36.429,76.458 C 32.851,76.714 29.862,75.152 29.619,71.59 C 29.39,68.211 31.408,65.646 33.971,65.646 C 37.872,65.646 39.294,69.869 39.889,71.563 L 41.519,76.458 L 44.427,76.458 L 51.065,65.172 L 49.52,59.29" /><path
             id="path2451"
             style="fill:#003366;fill-opacity:1;stroke:none;stroke-width:0.16599999;stroke-linecap:butt;stroke-linejoin:miter;stroke-miterlimit:4;stroke-dasharray:none;stroke-opacity:1"
             d="M 49.52,59.29 L 43.562,69.385 C 41.83,64.053 38.472,61.248 33.971,61.248 C 28.408,61.248 24.889,66.227 25.187,71.59 C 25.43,75.948 28.373,81.192 36.429,80.915 L 36.429,82.716 L 41.128,78.71 L 36.429,74.821 L 36.429,76.458 C 32.851,76.714 29.862,75.152 29.619,71.59 C 29.39,68.211 31.408,65.646 33.971,65.646 C 37.872,65.646 39.294,69.869 39.889,71.563 L 41.519,76.458 L 44.427,76.458 L 51.065,65.172 L 49.52,59.29 z" /></g></g><path
         id="path2495"
         style="fill:#003366;fill-opacity:1;stroke:none;stroke-width:0.16599999;stroke-linecap:butt;stroke-linejoin:miter;stroke-miterlimit:4;stroke-dasharray:none;stroke-opacity:1"
         d="M 62.971238,501.36937 L 59.239238,507.76037 L 55.417238,505.65137 L 58.761238,500.03637 C 61.216238,495.92137 61.615238,495.60937 65.371238,495.60937 L 70.253238,495.60937 C 73.704238,495.60937 77.005238,497.92937 77.005238,501.73837 C 77.005238,507.39337 70.842238,507.67037 70.842238,510.77537 C 70.842238,512.10237 71.996238,512.85337 73.104238,512.85337 C 74.247238,512.85337 77.268238,512.85337 77.268238,512.85337 L 77.268238,511.08737 L 81.980238,515.05737 L 77.268238,519.07337 L 77.268238,517.28537 L 73.231238,517.28537 C 69.734238,517.28537 66.399238,514.78037 66.399238,510.67137 C 66.399238,504.85437 72.396238,504.75037 72.396238,502.07237 C 72.396238,501.05737 71.858238,499.93737 70.242238,499.93737 C 67.299238,499.93737 67.241238,499.93737 65.856238,499.93737 C 63.386238,499.93737 63.894238,499.86837 62.971238,501.36937 z" /><path
         id="path2497"
         style="fill:#003366;fill-opacity:1;fill-rule:nonzero;stroke:none"
         d="M 47.389238,495.24937 L 53.126238,500.00937 L 51.342238,500.03737 L 59.923238,528.66037 L 61.661238,528.66037 L 58.706238,533.29337 L 53.010238,528.66037 L 54.880238,528.66037 L 46.299238,500.00937 L 44.533238,500.00937 L 47.389238,495.24937" /></g></g></svg>