<?xml version="1.0" encoding="UTF-8" standalone="no"?>
<!-- Created with Inkscape (http://www.inkscape.org/) -->
<svg
   xmlns:dc="http://purl.org/dc/elements/1.1/"
   xmlns:cc="http://creativecommons.org/ns#"
   xmlns:rdf="http://www.w3.org/1999/02/22-rdf-syntax-ns#"
   xmlns:svg="http://www.w3.org/2000/svg"
   xmlns="http://www.w3.org/2000/svg"
   xmlns:sodipodi="http://sodipodi.sourceforge.net/DTD/sodipodi-0.dtd"
   xmlns:inkscape="http://www.inkscape.org/namespaces/inkscape"
   id="svg2408"
   sodipodi:version="0.32"
   inkscape:version="0.46dev+devel"
   width="156.50694"
   height="74.236252"
   xml:space="preserve"
   sodipodi:docname="CNRS_logo.svg"
   version="1.0"
   inkscape:output_extension="org.inkscape.output.svg.inkscape"><metadata
     id="metadata2413"><rdf:RDF><cc:Work
         rdf:about=""><dc:format></dc:format><dc:type
           rdf:resource="" /><dc:title></dc:title><dc:date></dc:date><dc:creator><cc:Agent><dc:title></dc:title></cc:Agent></dc:creator><dc:rights><cc:Agent><dc:title></dc:title></cc:Agent></dc:rights><dc:publisher><cc:Agent><dc:title></dc:title></cc:Agent></dc:publisher><dc:identifier></dc:identifier><dc:source></dc:source><dc:relation></dc:relation><dc:language></dc:language><dc:subject><rdf:Bag /></dc:subject><dc:coverage></dc:coverage><dc:description></dc:description><dc:contributor><cc:Agent><dc:title></dc:title></cc:Agent></dc:contributor><cc:license
           rdf:resource="" /></cc:Work></rdf:RDF></metadata><defs
     id="defs2411"><inkscape:perspective
       sodipodi:type="inkscape:persp3d"
       id="perspective2415"
       inkscape:vp_x="-50 : 600 : 1"
       inkscape:vp_y="0 : 1000 : 0"
       inkscape:vp_z="700 : 600 : 1"
       inkscape:persp3d-origin="300 : 400 : 1" /><clipPath
       clipPathUnits="userSpaceOnUse"
       id="clipPath2425"><path
         d="M -0.42499,566.465 L 396.42501,566.465 L 396.42501,-0.465 L -0.42499,-0.465 L -0.42499,566.465 z"
         id="path2427" /></clipPath><clipPath
       clipPathUnits="userSpaceOnUse"
       id="clipPath2431"><path
         d="M 0,566.94 L 396.84,566.94 L 396.84,0 L 0,0 L 0,566.94 z"
         id="path2433" /></clipPath><clipPath
       clipPathUnits="userSpaceOnUse"
       id="clipPath2445"><path
         d="M 25.087,84.651 L 25.087,25.096 L 150.489,25.096 L 150.489,84.651"
         id="path2447" /></clipPath><clipPath
       clipPathUnits="userSpaceOnUse"
       id="clipPath2459"><path
         d="M 25.087,84.651 L 25.087,25.096 L 150.489,25.096 L 150.489,84.651"
         id="path2461" /></clipPath><clipPath
       clipPathUnits="userSpaceOnUse"
       id="clipPath2479"><path
         d="M 25.087,84.651 L 25.087,25.096 L 150.489,25.096 L 150.489,84.651"
         id="path2481" /></clipPath><clipPath
       clipPathUnits="userSpaceOnUse"
       id="clipPath2557"><path
         d="M 25.087,84.651 L 25.087,25.096 L 150.489,25.096 L 150.489,84.651"
         id="path2559" /></clipPath><clipPath
       clipPathUnits="userSpaceOnUse"
       id="clipPath2667"><path
         d="M 79.712,372.15 C 79.712,357.079 67.481,344.848 52.41,344.848 C 37.339,344.848 25.108,357.079 25.108,372.15 C 25.108,387.221 37.339,399.452 52.41,399.452 C 67.481,399.452 79.712,387.221 79.712,372.15"
         clip-rule="evenodd"
         id="path2669" /></clipPath><clipPath
       clipPathUnits="userSpaceOnUse"
       id="clipPath2679"><path
         d="M 152.492,372.15 C 152.492,357.079 140.261,344.848 125.19,344.848 C 110.119,344.848 97.888,357.079 97.888,372.15 C 97.888,387.221 110.119,399.452 125.19,399.452 C 140.261,399.452 152.492,387.221 152.492,372.15"
         clip-rule="evenodd"
         id="path2681" /></clipPath><clipPath
       clipPathUnits="userSpaceOnUse"
       id="clipPath2691"><path
         d="M 225.302,372.15 C 225.302,357.079 213.071,344.848 198,344.848 C 182.929,344.848 170.698,357.079 170.698,372.15 C 170.698,387.221 182.929,399.452 198,399.452 C 213.071,399.452 225.302,387.221 225.302,372.15"
         clip-rule="evenodd"
         id="path2693" /></clipPath><clipPath
       clipPathUnits="userSpaceOnUse"
       id="clipPath2703"><path
         d="M 298.113,372.15 C 298.113,357.079 285.881,344.848 270.81,344.848 C 255.739,344.848 243.508,357.079 243.508,372.15 C 243.508,387.221 255.739,399.452 270.81,399.452 C 285.881,399.452 298.113,387.221 298.113,372.15"
         clip-rule="evenodd"
         id="path2705" /></clipPath><clipPath
       clipPathUnits="userSpaceOnUse"
       id="clipPath2715"><path
         d="M 370.892,372.15 C 370.892,357.079 358.661,344.848 343.59,344.848 C 328.519,344.848 316.288,357.079 316.288,372.15 C 316.288,387.221 328.519,399.452 343.59,399.452 C 358.661,399.452 370.892,387.221 370.892,372.15"
         clip-rule="evenodd"
         id="path2717" /></clipPath><clipPath
       clipPathUnits="userSpaceOnUse"
       id="clipPath2727"><path
         d="M 230.247,200.343 L 230.247,-104.818 L 536.797,-104.818 L 536.797,200.343"
         id="path2729" /></clipPath><clipPath
       clipPathUnits="userSpaceOnUse"
       id="clipPath2733"><path
         d="M 172.488,196.904 L 422.949,196.904 L 422.949,-30.47 L 172.488,-30.47 L 172.488,196.904 z"
         clip-rule="evenodd"
         id="path2735" /></clipPath><clipPath
       clipPathUnits="userSpaceOnUse"
       id="clipPath2739"><path
         d="M -0.42499,566.465 L 396.42501,566.465 L 396.42501,-0.465 L -0.42499,-0.465 L -0.42499,566.465 z"
         id="path2741" /></clipPath><clipPath
       clipPathUnits="userSpaceOnUse"
       id="clipPath2745"><path
         d="M 0,566.94 L 396.84,566.94 L 396.84,0 L 0,0 L 0,566.94 z"
         id="path2747" /></clipPath><clipPath
       clipPathUnits="userSpaceOnUse"
       id="clipPath2757"><path
         d="M -0.42499,566.465 L 396.42501,566.465 L 396.42501,-0.465 L -0.42499,-0.465 L -0.42499,566.465 z"
         id="path2759" /></clipPath><clipPath
       clipPathUnits="userSpaceOnUse"
       id="clipPath2763"><path
         d="M 0,566.94 L 396.84,566.94 L 396.84,0 L 0,0 L 0,566.94 z"
         id="path2765" /></clipPath></defs><sodipodi:namedview
     inkscape:window-height="781"
     inkscape:window-width="1280"
     inkscape:pageshadow="2"
     inkscape:pageopacity="0.0"
     guidetolerance="10.0"
     gridtolerance="10.0"
     objecttolerance="10.0"
     borderopacity="1.0"
     bordercolor="#666666"
     pagecolor="#ffffff"
     id="base"
     showgrid="false"
     units="cm"
     inkscape:zoom="5.2154679"
     inkscape:cx="71.501734"
     inkscape:cy="36.268449"
     inkscape:window-x="-4"
     inkscape:window-y="-4"
     inkscape:current-layer="g2417" /><g
     id="g2417"
     inkscape:groupmode="layer"
     inkscape:label="CNRS-metiers-fiches"
     transform="matrix(1.25,0,0,-1.25,-34.529603,670.95171)"><path
       d="M 67.469238,477.37237 L 72.349238,493.71137 L 69.567238,493.71137 L 64.688238,477.37237 L 67.469238,477.37237"
       style="fill:#000000;fill-opacity:1;fill-rule:nonzero;stroke:none"
       id="path2453" /><path
       d="M 79.536238,489.51737 L 86.054238,511.26037 L 83.272238,511.26037 L 76.754238,489.51737 L 79.536238,489.51737"
       style="fill:#000000;fill-opacity:1;fill-rule:nonzero;stroke:none"
       id="path2465" /><path
       d="M 61.762238,486.32337 L 63.963238,493.72837 L 61.228238,493.72837 L 59.026238,486.32337 L 61.762238,486.32337"
       style="fill:#000000;fill-opacity:1;fill-rule:nonzero;stroke:none"
       id="path2469" /><path
       d="M 80.292238,520.42337 L 85.171238,536.76137 L 82.390238,536.76137 L 77.511238,520.42337 L 80.292238,520.42337"
       style="fill:#000000;fill-opacity:1;fill-rule:nonzero;stroke:none"
       id="path2473" /><path
       d="M 71.428238,518.69737 L 74.507238,528.99937 L 71.771238,528.99937 L 68.692238,518.69737 L 71.428238,518.69737"
       style="fill:#000000;fill-opacity:1;fill-rule:nonzero;stroke:none"
       id="path2485" /><g
       id="g3633"
       style="fill:#999999;fill-opacity:1"><g
         transform="translate(2.4542382,452.19337)"
         style="fill:#999999;stroke:none;fill-opacity:1"
         id="g2455"><g
           style="fill:#999999;stroke:none;fill-opacity:1"
           clip-path="url(#clipPath2459)"
           id="g2457"><path
             id="path2463"
             style="fill:#999999;stroke:none;stroke-width:0.16599998999999999;stroke-linecap:butt;stroke-linejoin:miter;stroke-miterlimit:4;stroke-dasharray:none;stroke-opacity:1;fill-opacity:1"
             d="M 65.015,25.179 L 69.895,41.518 L 67.113,41.518 L 62.234,25.179 L 65.015,25.179 z" /></g></g><path
         id="path2467"
         style="fill:#999999;stroke:none;stroke-width:0.16599998999999999;stroke-linecap:butt;stroke-linejoin:miter;stroke-miterlimit:4;stroke-dasharray:none;stroke-opacity:1;fill-opacity:1"
         d="M 79.536238,489.51737 L 86.054238,511.26037 L 83.272238,511.26037 L 76.754238,489.51737 L 79.536238,489.51737 z" /><path
         id="path2471"
         style="fill:#999999;stroke:none;stroke-width:0.16599998999999999;stroke-linecap:butt;stroke-linejoin:miter;stroke-miterlimit:4;stroke-dasharray:none;stroke-opacity:1;fill-opacity:1"
         d="M 61.762238,486.32337 L 63.963238,493.72837 L 61.228238,493.72837 L 59.026238,486.32337 L 61.762238,486.32337 z" /><g
         transform="translate(2.4542382,452.19337)"
         style="fill:#999999;stroke:none;fill-opacity:1"
         id="g2475"><g
           style="fill:#999999;stroke:none;fill-opacity:1"
           clip-path="url(#clipPath2479)"
           id="g2477"><path
             id="path2483"
             style="fill:#999999;stroke:none;stroke-width:0.16599998999999999;stroke-linecap:butt;stroke-linejoin:miter;stroke-miterlimit:4;stroke-dasharray:none;stroke-opacity:1;fill-opacity:1"
             d="M 77.838,68.23 L 82.717,84.568 L 79.936,84.568 L 75.057,68.23 L 77.838,68.23 z" /></g></g><path
         id="path2487"
         style="fill:#999999;stroke:none;stroke-width:0.16599998999999999;stroke-linecap:butt;stroke-linejoin:miter;stroke-miterlimit:4;stroke-dasharray:none;stroke-opacity:1;fill-opacity:1"
         d="M 71.428238,518.69737 L 74.507238,528.99937 L 71.771238,528.99937 L 68.692238,518.69737 L 71.428238,518.69737 z" /></g><path
       d="M 52.560238,503.95437 L 58.152238,503.95437 C 65.856238,503.95437 65.856238,515.10337 58.152238,515.10337 C 54.672238,515.10337 52.560238,515.10337 52.560238,515.10337 L 52.554238,510.72337 C 52.554238,510.72337 56.450238,510.72337 58.146238,510.72337 C 60.316238,510.72337 60.316238,508.29437 58.146238,508.29437 C 55.791238,508.29437 52.554238,508.29437 52.554238,508.29437 L 52.560238,503.95437"
       style="fill:#000000;fill-opacity:1;fill-rule:nonzero;stroke:none"
       id="path2489" /><path
       d="M 62.971238,501.36937 L 59.239238,507.76037 L 55.417238,505.65137 L 58.761238,500.03637 C 61.216238,495.92137 61.615238,495.60937 65.371238,495.60937 L 70.253238,495.60937 C 73.704238,495.60937 77.005238,497.92937 77.005238,501.73837 C 77.005238,507.39337 70.842238,507.67037 70.842238,510.77537 C 70.842238,512.10237 71.996238,512.85337 73.104238,512.85337 C 74.247238,512.85337 77.268238,512.85337 77.268238,512.85337 L 77.268238,511.08737 L 81.980238,515.05737 L 77.268238,519.07337 L 77.268238,517.28537 L 73.231238,517.28537 C 69.734238,517.28537 66.399238,514.78037 66.399238,510.67137 C 66.399238,504.85437 72.396238,504.75037 72.396238,502.07237 C 72.396238,501.05737 71.858238,499.93737 70.242238,499.93737 C 67.299238,499.93737 67.241238,499.93737 65.856238,499.93737 C 63.386238,499.93737 63.894238,499.86837 62.971238,501.36937"
       style="fill:#000000;fill-opacity:1;fill-rule:nonzero;stroke:none"
       id="path2493" /><g
       id="g3624"
       style="fill:#003366;fill-opacity:1"><path
         id="path2491"
         style="fill:#003366;stroke:none;stroke-width:0.16599998999999999;stroke-linecap:butt;stroke-linejoin:miter;stroke-miterlimit:4;stroke-dasharray:none;stroke-opacity:1;fill-opacity:1"
         d="M 52.560238,503.95437 L 58.152238,503.95437 C 65.856238,503.95437 65.856238,515.10337 58.152238,515.10337 C 54.672238,515.10337 52.560238,515.10337 52.560238,515.10337 L 52.554238,510.72337 C 52.554238,510.72337 56.450238,510.72337 58.146238,510.72337 C 60.316238,510.72337 60.316238,508.29437 58.146238,508.29437 C 55.791238,508.29437 52.554238,508.29437 52.554238,508.29437 L 52.560238,503.95437 z" /><g
         transform="translate(2.4542382,452.19337)"
         style="fill:#003366;fill-opacity:1;stroke:none"
         id="g2441"><g
           style="fill:#003366;fill-opacity:1;stroke:none"
           clip-path="url(#clipPath2445)"
           id="g2443"><path
             id="path2449"
             style="fill:#003366;fill-opacity:1;fill-rule:nonzero;stroke:none"
             d="M 49.52,59.29 L 43.562,69.385 C 41.83,64.053 38.472,61.248 33.971,61.248 C 28.408,61.248 24.889,66.227 25.187,71.59 C 25.43,75.948 28.373,81.192 36.429,80.915 L 36.429,82.716 L 41.128,78.71 L 36.429,74.821 L 36.429,76.458 C 32.851,76.714 29.862,75.152 29.619,71.59 C 29.39,68.211 31.408,65.646 33.971,65.646 C 37.872,65.646 39.294,69.869 39.889,71.563 L 41.519,76.458 L 44.427,76.458 L 51.065,65.172 L 49.52,59.29" /><path
             id="path2451"
             style="fill:#003366;fill-opacity:1;stroke:none;stroke-width:0.16599998999999999;stroke-linecap:butt;stroke-linejoin:miter;stroke-miterlimit:4;stroke-dasharray:none;stroke-opacity:1"
             d="M 49.52,59.29 L 43.562,69.385 C 41.83,64.053 38.472,61.248 33.971,61.248 C 28.408,61.248 24.889,66.227 25.187,71.59 C 25.43,75.948 28.373,81.192 36.429,80.915 L 36.429,82.716 L 41.128,78.71 L 36.429,74.821 L 36.429,76.458 C 32.851,76.714 29.862,75.152 29.619,71.59 C 29.39,68.211 31.408,65.646 33.971,65.646 C 37.872,65.646 39.294,69.869 39.889,71.563 L 41.519,76.458 L 44.427,76.458 L 51.065,65.172 L 49.52,59.29 z" /></g></g><path
         id="path2495"
         style="fill:#003366;fill-opacity:1;stroke:none;stroke-width:0.16599998999999999;stroke-linecap:butt;stroke-linejoin:miter;stroke-miterlimit:4;stroke-dasharray:none;stroke-opacity:1"
         d="M 62.971238,501.36937 L 59.239238,507.76037 L 55.417238,505.65137 L 58.761238,500.03637 C 61.216238,495.92137 61.615238,495.60937 65.371238,495.60937 L 70.253238,495.60937 C 73.704238,495.60937 77.005238,497.92937 77.005238,501.73837 C 77.005238,507.39337 70.842238,507.67037 70.842238,510.77537 C 70.842238,512.10237 71.996238,512.85337 73.104238,512.85337 C 74.247238,512.85337 77.268238,512.85337 77.268238,512.85337 L 77.268238,511.08737 L 81.980238,515.05737 L 77.268238,519.07337 L 77.268238,517.28537 L 73.231238,517.28537 C 69.734238,517.28537 66.399238,514.78037 66.399238,510.67137 C 66.399238,504.85437 72.396238,504.75037 72.396238,502.07237 C 72.396238,501.05737 71.858238,499.93737 70.242238,499.93737 C 67.299238,499.93737 67.241238,499.93737 65.856238,499.93737 C 63.386238,499.93737 63.894238,499.86837 62.971238,501.36937 z" /><path
         id="path2497"
         style="fill:#003366;fill-opacity:1;fill-rule:nonzero;stroke:none"
         d="M 47.389238,495.24937 L 53.126238,500.00937 L 51.342238,500.03737 L 59.923238,528.66037 L 61.661238,528.66037 L 58.706238,533.29337 L 53.010238,528.66037 L 54.880238,528.66037 L 46.299238,500.00937 L 44.533238,500.00937 L 47.389238,495.24937" /></g><g
       id="g3644"><path
         id="path2499"
         style="fill:#000000;fill-opacity:1;fill-rule:nonzero;stroke:none"
         d="M 93.574236,513.30637 C 93.170236,512.91037 92.538238,512.71937 91.890238,512.71937 C 90.900238,512.71937 89.536238,513.45037 89.536238,515.23337 C 89.536238,517.08437 91.151238,517.79237 92.218238,517.79237 C 92.606238,517.79237 93.025236,517.72437 93.375236,517.55637 C 93.383236,517.17537 93.414236,516.79437 93.452236,516.41437 L 93.345236,516.41437 C 93.193236,517.10737 92.545238,517.32037 92.012238,517.32037 C 90.999238,517.32037 90.237238,516.59637 90.237238,515.48437 C 90.237238,514.31137 91.067238,513.23737 92.142238,513.23737 C 92.667236,513.23737 93.178236,513.45037 93.604236,513.73237 L 93.574236,513.30637" /><path
         id="path2501"
         style="fill:#000000;stroke:none;stroke-width:0.208;stroke-linecap:butt;stroke-linejoin:miter;stroke-miterlimit:4;stroke-dasharray:none;stroke-opacity:1"
         d="M 93.574236,513.30637 C 93.170236,512.91037 92.538238,512.71937 91.890238,512.71937 C 90.900238,512.71937 89.536238,513.45037 89.536238,515.23337 C 89.536238,517.08437 91.151238,517.79237 92.218238,517.79237 C 92.606238,517.79237 93.025236,517.72437 93.375236,517.55637 C 93.383236,517.17537 93.414236,516.79437 93.452236,516.41437 L 93.345236,516.41437 C 93.193236,517.10737 92.545238,517.32037 92.012238,517.32037 C 90.999238,517.32037 90.237238,516.59637 90.237238,515.48437 C 90.237238,514.31137 91.067238,513.23737 92.142238,513.23737 C 92.667236,513.23737 93.178236,513.45037 93.604236,513.73237 L 93.574236,513.30637 z" /><path
         id="path2503"
         style="fill:#000000;fill-opacity:1;fill-rule:nonzero;stroke:none"
         d="M 94.450236,517.24437 C 94.450236,517.45737 94.358236,517.51837 94.061236,517.56437 L 94.061236,517.67137 L 97.733236,517.67137 C 97.733236,517.29737 97.748236,516.91637 97.779236,516.54337 L 97.626236,516.54337 C 97.535236,517.15337 97.276236,517.24437 96.941236,517.24437 L 95.196236,517.24437 L 95.196236,515.61437 L 96.278236,515.61437 C 96.552236,515.61437 96.704236,515.63737 96.757236,516.05637 L 96.910236,516.05637 C 96.887236,515.83537 96.864236,515.62937 96.864236,515.40837 C 96.864236,515.17237 96.887236,514.96637 96.910236,514.74537 L 96.757236,514.74537 C 96.704236,515.16437 96.552236,515.18737 96.278236,515.18737 L 95.196236,515.18737 L 95.196236,513.26837 L 96.811236,513.26837 C 97.451236,513.26837 97.725236,513.39737 97.862236,514.09037 L 98.007236,514.09037 C 97.969236,513.67137 97.938236,513.26037 97.931236,512.84137 L 94.061236,512.84137 L 94.061236,512.94837 C 94.358236,512.99337 94.450236,513.05437 94.450236,513.26837 L 94.450236,517.24437" /><path
         id="path2505"
         style="fill:#000000;stroke:none;stroke-width:0.208;stroke-linecap:butt;stroke-linejoin:miter;stroke-miterlimit:4;stroke-dasharray:none;stroke-opacity:1"
         d="M 94.450236,517.24437 C 94.450236,517.45737 94.358236,517.51837 94.061236,517.56437 L 94.061236,517.67137 L 97.733236,517.67137 C 97.733236,517.29737 97.748236,516.91637 97.779236,516.54337 L 97.626236,516.54337 C 97.535236,517.15337 97.276236,517.24437 96.941236,517.24437 L 95.196236,517.24437 L 95.196236,515.61437 L 96.278236,515.61437 C 96.552236,515.61437 96.704236,515.63737 96.757236,516.05637 L 96.910236,516.05637 C 96.887236,515.83537 96.864236,515.62937 96.864236,515.40837 C 96.864236,515.17237 96.887236,514.96637 96.910236,514.74537 L 96.757236,514.74537 C 96.704236,515.16437 96.552236,515.18737 96.278236,515.18737 L 95.196236,515.18737 L 95.196236,513.26837 L 96.811236,513.26837 C 97.451236,513.26837 97.725236,513.39737 97.862236,514.09037 L 98.007236,514.09037 C 97.969236,513.67137 97.938236,513.26037 97.931236,512.84137 L 94.061236,512.84137 L 94.061236,512.94837 C 94.358236,512.99337 94.450236,513.05437 94.450236,513.26837 L 94.450236,517.24437 z" /><path
         id="path2507"
         style="fill:#000000;fill-opacity:1;fill-rule:nonzero;stroke:none"
         d="M 98.959236,517.29037 C 98.959236,517.50337 98.868236,517.56437 98.570236,517.61037 L 98.570236,517.71637 C 98.784236,517.71637 99.005236,517.67137 99.218236,517.67137 C 99.424236,517.67137 99.591236,517.71637 99.782236,517.71637 L 102.37224,514.15937 L 102.38724,514.15937 L 102.38724,516.91637 C 102.38724,517.42737 102.26524,517.54137 101.85424,517.61037 L 101.85424,517.71637 C 102.06724,517.71637 102.28024,517.67137 102.49324,517.67137 C 102.74524,517.67137 102.99624,517.71637 103.24824,517.71637 L 103.24824,517.61037 C 102.95124,517.56437 102.85924,517.50337 102.85924,517.29037 L 102.85924,512.79537 L 102.41024,512.79537 L 99.446236,516.87837 L 99.431236,516.87837 L 99.431236,513.59537 C 99.431236,513.08537 99.553236,512.97037 99.965236,512.90237 L 99.965236,512.79537 C 99.751236,512.79537 99.538236,512.84137 99.325236,512.84137 C 99.073236,512.84137 98.822236,512.79537 98.570236,512.79537 L 98.570236,512.90237 C 98.868236,512.94837 98.959236,513.00937 98.959236,513.22237 L 98.959236,517.29037" /><path
         id="path2509"
         style="fill:#000000;stroke:none;stroke-width:0.208;stroke-linecap:butt;stroke-linejoin:miter;stroke-miterlimit:4;stroke-dasharray:none;stroke-opacity:1"
         d="M 98.959236,517.29037 C 98.959236,517.50337 98.868236,517.56437 98.570236,517.61037 L 98.570236,517.71637 C 98.784236,517.71637 99.005236,517.67137 99.218236,517.67137 C 99.424236,517.67137 99.591236,517.71637 99.782236,517.71637 L 102.37224,514.15937 L 102.38724,514.15937 L 102.38724,516.91637 C 102.38724,517.42737 102.26524,517.54137 101.85424,517.61037 L 101.85424,517.71637 C 102.06724,517.71637 102.28024,517.67137 102.49324,517.67137 C 102.74524,517.67137 102.99624,517.71637 103.24824,517.71637 L 103.24824,517.61037 C 102.95124,517.56437 102.85924,517.50337 102.85924,517.29037 L 102.85924,512.79537 L 102.41024,512.79537 L 99.446236,516.87837 L 99.431236,516.87837 L 99.431236,513.59537 C 99.431236,513.08537 99.553236,512.97037 99.965236,512.90237 L 99.965236,512.79537 C 99.751236,512.79537 99.538236,512.84137 99.325236,512.84137 C 99.073236,512.84137 98.822236,512.79537 98.570236,512.79537 L 98.570236,512.90237 C 98.868236,512.94837 98.959236,513.00937 98.959236,513.22237 L 98.959236,517.29037 z" /><path
         id="path2511"
         style="fill:#000000;fill-opacity:1;fill-rule:nonzero;stroke:none"
         d="M 105.25924,517.24437 L 104.55824,517.24437 C 104.13124,517.24437 103.91824,517.10737 103.78124,516.42137 L 103.62824,516.42137 C 103.68224,516.84037 103.72824,517.25137 103.75024,517.67137 L 107.51424,517.67137 C 107.53624,517.25137 107.58224,516.84037 107.63524,516.42137 L 107.48324,516.42137 C 107.34624,517.10737 107.13324,517.24437 106.70624,517.24437 L 106.00524,517.24437 L 106.00524,513.34437 C 106.00524,513.08537 106.09724,512.94837 106.48524,512.90237 L 106.48524,512.79537 C 106.18824,512.79537 105.86124,512.84137 105.63224,512.84137 C 105.40324,512.84137 105.07624,512.79537 104.77924,512.79537 L 104.77924,512.90237 C 105.16724,512.94837 105.25924,513.08537 105.25924,513.34437 L 105.25924,517.24437" /><path
         id="path2513"
         style="fill:#000000;stroke:none;stroke-width:0.208;stroke-linecap:butt;stroke-linejoin:miter;stroke-miterlimit:4;stroke-dasharray:none;stroke-opacity:1"
         d="M 105.25924,517.24437 L 104.55824,517.24437 C 104.13124,517.24437 103.91824,517.10737 103.78124,516.42137 L 103.62824,516.42137 C 103.68224,516.84037 103.72824,517.25137 103.75024,517.67137 L 107.51424,517.67137 C 107.53624,517.25137 107.58224,516.84037 107.63524,516.42137 L 107.48324,516.42137 C 107.34624,517.10737 107.13324,517.24437 106.70624,517.24437 L 106.00524,517.24437 L 106.00524,513.34437 C 106.00524,513.08537 106.09724,512.94837 106.48524,512.90237 L 106.48524,512.79537 C 106.18824,512.79537 105.86124,512.84137 105.63224,512.84137 C 105.40324,512.84137 105.07624,512.79537 104.77924,512.79537 L 104.77924,512.90237 C 105.16724,512.94837 105.25924,513.08537 105.25924,513.34437 L 105.25924,517.24437 z" /><path
         id="path2515"
         style="fill:#000000;fill-opacity:1;fill-rule:nonzero;stroke:none"
         d="M 108.40524,517.24437 C 108.40524,517.45737 108.31324,517.51837 108.01624,517.56437 L 108.01624,517.67137 L 110.22524,517.67137 C 111.23924,517.67137 111.59624,517.14537 111.59624,516.51337 C 111.59624,515.73637 110.94124,515.27937 110.21024,515.21837 L 111.61224,513.40537 C 111.84024,513.11537 112.03024,512.92537 112.25124,512.90237 L 112.25124,512.79537 C 112.11424,512.79537 111.98524,512.84137 111.85524,512.84137 C 111.65724,512.84137 111.45924,512.79537 111.26924,512.79537 C 111.18524,512.81837 111.10924,512.94037 110.49224,513.80137 L 109.50924,515.11937 C 109.41824,515.24137 109.35724,515.30937 109.35724,515.34037 C 109.35724,515.38537 109.44024,515.41637 109.50124,515.41637 C 110.29424,515.41637 110.85024,515.74337 110.85024,516.41437 C 110.85024,517.13737 110.20224,517.24437 109.56324,517.24437 L 109.15124,517.24437 L 109.15124,513.22237 C 109.15124,513.00937 109.24324,512.94837 109.54024,512.90237 L 109.54024,512.79537 C 109.38024,512.79537 109.06724,512.84137 108.77824,512.84137 C 108.48824,512.84137 108.17624,512.79537 108.01624,512.79537 L 108.01624,512.90237 C 108.31324,512.94837 108.40524,513.00937 108.40524,513.22237 L 108.40524,517.24437" /><path
         id="path2517"
         style="fill:#000000;stroke:none;stroke-width:0.208;stroke-linecap:butt;stroke-linejoin:miter;stroke-miterlimit:4;stroke-dasharray:none;stroke-opacity:1"
         d="M 108.40524,517.24437 C 108.40524,517.45737 108.31324,517.51837 108.01624,517.56437 L 108.01624,517.67137 L 110.22524,517.67137 C 111.23924,517.67137 111.59624,517.14537 111.59624,516.51337 C 111.59624,515.73637 110.94124,515.27937 110.21024,515.21837 L 111.61224,513.40537 C 111.84024,513.11537 112.03024,512.92537 112.25124,512.90237 L 112.25124,512.79537 C 112.11424,512.79537 111.98524,512.84137 111.85524,512.84137 C 111.65724,512.84137 111.45924,512.79537 111.26924,512.79537 C 111.18524,512.81837 111.10924,512.94037 110.49224,513.80137 L 109.50924,515.11937 C 109.41824,515.24137 109.35724,515.30937 109.35724,515.34037 C 109.35724,515.38537 109.44024,515.41637 109.50124,515.41637 C 110.29424,515.41637 110.85024,515.74337 110.85024,516.41437 C 110.85024,517.13737 110.20224,517.24437 109.56324,517.24437 L 109.15124,517.24437 L 109.15124,513.22237 C 109.15124,513.00937 109.24324,512.94837 109.54024,512.90237 L 109.54024,512.79537 C 109.38024,512.79537 109.06724,512.84137 108.77824,512.84137 C 108.48824,512.84137 108.17624,512.79537 108.01624,512.79537 L 108.01624,512.90237 C 108.31324,512.94837 108.40524,513.00937 108.40524,513.22237 L 108.40524,517.24437 z" /><path
         id="path2519"
         style="fill:#000000;fill-opacity:1;fill-rule:nonzero;stroke:none"
         d="M 112.76224,517.24437 C 112.76224,517.45737 112.67124,517.51837 112.37324,517.56437 L 112.37324,517.67137 L 116.04524,517.67137 C 116.04524,517.29737 116.06024,516.91637 116.09024,516.54337 L 115.93824,516.54337 C 115.84724,517.15337 115.58824,517.24437 115.25324,517.24437 L 113.50824,517.24437 L 113.50824,515.61437 L 114.59024,515.61437 C 114.86424,515.61437 115.01724,515.63737 115.07024,516.05637 L 115.22224,516.05637 C 115.20024,515.83537 115.17724,515.62937 115.17724,515.40837 C 115.17724,515.17237 115.20024,514.96637 115.22224,514.74537 L 115.07024,514.74537 C 115.01724,515.16437 114.86424,515.18737 114.59024,515.18737 L 113.50824,515.18737 L 113.50824,513.26837 L 115.12324,513.26837 C 115.76324,513.26837 116.03724,513.39737 116.17424,514.09037 L 116.31924,514.09037 C 116.28124,513.67137 116.25124,513.26037 116.24324,512.84137 L 112.37324,512.84137 L 112.37324,512.94837 C 112.67124,512.99337 112.76224,513.05437 112.76224,513.26837 L 112.76224,517.24437" /><path
         id="path2521"
         style="fill:#000000;stroke:none;stroke-width:0.208;stroke-linecap:butt;stroke-linejoin:miter;stroke-miterlimit:4;stroke-dasharray:none;stroke-opacity:1"
         d="M 112.76224,517.24437 C 112.76224,517.45737 112.67124,517.51837 112.37324,517.56437 L 112.37324,517.67137 L 116.04524,517.67137 C 116.04524,517.29737 116.06024,516.91637 116.09024,516.54337 L 115.93824,516.54337 C 115.84724,517.15337 115.58824,517.24437 115.25324,517.24437 L 113.50824,517.24437 L 113.50824,515.61437 L 114.59024,515.61437 C 114.86424,515.61437 115.01724,515.63737 115.07024,516.05637 L 115.22224,516.05637 C 115.20024,515.83537 115.17724,515.62937 115.17724,515.40837 C 115.17724,515.17237 115.20024,514.96637 115.22224,514.74537 L 115.07024,514.74537 C 115.01724,515.16437 114.86424,515.18737 114.59024,515.18737 L 113.50824,515.18737 L 113.50824,513.26837 L 115.12324,513.26837 C 115.76324,513.26837 116.03724,513.39737 116.17424,514.09037 L 116.31924,514.09037 C 116.28124,513.67137 116.25124,513.26037 116.24324,512.84137 L 112.37324,512.84137 L 112.37324,512.94837 C 112.67124,512.99337 112.76224,513.05437 112.76224,513.26837 L 112.76224,517.24437 z" /><path
         id="path2523"
         style="fill:#000000;fill-opacity:1;fill-rule:nonzero;stroke:none"
         d="M 118.98524,517.29037 C 118.98524,517.50337 118.89424,517.56437 118.59724,517.61037 L 118.59724,517.71637 C 118.81024,517.71637 119.03124,517.67137 119.24424,517.67137 C 119.45024,517.67137 119.61724,517.71637 119.80824,517.71637 L 122.39824,514.15937 L 122.41324,514.15937 L 122.41324,516.91637 C 122.41324,517.42737 122.29124,517.54137 121.88024,517.61037 L 121.88024,517.71637 C 122.09324,517.71637 122.30724,517.67137 122.52024,517.67137 C 122.77124,517.67137 123.02324,517.71637 123.27424,517.71637 L 123.27424,517.61037 C 122.97724,517.56437 122.88624,517.50337 122.88624,517.29037 L 122.88624,512.79537 L 122.43624,512.79537 L 119.47324,516.87837 L 119.45824,516.87837 L 119.45824,513.59537 C 119.45824,513.08537 119.57924,512.97037 119.99124,512.90237 L 119.99124,512.79537 C 119.77824,512.79537 119.56424,512.84137 119.35124,512.84137 C 119.09924,512.84137 118.84824,512.79537 118.59724,512.79537 L 118.59724,512.90237 C 118.89424,512.94837 118.98524,513.00937 118.98524,513.22237 L 118.98524,517.29037" /><path
         id="path2525"
         style="fill:#000000;stroke:none;stroke-width:0.208;stroke-linecap:butt;stroke-linejoin:miter;stroke-miterlimit:4;stroke-dasharray:none;stroke-opacity:1"
         d="M 118.98524,517.29037 C 118.98524,517.50337 118.89424,517.56437 118.59724,517.61037 L 118.59724,517.71637 C 118.81024,517.71637 119.03124,517.67137 119.24424,517.67137 C 119.45024,517.67137 119.61724,517.71637 119.80824,517.71637 L 122.39824,514.15937 L 122.41324,514.15937 L 122.41324,516.91637 C 122.41324,517.42737 122.29124,517.54137 121.88024,517.61037 L 121.88024,517.71637 C 122.09324,517.71637 122.30724,517.67137 122.52024,517.67137 C 122.77124,517.67137 123.02324,517.71637 123.27424,517.71637 L 123.27424,517.61037 C 122.97724,517.56437 122.88624,517.50337 122.88624,517.29037 L 122.88624,512.79537 L 122.43624,512.79537 L 119.47324,516.87837 L 119.45824,516.87837 L 119.45824,513.59537 C 119.45824,513.08537 119.57924,512.97037 119.99124,512.90237 L 119.99124,512.79537 C 119.77824,512.79537 119.56424,512.84137 119.35124,512.84137 C 119.09924,512.84137 118.84824,512.79537 118.59724,512.79537 L 118.59724,512.90237 C 118.89424,512.94837 118.98524,513.00937 118.98524,513.22237 L 118.98524,517.29037 z" /><path
         id="path2527"
         style="fill:#000000;fill-opacity:1;fill-rule:nonzero;stroke:none"
         d="M 123.53324,512.90237 C 123.79224,512.91037 123.86024,512.98637 124.01324,513.40537 L 125.36924,517.12237 C 125.39124,517.19837 125.41524,517.28237 125.41524,517.37337 C 125.41524,517.54937 125.33824,517.57237 125.17124,517.61037 L 125.17024,517.71637 C 125.36124,517.69337 125.55924,517.67137 125.74924,517.67137 C 125.87924,517.67137 126.01624,517.69337 126.14624,517.71637 C 126.17624,517.50337 126.26824,517.23637 126.40524,516.87837 L 127.69224,513.51937 C 127.89024,513.00937 127.92824,512.95537 128.20224,512.90237 L 128.20224,512.79537 C 128.00424,512.79537 127.81424,512.84137 127.61624,512.84137 C 127.31924,512.84137 127.02124,512.79537 126.72424,512.79537 L 126.72424,512.90237 C 126.99124,512.92537 127.07524,512.98637 127.07524,513.13037 C 127.07524,513.26837 127.02924,513.39737 126.86924,513.81637 L 126.55724,514.65437 L 124.91924,514.65437 L 124.54624,513.60337 C 124.47024,513.39737 124.42424,513.19937 124.42424,513.09237 C 124.42424,512.97837 124.50024,512.91037 124.82024,512.90237 L 124.82024,512.79537 C 124.62224,512.79537 124.41724,512.84137 124.21824,512.84137 C 123.99024,512.84137 123.76124,512.79537 123.53324,512.79537 L 123.53324,512.90237 z M 126.42024,515.03537 L 125.74224,516.92437 L 125.72624,516.92437 L 125.04924,515.03537 L 126.42024,515.03537" /><path
         id="path2529"
         style="fill:#000000;stroke:none;stroke-width:0.208;stroke-linecap:butt;stroke-linejoin:miter;stroke-miterlimit:4;stroke-dasharray:none;stroke-opacity:1"
         d="M 123.53324,512.90237 C 123.79224,512.91037 123.86024,512.98637 124.01324,513.40537 L 125.36924,517.12237 C 125.39124,517.19837 125.41524,517.28237 125.41524,517.37337 C 125.41524,517.54937 125.33824,517.57237 125.17124,517.61037 L 125.17024,517.71637 C 125.36124,517.69337 125.55924,517.67137 125.74924,517.67137 C 125.87924,517.67137 126.01624,517.69337 126.14624,517.71637 C 126.17624,517.50337 126.26824,517.23637 126.40524,516.87837 L 127.69224,513.51937 C 127.89024,513.00937 127.92824,512.95537 128.20224,512.90237 L 128.20224,512.79537 C 128.00424,512.79537 127.81424,512.84137 127.61624,512.84137 C 127.31924,512.84137 127.02124,512.79537 126.72424,512.79537 L 126.72424,512.90237 C 126.99124,512.92537 127.07524,512.98637 127.07524,513.13037 C 127.07524,513.26837 127.02924,513.39737 126.86924,513.81637 L 126.55724,514.65437 L 124.91924,514.65437 L 124.54624,513.60337 C 124.47024,513.39737 124.42424,513.19937 124.42424,513.09237 C 124.42424,512.97837 124.50024,512.91037 124.82024,512.90237 L 124.82024,512.79537 C 124.62224,512.79537 124.41724,512.84137 124.21824,512.84137 C 123.99024,512.84137 123.76124,512.79537 123.53324,512.79537 L 123.53324,512.90237 z M 126.42024,515.03537 L 125.74224,516.92437 L 125.72624,516.92437 L 125.04924,515.03537 L 126.42024,515.03537 z" /><path
         id="path2531"
         style="fill:#000000;fill-opacity:1;fill-rule:nonzero;stroke:none"
         d="M 129.48924,517.24437 L 128.78924,517.24437 C 128.36224,517.24437 128.14924,517.10737 128.01224,516.42137 L 127.86024,516.42137 C 127.91324,516.84037 127.95924,517.25137 127.98124,517.67137 L 131.74424,517.67137 C 131.76724,517.25137 131.81324,516.84037 131.86624,516.42137 L 131.71424,516.42137 C 131.57724,517.10737 131.36324,517.24437 130.93724,517.24437 L 130.23624,517.24437 L 130.23624,513.34437 C 130.23624,513.08537 130.32824,512.94837 130.71624,512.90237 L 130.71624,512.79537 C 130.41924,512.79537 130.09124,512.84137 129.86324,512.84137 C 129.63424,512.84137 129.30724,512.79537 129.01024,512.79537 L 129.01024,512.90237 C 129.39824,512.94837 129.48924,513.08537 129.48924,513.34437 L 129.48924,517.24437" /><path
         id="path2533"
         style="fill:#000000;stroke:none;stroke-width:0.208;stroke-linecap:butt;stroke-linejoin:miter;stroke-miterlimit:4;stroke-dasharray:none;stroke-opacity:1"
         d="M 129.48924,517.24437 L 128.78924,517.24437 C 128.36224,517.24437 128.14924,517.10737 128.01224,516.42137 L 127.86024,516.42137 C 127.91324,516.84037 127.95924,517.25137 127.98124,517.67137 L 131.74424,517.67137 C 131.76724,517.25137 131.81324,516.84037 131.86624,516.42137 L 131.71424,516.42137 C 131.57724,517.10737 131.36324,517.24437 130.93724,517.24437 L 130.23624,517.24437 L 130.23624,513.34437 C 130.23624,513.08537 130.32824,512.94837 130.71624,512.90237 L 130.71624,512.79537 C 130.41924,512.79537 130.09124,512.84137 129.86324,512.84137 C 129.63424,512.84137 129.30724,512.79537 129.01024,512.79537 L 129.01024,512.90237 C 129.39824,512.94837 129.48924,513.08537 129.48924,513.34437 L 129.48924,517.24437 z" /><path
         id="path2535"
         style="fill:#000000;fill-opacity:1;fill-rule:nonzero;stroke:none"
         d="M 132.13324,512.90237 C 132.43024,512.94837 132.52224,513.00937 132.52224,513.22237 L 132.52224,517.29037 C 132.52224,517.50337 132.43024,517.56437 132.13324,517.61037 L 132.13324,517.71637 C 132.29324,517.71637 132.60524,517.67137 132.89524,517.67137 C 133.18424,517.67137 133.49624,517.71637 133.65624,517.71637 L 133.65624,517.61037 C 133.35924,517.56437 133.26824,517.50337 133.26824,517.29037 L 133.26824,513.22237 C 133.26824,513.00937 133.35924,512.94837 133.65624,512.90237 L 133.65624,512.79537 C 133.49624,512.79537 133.18424,512.84137 132.89524,512.84137 C 132.60524,512.84137 132.29324,512.79537 132.13324,512.79537 L 132.13324,512.90237" /><path
         id="path2537"
         style="fill:#000000;stroke:none;stroke-width:0.208;stroke-linecap:butt;stroke-linejoin:miter;stroke-miterlimit:4;stroke-dasharray:none;stroke-opacity:1"
         d="M 132.13324,512.90237 C 132.43024,512.94837 132.52224,513.00937 132.52224,513.22237 L 132.52224,517.29037 C 132.52224,517.50337 132.43024,517.56437 132.13324,517.61037 L 132.13324,517.71637 C 132.29324,517.71637 132.60524,517.67137 132.89524,517.67137 C 133.18424,517.67137 133.49624,517.71637 133.65624,517.71637 L 133.65624,517.61037 C 133.35924,517.56437 133.26824,517.50337 133.26824,517.29037 L 133.26824,513.22237 C 133.26824,513.00937 133.35924,512.94837 133.65624,512.90237 L 133.65624,512.79537 C 133.49624,512.79537 133.18424,512.84137 132.89524,512.84137 C 132.60524,512.84137 132.29324,512.79537 132.13324,512.79537 L 132.13324,512.90237 z" /><path
         id="path2539"
         style="fill:#000000;fill-opacity:1;fill-rule:nonzero;stroke:none"
         d="M 136.62724,517.79237 C 138.31824,517.79237 138.98924,516.42937 138.98924,515.31737 C 138.98924,514.00637 138.02124,512.71937 136.51324,512.71937 C 134.98224,512.71937 134.12824,513.86237 134.12824,515.24137 C 134.12824,516.73437 135.44624,517.79237 136.62724,517.79237 z M 136.69624,513.23737 C 137.50324,513.23737 138.28824,513.83137 138.28824,515.04337 C 138.28824,516.37637 137.37424,517.27437 136.40624,517.27437 C 135.85024,517.27437 134.82924,516.83337 134.82924,515.43137 C 134.82924,514.35737 135.52324,513.23737 136.69624,513.23737" /><path
         id="path2541"
         style="fill:#000000;stroke:none;stroke-width:0.208;stroke-linecap:butt;stroke-linejoin:miter;stroke-miterlimit:4;stroke-dasharray:none;stroke-opacity:1"
         d="M 136.62724,517.79237 C 138.31824,517.79237 138.98924,516.42937 138.98924,515.31737 C 138.98924,514.00637 138.02124,512.71937 136.51324,512.71937 C 134.98224,512.71937 134.12824,513.86237 134.12824,515.24137 C 134.12824,516.73437 135.44624,517.79237 136.62724,517.79237 z M 136.69624,513.23737 C 137.50324,513.23737 138.28824,513.83137 138.28824,515.04337 C 138.28824,516.37637 137.37424,517.27437 136.40624,517.27437 C 135.85024,517.27437 134.82924,516.83337 134.82924,515.43137 C 134.82924,514.35737 135.52324,513.23737 136.69624,513.23737 z" /><path
         id="path2543"
         style="fill:#000000;fill-opacity:1;fill-rule:nonzero;stroke:none"
         d="M 139.96424,517.29037 C 139.96424,517.50337 139.87224,517.56437 139.57524,517.61037 L 139.57524,517.71637 C 139.78824,517.71637 140.00924,517.67137 140.22224,517.67137 C 140.42824,517.67137 140.59624,517.71637 140.78624,517.71637 L 143.37624,514.15937 L 143.39224,514.15937 L 143.39224,516.91637 C 143.39224,517.42737 143.26924,517.54137 142.85824,517.61037 L 142.85824,517.71637 C 143.07224,517.71637 143.28524,517.67137 143.49824,517.67137 C 143.74924,517.67137 144.00124,517.71637 144.25224,517.71637 L 144.25224,517.61037 C 143.95524,517.56437 143.86424,517.50337 143.86424,517.29037 L 143.86424,512.79537 L 143.41424,512.79537 L 140.45124,516.87837 L 140.43624,516.87837 L 140.43624,513.59537 C 140.43624,513.08537 140.55824,512.97037 140.96924,512.90237 L 140.96924,512.79537 C 140.75624,512.79537 140.54324,512.84137 140.32924,512.84137 C 140.07824,512.84137 139.82724,512.79537 139.57524,512.79537 L 139.57524,512.90237 C 139.87224,512.94837 139.96424,513.00937 139.96424,513.22237 L 139.96424,517.29037" /><path
         id="path2545"
         style="fill:#000000;stroke:none;stroke-width:0.208;stroke-linecap:butt;stroke-linejoin:miter;stroke-miterlimit:4;stroke-dasharray:none;stroke-opacity:1"
         d="M 139.96424,517.29037 C 139.96424,517.50337 139.87224,517.56437 139.57524,517.61037 L 139.57524,517.71637 C 139.78824,517.71637 140.00924,517.67137 140.22224,517.67137 C 140.42824,517.67137 140.59624,517.71637 140.78624,517.71637 L 143.37624,514.15937 L 143.39224,514.15937 L 143.39224,516.91637 C 143.39224,517.42737 143.26924,517.54137 142.85824,517.61037 L 142.85824,517.71637 C 143.07224,517.71637 143.28524,517.67137 143.49824,517.67137 C 143.74924,517.67137 144.00124,517.71637 144.25224,517.71637 L 144.25224,517.61037 C 143.95524,517.56437 143.86424,517.50337 143.86424,517.29037 L 143.86424,512.79537 L 143.41424,512.79537 L 140.45124,516.87837 L 140.43624,516.87837 L 140.43624,513.59537 C 140.43624,513.08537 140.55824,512.97037 140.96924,512.90237 L 140.96924,512.79537 C 140.75624,512.79537 140.54324,512.84137 140.32924,512.84137 C 140.07824,512.84137 139.82724,512.79537 139.57524,512.79537 L 139.57524,512.90237 C 139.87224,512.94837 139.96424,513.00937 139.96424,513.22237 L 139.96424,517.29037 z" /><path
         id="path2547"
         style="fill:#000000;fill-opacity:1;fill-rule:nonzero;stroke:none"
         d="M 144.35924,512.90237 C 144.61824,512.91037 144.68624,512.98637 144.83924,513.40537 L 146.19524,517.12237 C 146.21824,517.19837 146.24024,517.28237 146.24024,517.37337 C 146.24024,517.54937 146.16424,517.57237 145.99624,517.61037 L 145.99624,517.71637 C 146.18724,517.69337 146.38524,517.67137 146.57524,517.67137 C 146.70524,517.67137 146.84224,517.69337 146.97224,517.71637 C 147.00224,517.50337 147.09324,517.23637 147.23124,516.87837 L 148.51824,513.51937 C 148.71624,513.00937 148.75424,512.95537 149.02924,512.90237 L 149.02924,512.79537 C 148.83024,512.79537 148.64024,512.84137 148.44224,512.84137 C 148.14524,512.84137 147.84824,512.79537 147.55124,512.79537 L 147.55124,512.90237 C 147.81724,512.92537 147.90124,512.98637 147.90124,513.13037 C 147.90124,513.26837 147.85524,513.39737 147.69524,513.81637 L 147.38324,514.65437 L 145.74524,514.65437 L 145.37224,513.60337 C 145.29624,513.39737 145.25024,513.19937 145.25024,513.09237 C 145.25024,512.97837 145.32624,512.91037 145.64624,512.90237 L 145.64624,512.79537 C 145.44824,512.79537 145.24224,512.84137 145.04424,512.84137 C 144.81624,512.84137 144.58724,512.79537 144.35924,512.79537 L 144.35924,512.90237 z M 147.24624,515.03537 L 146.56824,516.92437 L 146.55324,516.92437 L 145.87524,515.03537 L 147.24624,515.03537" /><path
         id="path2549"
         style="fill:#000000;stroke:none;stroke-width:0.208;stroke-linecap:butt;stroke-linejoin:miter;stroke-miterlimit:4;stroke-dasharray:none;stroke-opacity:1"
         d="M 144.35924,512.90237 C 144.61824,512.91037 144.68624,512.98637 144.83924,513.40537 L 146.19524,517.12237 C 146.21824,517.19837 146.24024,517.28237 146.24024,517.37337 C 146.24024,517.54937 146.16424,517.57237 145.99624,517.61037 L 145.99624,517.71637 C 146.18724,517.69337 146.38524,517.67137 146.57524,517.67137 C 146.70524,517.67137 146.84224,517.69337 146.97224,517.71637 C 147.00224,517.50337 147.09324,517.23637 147.23124,516.87837 L 148.51824,513.51937 C 148.71624,513.00937 148.75424,512.95537 149.02924,512.90237 L 149.02924,512.79537 C 148.83024,512.79537 148.64024,512.84137 148.44224,512.84137 C 148.14524,512.84137 147.84824,512.79537 147.55124,512.79537 L 147.55124,512.90237 C 147.81724,512.92537 147.90124,512.98637 147.90124,513.13037 C 147.90124,513.26837 147.85524,513.39737 147.69524,513.81637 L 147.38324,514.65437 L 145.74524,514.65437 L 145.37224,513.60337 C 145.29624,513.39737 145.25024,513.19937 145.25024,513.09237 C 145.25024,512.97837 145.32624,512.91037 145.64624,512.90237 L 145.64624,512.79537 C 145.44824,512.79537 145.24224,512.84137 145.04424,512.84137 C 144.81624,512.84137 144.58724,512.79537 144.35924,512.79537 L 144.35924,512.90237 z M 147.24624,515.03537 L 146.56824,516.92437 L 146.55324,516.92437 L 145.87524,515.03537 L 147.24624,515.03537 z" /><path
         id="path2551"
         style="fill:#000000;fill-opacity:1;fill-rule:nonzero;stroke:none"
         d="M 149.52424,517.29037 C 149.52424,517.50337 149.43224,517.56437 149.13524,517.61037 L 149.13524,517.71637 C 149.29524,517.71637 149.60724,517.67137 149.89724,517.67137 C 150.18624,517.67137 150.49824,517.71637 150.75824,517.71637 L 150.75824,517.61037 C 150.36924,517.57937 150.27024,517.46537 150.27024,517.29037 L 150.27024,513.26837 L 151.71724,513.26837 C 152.41824,513.26837 152.62424,513.46637 152.69224,514.17437 L 152.82924,514.17437 C 152.79124,513.73237 152.77624,513.28337 152.76824,512.84137 L 149.13524,512.84137 L 149.13524,512.94837 C 149.43224,512.99337 149.52424,513.05437 149.52424,513.26837 L 149.52424,517.29037" /><g
         transform="translate(2.4542382,452.19337)"
         style="fill:#000000;stroke:none"
         id="g2553"><g
           style="fill:#000000;stroke:none"
           clip-path="url(#clipPath2557)"
           id="g2555"><path
             id="path2561"
             style="fill:#000000;stroke:none;stroke-width:0.208;stroke-linecap:butt;stroke-linejoin:miter;stroke-miterlimit:4;stroke-dasharray:none;stroke-opacity:1"
             d="M 147.07,65.097 C 147.07,65.31 146.978,65.371 146.681,65.417 L 146.681,65.523 C 146.841,65.523 147.153,65.478 147.443,65.478 C 147.732,65.478 148.044,65.523 148.304,65.523 L 148.304,65.417 C 147.915,65.386 147.816,65.272 147.816,65.097 L 147.816,61.075 L 149.263,61.075 C 149.964,61.075 150.17,61.273 150.238,61.981 L 150.375,61.981 C 150.337,61.539 150.322,61.09 150.314,60.648 L 146.681,60.648 L 146.681,60.755 C 146.978,60.8 147.07,60.861 147.07,61.075 L 147.07,65.097 z" /></g></g><path
         id="path2563"
         style="fill:#000000;fill-opacity:1;fill-rule:nonzero;stroke:none"
         d="M 91.433238,509.08337 C 93.368236,509.08337 94.396236,508.13937 94.396236,506.69937 C 94.396236,505.24437 93.155236,504.25437 91.646238,504.25437 L 89.628238,504.25437 L 89.628238,504.36037 C 89.925238,504.40637 90.016238,504.46737 90.016238,504.68037 L 90.016238,508.65737 C 90.016238,508.87037 89.925238,508.93137 89.628238,508.97737 L 89.628238,509.08337 L 91.433238,509.08337 z M 90.763238,504.68037 L 91.829238,504.68037 C 92.606238,504.68037 93.650236,505.38137 93.650236,506.55437 C 93.650236,507.42337 93.231236,508.65737 91.144238,508.65737 L 90.763238,508.65737 L 90.763238,504.68037" /><path
         id="path2565"
         style="fill:#000000;stroke:none;stroke-width:0.208;stroke-linecap:butt;stroke-linejoin:miter;stroke-miterlimit:4;stroke-dasharray:none;stroke-opacity:1"
         d="M 91.433238,509.08337 C 93.368236,509.08337 94.396236,508.13937 94.396236,506.69937 C 94.396236,505.24437 93.155236,504.25437 91.646238,504.25437 L 89.628238,504.25437 L 89.628238,504.36037 C 89.925238,504.40637 90.016238,504.46737 90.016238,504.68037 L 90.016238,508.65737 C 90.016238,508.87037 89.925238,508.93137 89.628238,508.97737 L 89.628238,509.08337 L 91.433238,509.08337 z M 90.763238,504.68037 L 91.829238,504.68037 C 92.606238,504.68037 93.650236,505.38137 93.650236,506.55437 C 93.650236,507.42337 93.231236,508.65737 91.144238,508.65737 L 90.763238,508.65737 L 90.763238,504.68037 z" /><path
         id="path2567"
         style="fill:#000000;fill-opacity:1;fill-rule:nonzero;stroke:none"
         d="M 95.181236,508.65737 C 95.181236,508.87037 95.089236,508.93137 94.792236,508.97737 L 94.792236,509.08337 L 98.464236,509.08337 C 98.464236,508.71037 98.479236,508.32937 98.510236,507.95637 L 98.357236,507.95637 C 98.266236,508.56537 98.007236,508.65737 97.672236,508.65737 L 95.927236,508.65737 L 95.927236,507.02737 L 97.009236,507.02737 C 97.283236,507.02737 97.436236,507.05037 97.489236,507.46837 L 97.641236,507.46837 C 97.618236,507.24837 97.596236,507.04237 97.596236,506.82137 C 97.596236,506.58537 97.618236,506.37937 97.641236,506.15837 L 97.489236,506.15837 C 97.436236,506.57737 97.283236,506.60037 97.009236,506.60037 L 95.927236,506.60037 L 95.927236,504.68037 L 97.542236,504.68037 C 98.182236,504.68037 98.456236,504.81037 98.593236,505.50337 L 98.738236,505.50337 C 98.700236,505.08437 98.670236,504.67337 98.662236,504.25437 L 94.792236,504.25437 L 94.792236,504.36037 C 95.089236,504.40637 95.181236,504.46737 95.181236,504.68037 L 95.181236,508.65737" /><path
         id="path2569"
         style="fill:#000000;stroke:none;stroke-width:0.208;stroke-linecap:butt;stroke-linejoin:miter;stroke-miterlimit:4;stroke-dasharray:none;stroke-opacity:1"
         d="M 95.181236,508.65737 C 95.181236,508.87037 95.089236,508.93137 94.792236,508.97737 L 94.792236,509.08337 L 98.464236,509.08337 C 98.464236,508.71037 98.479236,508.32937 98.510236,507.95637 L 98.357236,507.95637 C 98.266236,508.56537 98.007236,508.65737 97.672236,508.65737 L 95.927236,508.65737 L 95.927236,507.02737 L 97.009236,507.02737 C 97.283236,507.02737 97.436236,507.05037 97.489236,507.46837 L 97.641236,507.46837 C 97.618236,507.24837 97.596236,507.04237 97.596236,506.82137 C 97.596236,506.58537 97.618236,506.37937 97.641236,506.15837 L 97.489236,506.15837 C 97.436236,506.57737 97.283236,506.60037 97.009236,506.60037 L 95.927236,506.60037 L 95.927236,504.68037 L 97.542236,504.68037 C 98.182236,504.68037 98.456236,504.81037 98.593236,505.50337 L 98.738236,505.50337 C 98.700236,505.08437 98.670236,504.67337 98.662236,504.25437 L 94.792236,504.25437 L 94.792236,504.36037 C 95.089236,504.40637 95.181236,504.46737 95.181236,504.68037 L 95.181236,508.65737 z" /><path
         id="path2571"
         style="fill:#000000;fill-opacity:1;fill-rule:nonzero;stroke:none"
         d="M 101.17624,508.70237 C 101.17624,508.91637 101.08524,508.97737 100.78724,509.02337 L 100.78724,509.12937 C 100.94724,509.12937 101.25924,509.08337 101.54924,509.08337 C 101.83824,509.08337 102.15124,509.12937 102.41024,509.12937 L 102.41024,509.02337 C 102.02124,508.99237 101.92224,508.87837 101.92224,508.70237 L 101.92224,504.68037 L 103.37024,504.68037 C 104.07024,504.68037 104.27624,504.87837 104.34524,505.58737 L 104.48224,505.58737 C 104.44324,505.14537 104.42824,504.69637 104.42124,504.25437 L 100.78724,504.25437 L 100.78724,504.36037 C 101.08524,504.40637 101.17624,504.46737 101.17624,504.68037 L 101.17624,508.70237" /><path
         id="path2573"
         style="fill:#000000;stroke:none;stroke-width:0.208;stroke-linecap:butt;stroke-linejoin:miter;stroke-miterlimit:4;stroke-dasharray:none;stroke-opacity:1"
         d="M 101.17624,508.70237 C 101.17624,508.91637 101.08524,508.97737 100.78724,509.02337 L 100.78724,509.12937 C 100.94724,509.12937 101.25924,509.08337 101.54924,509.08337 C 101.83824,509.08337 102.15124,509.12937 102.41024,509.12937 L 102.41024,509.02337 C 102.02124,508.99237 101.92224,508.87837 101.92224,508.70237 L 101.92224,504.68037 L 103.37024,504.68037 C 104.07024,504.68037 104.27624,504.87837 104.34524,505.58737 L 104.48224,505.58737 C 104.44324,505.14537 104.42824,504.69637 104.42124,504.25437 L 100.78724,504.25437 L 100.78724,504.36037 C 101.08524,504.40637 101.17624,504.46737 101.17624,504.68037 L 101.17624,508.70237 z" /><path
         id="path2575"
         style="fill:#000000;fill-opacity:1;fill-rule:nonzero;stroke:none"
         d="M 104.42124,504.31537 C 104.68024,504.32337 104.74824,504.39937 104.90124,504.81837 L 106.25624,508.53537 C 106.27924,508.61137 106.30224,508.69537 106.30224,508.78637 C 106.30224,508.96137 106.22624,508.98437 106.05924,509.02337 L 106.05924,509.12937 C 106.24924,509.10637 106.44724,509.08337 106.63724,509.08337 C 106.76724,509.08337 106.90424,509.10637 107.03424,509.12937 C 107.06424,508.91637 107.15524,508.64937 107.29324,508.29137 L 108.58024,504.93237 C 108.77824,504.42137 108.81624,504.36837 109.09024,504.31537 L 109.09024,504.20837 C 108.89224,504.20837 108.70224,504.25437 108.50424,504.25437 C 108.20624,504.25437 107.91024,504.20837 107.61324,504.20837 L 107.61324,504.31537 C 107.87924,504.33837 107.96324,504.39937 107.96324,504.54337 C 107.96324,504.68037 107.91724,504.81037 107.75724,505.22937 L 107.44524,506.06737 L 105.80724,506.06737 L 105.43424,505.01637 C 105.35824,504.81037 105.31224,504.61237 105.31224,504.50537 C 105.31224,504.39137 105.38824,504.32337 105.70824,504.31537 L 105.70824,504.20837 C 105.51024,504.20837 105.30424,504.25437 105.10624,504.25437 C 104.87824,504.25437 104.65024,504.20837 104.42124,504.20837 L 104.42124,504.31537 z M 107.30824,506.44837 L 106.63024,508.33737 L 106.61524,508.33737 L 105.93724,506.44837 L 107.30824,506.44837" /><path
         id="path2577"
         style="fill:#000000;stroke:none;stroke-width:0.208;stroke-linecap:butt;stroke-linejoin:miter;stroke-miterlimit:4;stroke-dasharray:none;stroke-opacity:1"
         d="M 104.42124,504.31537 C 104.68024,504.32337 104.74824,504.39937 104.90124,504.81837 L 106.25624,508.53537 C 106.27924,508.61137 106.30224,508.69537 106.30224,508.78637 C 106.30224,508.96137 106.22624,508.98437 106.05924,509.02337 L 106.05924,509.12937 C 106.24924,509.10637 106.44724,509.08337 106.63724,509.08337 C 106.76724,509.08337 106.90424,509.10637 107.03424,509.12937 C 107.06424,508.91637 107.15524,508.64937 107.29324,508.29137 L 108.58024,504.93237 C 108.77824,504.42137 108.81624,504.36837 109.09024,504.31537 L 109.09024,504.20837 C 108.89224,504.20837 108.70224,504.25437 108.50424,504.25437 C 108.20624,504.25437 107.91024,504.20837 107.61324,504.20837 L 107.61324,504.31537 C 107.87924,504.33837 107.96324,504.39937 107.96324,504.54337 C 107.96324,504.68037 107.91724,504.81037 107.75724,505.22937 L 107.44524,506.06737 L 105.80724,506.06737 L 105.43424,505.01637 C 105.35824,504.81037 105.31224,504.61237 105.31224,504.50537 C 105.31224,504.39137 105.38824,504.32337 105.70824,504.31537 L 105.70824,504.20837 C 105.51024,504.20837 105.30424,504.25437 105.10624,504.25437 C 104.87824,504.25437 104.65024,504.20837 104.42124,504.20837 L 104.42124,504.31537 z M 107.30824,506.44837 L 106.63024,508.33737 L 106.61524,508.33737 L 105.93724,506.44837 L 107.30824,506.44837 z" /><path
         id="path2579"
         style="fill:#000000;fill-opacity:1;fill-rule:nonzero;stroke:none"
         d="M 111.11624,508.65737 C 111.11624,508.87037 111.02524,508.93137 110.72824,508.97737 L 110.72824,509.08337 L 112.93724,509.08337 C 113.95024,509.08337 114.30824,508.55837 114.30824,507.92537 C 114.30824,507.14837 113.65324,506.69137 112.92224,506.63037 L 114.32324,504.81837 C 114.55224,504.52837 114.74224,504.33837 114.96324,504.31537 L 114.96324,504.20837 C 114.82624,504.20837 114.69724,504.25437 114.56724,504.25437 C 114.36924,504.25437 114.17124,504.20837 113.98124,504.20837 C 113.89724,504.23137 113.82124,504.35337 113.20424,505.21437 L 112.22124,506.53237 C 112.13024,506.65337 112.06924,506.72237 112.06924,506.75237 C 112.06924,506.79837 112.15324,506.82937 112.21324,506.82937 C 113.00624,506.82937 113.56224,507.15637 113.56224,507.82737 C 113.56224,508.55037 112.91424,508.65737 112.27424,508.65737 L 111.86324,508.65737 L 111.86324,504.63537 C 111.86324,504.42137 111.95524,504.36037 112.25124,504.31537 L 112.25124,504.20837 C 112.09224,504.20837 111.77924,504.25437 111.49024,504.25437 C 111.20024,504.25437 110.88824,504.20837 110.72824,504.20837 L 110.72824,504.31537 C 111.02524,504.36037 111.11624,504.42137 111.11624,504.63537 L 111.11624,508.65737" /><path
         id="path2581"
         style="fill:#000000;stroke:none;stroke-width:0.208;stroke-linecap:butt;stroke-linejoin:miter;stroke-miterlimit:4;stroke-dasharray:none;stroke-opacity:1"
         d="M 111.11624,508.65737 C 111.11624,508.87037 111.02524,508.93137 110.72824,508.97737 L 110.72824,509.08337 L 112.93724,509.08337 C 113.95024,509.08337 114.30824,508.55837 114.30824,507.92537 C 114.30824,507.14837 113.65324,506.69137 112.92224,506.63037 L 114.32324,504.81837 C 114.55224,504.52837 114.74224,504.33837 114.96324,504.31537 L 114.96324,504.20837 C 114.82624,504.20837 114.69724,504.25437 114.56724,504.25437 C 114.36924,504.25437 114.17124,504.20837 113.98124,504.20837 C 113.89724,504.23137 113.82124,504.35337 113.20424,505.21437 L 112.22124,506.53237 C 112.13024,506.65337 112.06924,506.72237 112.06924,506.75237 C 112.06924,506.79837 112.15324,506.82937 112.21324,506.82937 C 113.00624,506.82937 113.56224,507.15637 113.56224,507.82737 C 113.56224,508.55037 112.91424,508.65737 112.27424,508.65737 L 111.86324,508.65737 L 111.86324,504.63537 C 111.86324,504.42137 111.95524,504.36037 112.25124,504.31537 L 112.25124,504.20837 C 112.09224,504.20837 111.77924,504.25437 111.49024,504.25437 C 111.20024,504.25437 110.88824,504.20837 110.72824,504.20837 L 110.72824,504.31537 C 111.02524,504.36037 111.11624,504.42137 111.11624,504.63537 L 111.11624,508.65737 z" /><path
         id="path2583"
         style="fill:#000000;fill-opacity:1;fill-rule:nonzero;stroke:none"
         d="M 115.55024,508.65737 C 115.55024,508.87037 115.45824,508.93137 115.16124,508.97737 L 115.16124,509.08337 L 118.83324,509.08337 C 118.83324,508.71037 118.84824,508.32937 118.87924,507.95637 L 118.72624,507.95637 C 118.63524,508.56537 118.37624,508.65737 118.04124,508.65737 L 116.29624,508.65737 L 116.29624,507.02737 L 117.37824,507.02737 C 117.65224,507.02737 117.80524,507.05037 117.85824,507.46837 L 118.01024,507.46837 C 117.98724,507.24837 117.96524,507.04237 117.96524,506.82137 C 117.96524,506.58537 117.98724,506.37937 118.01024,506.15837 L 117.85824,506.15837 C 117.80524,506.57737 117.65224,506.60037 117.37824,506.60037 L 116.29624,506.60037 L 116.29624,504.68037 L 117.91124,504.68037 C 118.55124,504.68037 118.82524,504.81037 118.96324,505.50337 L 119.10724,505.50337 C 119.06924,505.08437 119.03924,504.67337 119.03124,504.25437 L 115.16124,504.25437 L 115.16124,504.36037 C 115.45824,504.40637 115.55024,504.46737 115.55024,504.68037 L 115.55024,508.65737" /><path
         id="path2585"
         style="fill:#000000;stroke:none;stroke-width:0.208;stroke-linecap:butt;stroke-linejoin:miter;stroke-miterlimit:4;stroke-dasharray:none;stroke-opacity:1"
         d="M 115.55024,508.65737 C 115.55024,508.87037 115.45824,508.93137 115.16124,508.97737 L 115.16124,509.08337 L 118.83324,509.08337 C 118.83324,508.71037 118.84824,508.32937 118.87924,507.95637 L 118.72624,507.95637 C 118.63524,508.56537 118.37624,508.65737 118.04124,508.65737 L 116.29624,508.65737 L 116.29624,507.02737 L 117.37824,507.02737 C 117.65224,507.02737 117.80524,507.05037 117.85824,507.46837 L 118.01024,507.46837 C 117.98724,507.24837 117.96524,507.04237 117.96524,506.82137 C 117.96524,506.58537 117.98724,506.37937 118.01024,506.15837 L 117.85824,506.15837 C 117.80524,506.57737 117.65224,506.60037 117.37824,506.60037 L 116.29624,506.60037 L 116.29624,504.68037 L 117.91124,504.68037 C 118.55124,504.68037 118.82524,504.81037 118.96324,505.50337 L 119.10724,505.50337 C 119.06924,505.08437 119.03924,504.67337 119.03124,504.25437 L 115.16124,504.25437 L 115.16124,504.36037 C 115.45824,504.40637 115.55024,504.46737 115.55024,504.68037 L 115.55024,508.65737 z" /><path
         id="path2587"
         style="fill:#000000;fill-opacity:1;fill-rule:nonzero;stroke:none"
         d="M 123.56324,504.71937 C 123.16024,504.32337 122.52724,504.13237 121.88024,504.13237 C 120.89024,504.13237 119.52624,504.86337 119.52624,506.64637 C 119.52624,508.49737 121.14124,509.20537 122.20724,509.20537 C 122.59624,509.20537 123.01524,509.13737 123.36524,508.96937 C 123.37324,508.58837 123.40424,508.20737 123.44124,507.82737 L 123.33524,507.82737 C 123.18224,508.52037 122.53524,508.73337 122.00224,508.73337 C 120.98924,508.73337 120.22724,508.00937 120.22724,506.89737 C 120.22724,505.72437 121.05724,504.65037 122.13124,504.65037 C 122.65724,504.65037 123.16724,504.86337 123.59424,505.14537 L 123.56324,504.71937" /><path
         id="path2589"
         style="fill:#000000;stroke:none;stroke-width:0.208;stroke-linecap:butt;stroke-linejoin:miter;stroke-miterlimit:4;stroke-dasharray:none;stroke-opacity:1"
         d="M 123.56324,504.71937 C 123.16024,504.32337 122.52724,504.13237 121.88024,504.13237 C 120.89024,504.13237 119.52624,504.86337 119.52624,506.64637 C 119.52624,508.49737 121.14124,509.20537 122.20724,509.20537 C 122.59624,509.20537 123.01524,509.13737 123.36524,508.96937 C 123.37324,508.58837 123.40424,508.20737 123.44124,507.82737 L 123.33524,507.82737 C 123.18224,508.52037 122.53524,508.73337 122.00224,508.73337 C 120.98924,508.73337 120.22724,508.00937 120.22724,506.89737 C 120.22724,505.72437 121.05724,504.65037 122.13124,504.65037 C 122.65724,504.65037 123.16724,504.86337 123.59424,505.14537 L 123.56324,504.71937 z" /><path
         id="path2591"
         style="fill:#000000;fill-opacity:1;fill-rule:nonzero;stroke:none"
         d="M 124.04324,504.31537 C 124.34024,504.36037 124.43224,504.42137 124.43224,504.63537 L 124.43224,508.70237 C 124.43224,508.91637 124.34024,508.97737 124.04324,509.02337 L 124.04324,509.12937 C 124.20324,509.12937 124.51524,509.08337 124.80524,509.08337 C 125.09424,509.08337 125.40724,509.12937 125.56724,509.12937 L 125.56724,509.02337 C 125.27024,508.97737 125.17824,508.91637 125.17824,508.70237 L 125.17824,507.02737 L 127.58524,507.02737 L 127.58524,508.70237 C 127.58524,508.91637 127.49424,508.97737 127.19724,509.02337 L 127.19724,509.12937 C 127.35724,509.12937 127.66924,509.08337 127.95924,509.08337 C 128.24824,509.08337 128.56024,509.12937 128.72024,509.12937 L 128.72024,509.02337 C 128.42324,508.97737 128.33224,508.91637 128.33224,508.70237 L 128.33224,504.63537 C 128.33224,504.42137 128.42324,504.36037 128.72024,504.31537 L 128.72024,504.20837 C 128.56024,504.20837 128.24824,504.25437 127.95924,504.25437 C 127.66924,504.25437 127.35724,504.20837 127.19724,504.20837 L 127.19724,504.31537 C 127.49424,504.36037 127.58524,504.42137 127.58524,504.63537 L 127.58524,506.55437 L 125.17824,506.55437 L 125.17824,504.63537 C 125.17824,504.42137 125.27024,504.36037 125.56724,504.31537 L 125.56724,504.20837 C 125.40724,504.20837 125.09424,504.25437 124.80524,504.25437 C 124.51524,504.25437 124.20324,504.20837 124.04324,504.20837 L 124.04324,504.31537" /><path
         id="path2593"
         style="fill:#000000;stroke:none;stroke-width:0.208;stroke-linecap:butt;stroke-linejoin:miter;stroke-miterlimit:4;stroke-dasharray:none;stroke-opacity:1"
         d="M 124.04324,504.31537 C 124.34024,504.36037 124.43224,504.42137 124.43224,504.63537 L 124.43224,508.70237 C 124.43224,508.91637 124.34024,508.97737 124.04324,509.02337 L 124.04324,509.12937 C 124.20324,509.12937 124.51524,509.08337 124.80524,509.08337 C 125.09424,509.08337 125.40724,509.12937 125.56724,509.12937 L 125.56724,509.02337 C 125.27024,508.97737 125.17824,508.91637 125.17824,508.70237 L 125.17824,507.02737 L 127.58524,507.02737 L 127.58524,508.70237 C 127.58524,508.91637 127.49424,508.97737 127.19724,509.02337 L 127.19724,509.12937 C 127.35724,509.12937 127.66924,509.08337 127.95924,509.08337 C 128.24824,509.08337 128.56024,509.12937 128.72024,509.12937 L 128.72024,509.02337 C 128.42324,508.97737 128.33224,508.91637 128.33224,508.70237 L 128.33224,504.63537 C 128.33224,504.42137 128.42324,504.36037 128.72024,504.31537 L 128.72024,504.20837 C 128.56024,504.20837 128.24824,504.25437 127.95924,504.25437 C 127.66924,504.25437 127.35724,504.20837 127.19724,504.20837 L 127.19724,504.31537 C 127.49424,504.36037 127.58524,504.42137 127.58524,504.63537 L 127.58524,506.55437 L 125.17824,506.55437 L 125.17824,504.63537 C 125.17824,504.42137 125.27024,504.36037 125.56724,504.31537 L 125.56724,504.20837 C 125.40724,504.20837 125.09424,504.25437 124.80524,504.25437 C 124.51524,504.25437 124.20324,504.20837 124.04324,504.20837 L 124.04324,504.31537 z" /><path
         id="path2595"
         style="fill:#000000;fill-opacity:1;fill-rule:nonzero;stroke:none"
         d="M 129.85524,508.65737 C 129.85524,508.87037 129.76424,508.93137 129.46724,508.97737 L 129.46724,509.08337 L 133.13824,509.08337 C 133.13824,508.71037 133.15424,508.32937 133.18424,507.95637 L 133.03224,507.95637 C 132.94024,508.56537 132.68124,508.65737 132.34624,508.65737 L 130.60224,508.65737 L 130.60224,507.02737 L 131.68324,507.02737 C 131.95824,507.02737 132.11024,507.05037 132.16324,507.46837 L 132.31624,507.46837 C 132.29324,507.24837 132.27024,507.04237 132.27024,506.82137 C 132.27024,506.58537 132.29324,506.37937 132.31624,506.15837 L 132.16324,506.15837 C 132.11024,506.57737 131.95824,506.60037 131.68324,506.60037 L 130.60224,506.60037 L 130.60224,504.68037 L 132.21724,504.68037 C 132.85724,504.68037 133.13124,504.81037 133.26824,505.50337 L 133.41324,505.50337 C 133.37524,505.08437 133.34424,504.67337 133.33624,504.25437 L 129.46724,504.25437 L 129.46724,504.36037 C 129.76424,504.40637 129.85524,504.46737 129.85524,504.68037 L 129.85524,508.65737" /><path
         id="path2597"
         style="fill:#000000;stroke:none;stroke-width:0.208;stroke-linecap:butt;stroke-linejoin:miter;stroke-miterlimit:4;stroke-dasharray:none;stroke-opacity:1"
         d="M 129.85524,508.65737 C 129.85524,508.87037 129.76424,508.93137 129.46724,508.97737 L 129.46724,509.08337 L 133.13824,509.08337 C 133.13824,508.71037 133.15424,508.32937 133.18424,507.95637 L 133.03224,507.95637 C 132.94024,508.56537 132.68124,508.65737 132.34624,508.65737 L 130.60224,508.65737 L 130.60224,507.02737 L 131.68324,507.02737 C 131.95824,507.02737 132.11024,507.05037 132.16324,507.46837 L 132.31624,507.46837 C 132.29324,507.24837 132.27024,507.04237 132.27024,506.82137 C 132.27024,506.58537 132.29324,506.37937 132.31624,506.15837 L 132.16324,506.15837 C 132.11024,506.57737 131.95824,506.60037 131.68324,506.60037 L 130.60224,506.60037 L 130.60224,504.68037 L 132.21724,504.68037 C 132.85724,504.68037 133.13124,504.81037 133.26824,505.50337 L 133.41324,505.50337 C 133.37524,505.08437 133.34424,504.67337 133.33624,504.25437 L 129.46724,504.25437 L 129.46724,504.36037 C 129.76424,504.40637 129.85524,504.46737 129.85524,504.68037 L 129.85524,508.65737 z" /><path
         id="path2599"
         style="fill:#000000;fill-opacity:1;fill-rule:nonzero;stroke:none"
         d="M 134.28124,508.65737 C 134.28124,508.87037 134.19024,508.93137 133.89224,508.97737 L 133.89224,509.08337 L 136.10224,509.08337 C 137.11524,509.08337 137.47324,508.55837 137.47324,507.92537 C 137.47324,507.14837 136.81824,506.69137 136.08624,506.63037 L 137.48824,504.81837 C 137.71724,504.52837 137.90724,504.33837 138.12824,504.31537 L 138.12824,504.20837 C 137.99124,504.20837 137.86124,504.25437 137.73224,504.25437 C 137.53424,504.25437 137.33624,504.20837 137.14524,504.20837 C 137.06124,504.23137 136.98524,504.35337 136.36824,505.21437 L 135.38624,506.53237 C 135.29424,506.65337 135.23324,506.72237 135.23324,506.75237 C 135.23324,506.79837 135.31724,506.82937 135.37824,506.82937 C 136.17024,506.82937 136.72624,507.15637 136.72624,507.82737 C 136.72624,508.55037 136.07924,508.65737 135.43924,508.65737 L 135.02824,508.65737 L 135.02824,504.63537 C 135.02824,504.42137 135.11924,504.36037 135.41624,504.31537 L 135.41624,504.20837 C 135.25624,504.20837 134.94424,504.25437 134.65424,504.25437 C 134.36524,504.25437 134.05324,504.20837 133.89224,504.20837 L 133.89224,504.31537 C 134.19024,504.36037 134.28124,504.42137 134.28124,504.63537 L 134.28124,508.65737" /><path
         id="path2601"
         style="fill:#000000;stroke:none;stroke-width:0.208;stroke-linecap:butt;stroke-linejoin:miter;stroke-miterlimit:4;stroke-dasharray:none;stroke-opacity:1"
         d="M 134.28124,508.65737 C 134.28124,508.87037 134.19024,508.93137 133.89224,508.97737 L 133.89224,509.08337 L 136.10224,509.08337 C 137.11524,509.08337 137.47324,508.55837 137.47324,507.92537 C 137.47324,507.14837 136.81824,506.69137 136.08624,506.63037 L 137.48824,504.81837 C 137.71724,504.52837 137.90724,504.33837 138.12824,504.31537 L 138.12824,504.20837 C 137.99124,504.20837 137.86124,504.25437 137.73224,504.25437 C 137.53424,504.25437 137.33624,504.20837 137.14524,504.20837 C 137.06124,504.23137 136.98524,504.35337 136.36824,505.21437 L 135.38624,506.53237 C 135.29424,506.65337 135.23324,506.72237 135.23324,506.75237 C 135.23324,506.79837 135.31724,506.82937 135.37824,506.82937 C 136.17024,506.82937 136.72624,507.15637 136.72624,507.82737 C 136.72624,508.55037 136.07924,508.65737 135.43924,508.65737 L 135.02824,508.65737 L 135.02824,504.63537 C 135.02824,504.42137 135.11924,504.36037 135.41624,504.31537 L 135.41624,504.20837 C 135.25624,504.20837 134.94424,504.25437 134.65424,504.25437 C 134.36524,504.25437 134.05324,504.20837 133.89224,504.20837 L 133.89224,504.31537 C 134.19024,504.36037 134.28124,504.42137 134.28124,504.63537 L 134.28124,508.65737 z" /><path
         id="path2603"
         style="fill:#000000;fill-opacity:1;fill-rule:nonzero;stroke:none"
         d="M 142.26424,504.71937 C 141.86024,504.32337 141.22824,504.13237 140.58124,504.13237 C 139.59024,504.13237 138.22724,504.86337 138.22724,506.64637 C 138.22724,508.49737 139.84224,509.20537 140.90824,509.20537 C 141.29724,509.20537 141.71524,509.13737 142.06624,508.96937 C 142.07424,508.58837 142.10424,508.20737 142.14224,507.82737 L 142.03524,507.82737 C 141.88324,508.52037 141.23624,508.73337 140.70224,508.73337 C 139.68924,508.73337 138.92824,508.00937 138.92824,506.89737 C 138.92824,505.72437 139.75824,504.65037 140.83224,504.65037 C 141.35824,504.65037 141.86824,504.86337 142.29524,505.14537 L 142.26424,504.71937" /><path
         id="path2605"
         style="fill:#000000;stroke:none;stroke-width:0.208;stroke-linecap:butt;stroke-linejoin:miter;stroke-miterlimit:4;stroke-dasharray:none;stroke-opacity:1"
         d="M 142.26424,504.71937 C 141.86024,504.32337 141.22824,504.13237 140.58124,504.13237 C 139.59024,504.13237 138.22724,504.86337 138.22724,506.64637 C 138.22724,508.49737 139.84224,509.20537 140.90824,509.20537 C 141.29724,509.20537 141.71524,509.13737 142.06624,508.96937 C 142.07424,508.58837 142.10424,508.20737 142.14224,507.82737 L 142.03524,507.82737 C 141.88324,508.52037 141.23624,508.73337 140.70224,508.73337 C 139.68924,508.73337 138.92824,508.00937 138.92824,506.89737 C 138.92824,505.72437 139.75824,504.65037 140.83224,504.65037 C 141.35824,504.65037 141.86824,504.86337 142.29524,505.14537 L 142.26424,504.71937 z" /><path
         id="path2607"
         style="fill:#000000;fill-opacity:1;fill-rule:nonzero;stroke:none"
         d="M 142.74424,504.31537 C 143.04124,504.36037 143.13224,504.42137 143.13224,504.63537 L 143.13224,508.70237 C 143.13224,508.91637 143.04124,508.97737 142.74424,509.02337 L 142.74424,509.12937 C 142.90424,509.12937 143.21624,509.08337 143.50624,509.08337 C 143.79524,509.08337 144.10724,509.12937 144.26724,509.12937 L 144.26724,509.02337 C 143.97024,508.97737 143.87924,508.91637 143.87924,508.70237 L 143.87924,507.02737 L 146.28624,507.02737 L 146.28624,508.70237 C 146.28624,508.91637 146.19524,508.97737 145.89824,509.02337 L 145.89824,509.12937 C 146.05724,509.12937 146.37024,509.08337 146.65924,509.08337 C 146.94924,509.08337 147.26124,509.12937 147.42124,509.12937 L 147.42124,509.02337 C 147.12424,508.97737 147.03224,508.91637 147.03224,508.70237 L 147.03224,504.63537 C 147.03224,504.42137 147.12424,504.36037 147.42124,504.31537 L 147.42124,504.20837 C 147.26124,504.20837 146.94924,504.25437 146.65924,504.25437 C 146.37024,504.25437 146.05724,504.20837 145.89824,504.20837 L 145.89824,504.31537 C 146.19524,504.36037 146.28624,504.42137 146.28624,504.63537 L 146.28624,506.55437 L 143.87924,506.55437 L 143.87924,504.63537 C 143.87924,504.42137 143.97024,504.36037 144.26724,504.31537 L 144.26724,504.20837 C 144.10724,504.20837 143.79524,504.25437 143.50624,504.25437 C 143.21624,504.25437 142.90424,504.20837 142.74424,504.20837 L 142.74424,504.31537" /><path
         id="path2609"
         style="fill:#000000;stroke:none;stroke-width:0.208;stroke-linecap:butt;stroke-linejoin:miter;stroke-miterlimit:4;stroke-dasharray:none;stroke-opacity:1"
         d="M 142.74424,504.31537 C 143.04124,504.36037 143.13224,504.42137 143.13224,504.63537 L 143.13224,508.70237 C 143.13224,508.91637 143.04124,508.97737 142.74424,509.02337 L 142.74424,509.12937 C 142.90424,509.12937 143.21624,509.08337 143.50624,509.08337 C 143.79524,509.08337 144.10724,509.12937 144.26724,509.12937 L 144.26724,509.02337 C 143.97024,508.97737 143.87924,508.91637 143.87924,508.70237 L 143.87924,507.02737 L 146.28624,507.02737 L 146.28624,508.70237 C 146.28624,508.91637 146.19524,508.97737 145.89824,509.02337 L 145.89824,509.12937 C 146.05724,509.12937 146.37024,509.08337 146.65924,509.08337 C 146.94924,509.08337 147.26124,509.12937 147.42124,509.12937 L 147.42124,509.02337 C 147.12424,508.97737 147.03224,508.91637 147.03224,508.70237 L 147.03224,504.63537 C 147.03224,504.42137 147.12424,504.36037 147.42124,504.31537 L 147.42124,504.20837 C 147.26124,504.20837 146.94924,504.25437 146.65924,504.25437 C 146.37024,504.25437 146.05724,504.20837 145.89824,504.20837 L 145.89824,504.31537 C 146.19524,504.36037 146.28624,504.42137 146.28624,504.63537 L 146.28624,506.55437 L 143.87924,506.55437 L 143.87924,504.63537 C 143.87924,504.42137 143.97024,504.36037 144.26724,504.31537 L 144.26724,504.20837 C 144.10724,504.20837 143.79524,504.25437 143.50624,504.25437 C 143.21624,504.25437 142.90424,504.20837 142.74424,504.20837 L 142.74424,504.31537 z" /><path
         id="path2611"
         style="fill:#000000;fill-opacity:1;fill-rule:nonzero;stroke:none"
         d="M 148.55624,508.65737 C 148.55624,508.87037 148.46524,508.93137 148.16724,508.97737 L 148.16724,509.08337 L 151.83924,509.08337 C 151.83924,508.71037 151.85424,508.32937 151.88524,507.95637 L 151.73224,507.95637 C 151.64124,508.56537 151.38224,508.65737 151.04724,508.65737 L 149.30224,508.65737 L 149.30224,507.02737 L 150.38424,507.02737 C 150.65824,507.02737 150.81124,507.05037 150.86424,507.46837 L 151.01624,507.46837 C 150.99424,507.24837 150.97124,507.04237 150.97124,506.82137 C 150.97124,506.58537 150.99424,506.37937 151.01624,506.15837 L 150.86424,506.15837 C 150.81124,506.57737 150.65824,506.60037 150.38424,506.60037 L 149.30224,506.60037 L 149.30224,504.68037 L 150.91724,504.68037 C 151.55724,504.68037 151.83124,504.81037 151.96924,505.50337 L 152.11324,505.50337 C 152.07524,505.08437 152.04524,504.67337 152.03724,504.25437 L 148.16724,504.25437 L 148.16724,504.36037 C 148.46524,504.40637 148.55624,504.46737 148.55624,504.68037 L 148.55624,508.65737" /><path
         id="path2613"
         style="fill:#000000;stroke:none;stroke-width:0.208;stroke-linecap:butt;stroke-linejoin:miter;stroke-miterlimit:4;stroke-dasharray:none;stroke-opacity:1"
         d="M 148.55624,508.65737 C 148.55624,508.87037 148.46524,508.93137 148.16724,508.97737 L 148.16724,509.08337 L 151.83924,509.08337 C 151.83924,508.71037 151.85424,508.32937 151.88524,507.95637 L 151.73224,507.95637 C 151.64124,508.56537 151.38224,508.65737 151.04724,508.65737 L 149.30224,508.65737 L 149.30224,507.02737 L 150.38424,507.02737 C 150.65824,507.02737 150.81124,507.05037 150.86424,507.46837 L 151.01624,507.46837 C 150.99424,507.24837 150.97124,507.04237 150.97124,506.82137 C 150.97124,506.58537 150.99424,506.37937 151.01624,506.15837 L 150.86424,506.15837 C 150.81124,506.57737 150.65824,506.60037 150.38424,506.60037 L 149.30224,506.60037 L 149.30224,504.68037 L 150.91724,504.68037 C 151.55724,504.68037 151.83124,504.81037 151.96924,505.50337 L 152.11324,505.50337 C 152.07524,505.08437 152.04524,504.67337 152.03724,504.25437 L 148.16724,504.25437 L 148.16724,504.36037 C 148.46524,504.40637 148.55624,504.46737 148.55624,504.68037 L 148.55624,508.65737 z" /><path
         id="path2615"
         style="fill:#000000;fill-opacity:1;fill-rule:nonzero;stroke:none"
         d="M 89.780238,497.08437 C 89.963238,496.35237 90.527238,495.97237 91.273238,495.97237 C 91.829238,495.97237 92.461238,496.26937 92.461238,496.94737 C 92.461238,497.55637 92.096238,497.67837 91.570238,497.78437 C 90.260238,498.04337 89.552238,498.28037 89.552238,499.20937 C 89.552238,499.96337 90.344238,500.61837 91.570238,500.61837 C 91.890238,500.61837 92.560238,500.53537 92.835236,500.36737 C 92.827236,500.01737 92.842236,499.65837 92.865236,499.30837 L 92.713236,499.30837 C 92.606238,499.97137 91.981238,500.19237 91.448238,500.19237 C 90.626238,500.19237 90.207238,499.80337 90.207238,499.32337 C 90.207238,498.77537 90.504238,498.69137 91.441238,498.50137 C 92.393238,498.31037 93.117236,498.12037 93.117236,497.10737 C 93.117236,496.26137 92.477238,495.54537 91.060238,495.54537 C 90.588238,495.54537 90.108238,495.63637 89.673238,495.90337 C 89.673238,496.29937 89.658238,496.68837 89.628238,497.08437 L 89.780238,497.08437" /><path
         id="path2617"
         style="fill:#000000;stroke:none;stroke-width:0.208;stroke-linecap:butt;stroke-linejoin:miter;stroke-miterlimit:4;stroke-dasharray:none;stroke-opacity:1"
         d="M 89.780238,497.08437 C 89.963238,496.35237 90.527238,495.97237 91.273238,495.97237 C 91.829238,495.97237 92.461238,496.26937 92.461238,496.94737 C 92.461238,497.55637 92.096238,497.67837 91.570238,497.78437 C 90.260238,498.04337 89.552238,498.28037 89.552238,499.20937 C 89.552238,499.96337 90.344238,500.61837 91.570238,500.61837 C 91.890238,500.61837 92.560238,500.53537 92.835236,500.36737 C 92.827236,500.01737 92.842236,499.65837 92.865236,499.30837 L 92.713236,499.30837 C 92.606238,499.97137 91.981238,500.19237 91.448238,500.19237 C 90.626238,500.19237 90.207238,499.80337 90.207238,499.32337 C 90.207238,498.77537 90.504238,498.69137 91.441238,498.50137 C 92.393238,498.31037 93.117236,498.12037 93.117236,497.10737 C 93.117236,496.26137 92.477238,495.54537 91.060238,495.54537 C 90.588238,495.54537 90.108238,495.63637 89.673238,495.90337 C 89.673238,496.29937 89.658238,496.68837 89.628238,497.08437 L 89.780238,497.08437 z" /><path
         id="path2619"
         style="fill:#000000;fill-opacity:1;fill-rule:nonzero;stroke:none"
         d="M 97.702236,496.13237 C 97.299236,495.73637 96.666236,495.54537 96.019236,495.54537 C 95.028236,495.54537 93.665236,496.27637 93.665236,498.05937 C 93.665236,499.91037 95.280236,500.61837 96.346236,500.61837 C 96.735236,500.61837 97.154236,500.55037 97.504236,500.38237 C 97.512236,500.00137 97.542236,499.62037 97.580236,499.24037 L 97.474236,499.24037 C 97.321236,499.93337 96.674236,500.14637 96.141236,500.14637 C 95.128236,500.14637 94.366236,499.42237 94.366236,498.31037 C 94.366236,497.13737 95.196236,496.06337 96.270236,496.06337 C 96.796236,496.06337 97.306236,496.27637 97.733236,496.55837 L 97.702236,496.13237" /><path
         id="path2621"
         style="fill:#000000;stroke:none;stroke-width:0.208;stroke-linecap:butt;stroke-linejoin:miter;stroke-miterlimit:4;stroke-dasharray:none;stroke-opacity:1"
         d="M 97.702236,496.13237 C 97.299236,495.73637 96.666236,495.54537 96.019236,495.54537 C 95.028236,495.54537 93.665236,496.27637 93.665236,498.05937 C 93.665236,499.91037 95.280236,500.61837 96.346236,500.61837 C 96.735236,500.61837 97.154236,500.55037 97.504236,500.38237 C 97.512236,500.00137 97.542236,499.62037 97.580236,499.24037 L 97.474236,499.24037 C 97.321236,499.93337 96.674236,500.14637 96.141236,500.14637 C 95.128236,500.14637 94.366236,499.42237 94.366236,498.31037 C 94.366236,497.13737 95.196236,496.06337 96.270236,496.06337 C 96.796236,496.06337 97.306236,496.27637 97.733236,496.55837 L 97.702236,496.13237 z" /><path
         id="path2623"
         style="fill:#000000;fill-opacity:1;fill-rule:nonzero;stroke:none"
         d="M 98.190236,495.72837 C 98.487236,495.77337 98.578236,495.83437 98.578236,496.04837 L 98.578236,500.11537 C 98.578236,500.32937 98.487236,500.39037 98.190236,500.43637 L 98.190236,500.54237 C 98.350236,500.54237 98.662236,500.49637 98.951236,500.49637 C 99.241236,500.49637 99.553236,500.54237 99.713236,500.54237 L 99.713236,500.43637 C 99.416236,500.39037 99.325236,500.32937 99.325236,500.11537 L 99.325236,496.04837 C 99.325236,495.83437 99.416236,495.77337 99.713236,495.72837 L 99.713236,495.62137 C 99.553236,495.62137 99.241236,495.66737 98.951236,495.66737 C 98.662236,495.66737 98.350236,495.62137 98.190236,495.62137 L 98.190236,495.72837" /><path
         id="path2625"
         style="fill:#000000;stroke:none;stroke-width:0.208;stroke-linecap:butt;stroke-linejoin:miter;stroke-miterlimit:4;stroke-dasharray:none;stroke-opacity:1"
         d="M 98.190236,495.72837 C 98.487236,495.77337 98.578236,495.83437 98.578236,496.04837 L 98.578236,500.11537 C 98.578236,500.32937 98.487236,500.39037 98.190236,500.43637 L 98.190236,500.54237 C 98.350236,500.54237 98.662236,500.49637 98.951236,500.49637 C 99.241236,500.49637 99.553236,500.54237 99.713236,500.54237 L 99.713236,500.43637 C 99.416236,500.39037 99.325236,500.32937 99.325236,500.11537 L 99.325236,496.04837 C 99.325236,495.83437 99.416236,495.77337 99.713236,495.72837 L 99.713236,495.62137 C 99.553236,495.62137 99.241236,495.66737 98.951236,495.66737 C 98.662236,495.66737 98.350236,495.62137 98.190236,495.62137 L 98.190236,495.72837 z" /><path
         id="path2627"
         style="fill:#000000;fill-opacity:1;fill-rule:nonzero;stroke:none"
         d="M 100.70424,500.07037 C 100.70424,500.28337 100.61224,500.34437 100.31524,500.39037 L 100.31524,500.49637 L 103.98724,500.49637 C 103.98724,500.12337 104.00224,499.74237 104.03224,499.36937 L 103.88024,499.36937 C 103.78924,499.97837 103.53024,500.07037 103.19424,500.07037 L 101.45024,500.07037 L 101.45024,498.44037 L 102.53224,498.44037 C 102.80624,498.44037 102.95824,498.46337 103.01224,498.88137 L 103.16424,498.88137 C 103.14124,498.66137 103.11824,498.45537 103.11824,498.23437 C 103.11824,497.99837 103.14124,497.79237 103.16424,497.57137 L 103.01224,497.57137 C 102.95824,497.99037 102.80624,498.01337 102.53224,498.01337 L 101.45024,498.01337 L 101.45024,496.09337 L 103.06524,496.09337 C 103.70524,496.09337 103.97924,496.22337 104.11624,496.91637 L 104.26124,496.91637 C 104.22324,496.49737 104.19224,496.08637 104.18524,495.66737 L 100.31524,495.66737 L 100.31524,495.77337 C 100.61224,495.81937 100.70424,495.88037 100.70424,496.09337 L 100.70424,500.07037" /><path
         id="path2629"
         style="fill:#000000;stroke:none;stroke-width:0.208;stroke-linecap:butt;stroke-linejoin:miter;stroke-miterlimit:4;stroke-dasharray:none;stroke-opacity:1"
         d="M 100.70424,500.07037 C 100.70424,500.28337 100.61224,500.34437 100.31524,500.39037 L 100.31524,500.49637 L 103.98724,500.49637 C 103.98724,500.12337 104.00224,499.74237 104.03224,499.36937 L 103.88024,499.36937 C 103.78924,499.97837 103.53024,500.07037 103.19424,500.07037 L 101.45024,500.07037 L 101.45024,498.44037 L 102.53224,498.44037 C 102.80624,498.44037 102.95824,498.46337 103.01224,498.88137 L 103.16424,498.88137 C 103.14124,498.66137 103.11824,498.45537 103.11824,498.23437 C 103.11824,497.99837 103.14124,497.79237 103.16424,497.57137 L 103.01224,497.57137 C 102.95824,497.99037 102.80624,498.01337 102.53224,498.01337 L 101.45024,498.01337 L 101.45024,496.09337 L 103.06524,496.09337 C 103.70524,496.09337 103.97924,496.22337 104.11624,496.91637 L 104.26124,496.91637 C 104.22324,496.49737 104.19224,496.08637 104.18524,495.66737 L 100.31524,495.66737 L 100.31524,495.77337 C 100.61224,495.81937 100.70424,495.88037 100.70424,496.09337 L 100.70424,500.07037 z" /><path
         id="path2631"
         style="fill:#000000;fill-opacity:1;fill-rule:nonzero;stroke:none"
         d="M 105.25124,500.11537 C 105.25124,500.32937 105.15924,500.39037 104.86324,500.43637 L 104.86324,500.54237 C 105.07624,500.54237 105.29724,500.49637 105.51024,500.49637 C 105.71624,500.49637 105.88424,500.54237 106.07424,500.54237 L 108.66424,496.98537 L 108.67924,496.98537 L 108.67924,499.74237 C 108.67924,500.25337 108.55724,500.36737 108.14624,500.43637 L 108.14624,500.54237 C 108.35924,500.54237 108.57224,500.49637 108.78624,500.49637 C 109.03724,500.49637 109.28824,500.54237 109.54024,500.54237 L 109.54024,500.43637 C 109.24324,500.39037 109.15124,500.32937 109.15124,500.11537 L 109.15124,495.62137 L 108.70224,495.62137 L 105.73924,499.70437 L 105.72324,499.70437 L 105.72324,496.42137 C 105.72324,495.91137 105.84524,495.79637 106.25724,495.72837 L 106.25624,495.62137 C 106.04324,495.62137 105.83024,495.66737 105.61724,495.66737 C 105.36624,495.66737 105.11424,495.62137 104.86324,495.62137 L 104.86324,495.72837 C 105.15924,495.77337 105.25124,495.83437 105.25124,496.04837 L 105.25124,500.11537" /><path
         id="path2633"
         style="fill:#000000;stroke:none;stroke-width:0.208;stroke-linecap:butt;stroke-linejoin:miter;stroke-miterlimit:4;stroke-dasharray:none;stroke-opacity:1"
         d="M 105.25124,500.11537 C 105.25124,500.32937 105.15924,500.39037 104.86324,500.43637 L 104.86324,500.54237 C 105.07624,500.54237 105.29724,500.49637 105.51024,500.49637 C 105.71624,500.49637 105.88424,500.54237 106.07424,500.54237 L 108.66424,496.98537 L 108.67924,496.98537 L 108.67924,499.74237 C 108.67924,500.25337 108.55724,500.36737 108.14624,500.43637 L 108.14624,500.54237 C 108.35924,500.54237 108.57224,500.49637 108.78624,500.49637 C 109.03724,500.49637 109.28824,500.54237 109.54024,500.54237 L 109.54024,500.43637 C 109.24324,500.39037 109.15124,500.32937 109.15124,500.11537 L 109.15124,495.62137 L 108.70224,495.62137 L 105.73924,499.70437 L 105.72324,499.70437 L 105.72324,496.42137 C 105.72324,495.91137 105.84524,495.79637 106.25724,495.72837 L 106.25624,495.62137 C 106.04324,495.62137 105.83024,495.66737 105.61724,495.66737 C 105.36624,495.66737 105.11424,495.62137 104.86324,495.62137 L 104.86324,495.72837 C 105.15924,495.77337 105.25124,495.83437 105.25124,496.04837 L 105.25124,500.11537 z" /><path
         id="path2635"
         style="fill:#000000;fill-opacity:1;fill-rule:nonzero;stroke:none"
         d="M 111.58924,500.07037 L 110.88824,500.07037 C 110.46124,500.07037 110.24824,499.93337 110.11124,499.24737 L 109.95924,499.24737 C 110.01224,499.66637 110.05824,500.07837 110.08024,500.49637 L 113.84324,500.49637 C 113.86624,500.07837 113.91224,499.66637 113.96524,499.24737 L 113.81324,499.24737 C 113.67624,499.93337 113.46324,500.07037 113.03624,500.07037 L 112.33524,500.07037 L 112.33524,496.17037 C 112.33524,495.91137 112.42724,495.77337 112.81524,495.72837 L 112.81524,495.62137 C 112.51824,495.62137 112.19124,495.66737 111.96224,495.66737 C 111.73424,495.66737 111.40624,495.62137 111.10924,495.62137 L 111.10924,495.72837 C 111.49724,495.77337 111.58924,495.91137 111.58924,496.17037 L 111.58924,500.07037" /><path
         id="path2637"
         style="fill:#000000;stroke:none;stroke-width:0.208;stroke-linecap:butt;stroke-linejoin:miter;stroke-miterlimit:4;stroke-dasharray:none;stroke-opacity:1"
         d="M 111.58924,500.07037 L 110.88824,500.07037 C 110.46124,500.07037 110.24824,499.93337 110.11124,499.24737 L 109.95924,499.24737 C 110.01224,499.66637 110.05824,500.07837 110.08024,500.49637 L 113.84324,500.49637 C 113.86624,500.07837 113.91224,499.66637 113.96524,499.24737 L 113.81324,499.24737 C 113.67624,499.93337 113.46324,500.07037 113.03624,500.07037 L 112.33524,500.07037 L 112.33524,496.17037 C 112.33524,495.91137 112.42724,495.77337 112.81524,495.72837 L 112.81524,495.62137 C 112.51824,495.62137 112.19124,495.66737 111.96224,495.66737 C 111.73424,495.66737 111.40624,495.62137 111.10924,495.62137 L 111.10924,495.72837 C 111.49724,495.77337 111.58924,495.91137 111.58924,496.17037 L 111.58924,500.07037 z" /><path
         id="path2639"
         style="fill:#000000;fill-opacity:1;fill-rule:nonzero;stroke:none"
         d="M 114.27024,495.72837 C 114.56724,495.77337 114.65924,495.83437 114.65924,496.04837 L 114.65924,500.11537 C 114.65924,500.32937 114.56724,500.39037 114.27024,500.43637 L 114.27024,500.54237 C 114.43024,500.54237 114.74224,500.49637 115.03224,500.49637 C 115.32124,500.49637 115.63424,500.54237 115.79424,500.54237 L 115.79424,500.43637 C 115.49724,500.39037 115.40524,500.32937 115.40524,500.11537 L 115.40524,496.04837 C 115.40524,495.83437 115.49724,495.77337 115.79424,495.72837 L 115.79424,495.62137 C 115.63424,495.62137 115.32124,495.66737 115.03224,495.66737 C 114.74224,495.66737 114.43024,495.62137 114.27024,495.62137 L 114.27024,495.72837" /><path
         id="path2641"
         style="fill:#000000;stroke:none;stroke-width:0.208;stroke-linecap:butt;stroke-linejoin:miter;stroke-miterlimit:4;stroke-dasharray:none;stroke-opacity:1"
         d="M 114.27024,495.72837 C 114.56724,495.77337 114.65924,495.83437 114.65924,496.04837 L 114.65924,500.11537 C 114.65924,500.32937 114.56724,500.39037 114.27024,500.43637 L 114.27024,500.54237 C 114.43024,500.54237 114.74224,500.49637 115.03224,500.49637 C 115.32124,500.49637 115.63424,500.54237 115.79424,500.54237 L 115.79424,500.43637 C 115.49724,500.39037 115.40524,500.32937 115.40524,500.11537 L 115.40524,496.04837 C 115.40524,495.83437 115.49724,495.77337 115.79424,495.72837 L 115.79424,495.62137 C 115.63424,495.62137 115.32124,495.66737 115.03224,495.66737 C 114.74224,495.66737 114.43024,495.62137 114.27024,495.62137 L 114.27024,495.72837 z" /><path
         id="path2643"
         style="fill:#000000;fill-opacity:1;fill-rule:nonzero;stroke:none"
         d="M 116.92124,500.07037 C 116.92124,500.28337 116.82924,500.34437 116.53324,500.39037 L 116.53324,500.49637 L 120.14324,500.49637 C 120.14324,500.12337 120.15824,499.74237 120.18924,499.36937 L 120.03724,499.36937 C 119.94524,499.97837 119.68624,500.07037 119.35124,500.07037 L 117.66824,500.07037 L 117.66824,498.28737 L 118.77224,498.28737 C 119.11524,498.31037 119.20624,498.36337 119.24424,498.71437 L 119.39724,498.71437 C 119.37424,498.46237 119.35124,498.27237 119.35124,498.09737 C 119.35124,497.87637 119.37424,497.68637 119.39724,497.43437 L 119.24424,497.43437 C 119.20624,497.78437 119.11524,497.83837 118.77224,497.86137 L 117.66824,497.86137 L 117.66824,496.04837 C 117.66824,495.83437 117.75924,495.77337 118.05624,495.72837 L 118.05624,495.62137 C 117.89624,495.62137 117.58424,495.66737 117.29424,495.66737 C 117.00524,495.66737 116.69224,495.62137 116.53324,495.62137 L 116.53324,495.72837 C 116.82924,495.77337 116.92124,495.83437 116.92124,496.04837 L 116.92124,500.07037" /><path
         id="path2645"
         style="fill:#000000;stroke:none;stroke-width:0.208;stroke-linecap:butt;stroke-linejoin:miter;stroke-miterlimit:4;stroke-dasharray:none;stroke-opacity:1"
         d="M 116.92124,500.07037 C 116.92124,500.28337 116.82924,500.34437 116.53324,500.39037 L 116.53324,500.49637 L 120.14324,500.49637 C 120.14324,500.12337 120.15824,499.74237 120.18924,499.36937 L 120.03724,499.36937 C 119.94524,499.97837 119.68624,500.07037 119.35124,500.07037 L 117.66824,500.07037 L 117.66824,498.28737 L 118.77224,498.28737 C 119.11524,498.31037 119.20624,498.36337 119.24424,498.71437 L 119.39724,498.71437 C 119.37424,498.46237 119.35124,498.27237 119.35124,498.09737 C 119.35124,497.87637 119.37424,497.68637 119.39724,497.43437 L 119.24424,497.43437 C 119.20624,497.78437 119.11524,497.83837 118.77224,497.86137 L 117.66824,497.86137 L 117.66824,496.04837 C 117.66824,495.83437 117.75924,495.77337 118.05624,495.72837 L 118.05624,495.62137 C 117.89624,495.62137 117.58424,495.66737 117.29424,495.66737 C 117.00524,495.66737 116.69224,495.62137 116.53324,495.62137 L 116.53324,495.72837 C 116.82924,495.77337 116.92124,495.83437 116.92124,496.04837 L 116.92124,500.07037 z" /><path
         id="path2647"
         style="fill:#000000;fill-opacity:1;fill-rule:nonzero;stroke:none"
         d="M 120.41024,495.72837 C 120.70724,495.77337 120.79824,495.83437 120.79824,496.04837 L 120.79824,500.11537 C 120.79824,500.32937 120.70724,500.39037 120.41024,500.43637 L 120.41024,500.54237 C 120.57024,500.54237 120.88224,500.49637 121.17124,500.49637 C 121.46124,500.49637 121.77324,500.54237 121.93324,500.54237 L 121.93324,500.43637 C 121.63624,500.39037 121.54524,500.32937 121.54524,500.11537 L 121.54524,496.04837 C 121.54524,495.83437 121.63624,495.77337 121.93324,495.72837 L 121.93324,495.62137 C 121.77324,495.62137 121.46124,495.66737 121.17124,495.66737 C 120.88224,495.66737 120.57024,495.62137 120.41024,495.62137 L 120.41024,495.72837" /><path
         id="path2649"
         style="fill:#000000;stroke:none;stroke-width:0.208;stroke-linecap:butt;stroke-linejoin:miter;stroke-miterlimit:4;stroke-dasharray:none;stroke-opacity:1"
         d="M 120.41024,495.72837 C 120.70724,495.77337 120.79824,495.83437 120.79824,496.04837 L 120.79824,500.11537 C 120.79824,500.32937 120.70724,500.39037 120.41024,500.43637 L 120.41024,500.54237 C 120.57024,500.54237 120.88224,500.49637 121.17124,500.49637 C 121.46124,500.49637 121.77324,500.54237 121.93324,500.54237 L 121.93324,500.43637 C 121.63624,500.39037 121.54524,500.32937 121.54524,500.11537 L 121.54524,496.04837 C 121.54524,495.83437 121.63624,495.77337 121.93324,495.72837 L 121.93324,495.62137 C 121.77324,495.62137 121.46124,495.66737 121.17124,495.66737 C 120.88224,495.66737 120.57024,495.62137 120.41024,495.62137 L 120.41024,495.72837 z" /><path
         id="path2651"
         style="fill:#000000;fill-opacity:1;fill-rule:nonzero;stroke:none"
         d="M 127.17424,495.59137 C 126.98424,495.49937 126.77024,495.45437 126.55724,495.45437 C 126.38224,495.45437 125.91724,495.51437 125.67424,495.69737 C 125.42224,495.59837 125.13324,495.54537 124.82824,495.54537 C 123.29724,495.54537 122.44424,496.68837 122.44424,498.06637 C 122.44424,499.56037 123.76224,500.61837 124.94224,500.61837 C 126.63324,500.61837 127.30424,499.25537 127.30424,498.14337 C 127.30424,497.33537 126.93824,496.54337 126.30624,496.04837 C 126.51924,495.88837 126.67924,495.83437 126.79324,495.83437 C 127.01424,495.83437 127.14424,495.84237 127.26524,495.85037 L 127.17424,495.59137 z M 125.01124,496.06337 C 125.81824,496.06337 126.60324,496.65737 126.60324,497.86837 C 126.60324,499.20137 125.68924,500.10037 124.72124,500.10037 C 124.16524,500.10037 123.14524,499.65837 123.14524,498.25737 C 123.14524,497.18337 123.83824,496.06337 125.01124,496.06337" /><path
         id="path2653"
         style="fill:#000000;stroke:none;stroke-width:0.208;stroke-linecap:butt;stroke-linejoin:miter;stroke-miterlimit:4;stroke-dasharray:none;stroke-opacity:1"
         d="M 127.17424,495.59137 C 126.98424,495.49937 126.77024,495.45437 126.55724,495.45437 C 126.38224,495.45437 125.91724,495.51437 125.67424,495.69737 C 125.42224,495.59837 125.13324,495.54537 124.82824,495.54537 C 123.29724,495.54537 122.44424,496.68837 122.44424,498.06637 C 122.44424,499.56037 123.76224,500.61837 124.94224,500.61837 C 126.63324,500.61837 127.30424,499.25537 127.30424,498.14337 C 127.30424,497.33537 126.93824,496.54337 126.30624,496.04837 C 126.51924,495.88837 126.67924,495.83437 126.79324,495.83437 C 127.01424,495.83437 127.14424,495.84237 127.26524,495.85037 L 127.17424,495.59137 z M 125.01124,496.06337 C 125.81824,496.06337 126.60324,496.65737 126.60324,497.86837 C 126.60324,499.20137 125.68924,500.10037 124.72124,500.10037 C 124.16524,500.10037 123.14524,499.65837 123.14524,498.25737 C 123.14524,497.18337 123.83824,496.06337 125.01124,496.06337 z" /><path
         id="path2655"
         style="fill:#000000;fill-opacity:1;fill-rule:nonzero;stroke:none"
         d="M 127.99724,500.54237 C 128.23324,500.54237 128.46924,500.49637 128.67524,500.49637 C 129.06324,500.49637 129.30724,500.54237 129.54324,500.54237 L 129.54324,500.43637 C 129.37524,500.42837 129.10124,500.38237 129.10124,500.10837 L 129.10124,497.12937 C 129.10124,496.32237 129.58924,495.92637 130.20624,495.92637 C 130.83024,495.92637 131.31824,496.32237 131.31824,497.12937 L 131.31824,500.10837 C 131.31824,500.38237 131.04424,500.42837 130.87624,500.43637 L 130.87624,500.54237 C 131.11224,500.54237 131.35624,500.49637 131.74524,500.49637 C 131.95024,500.49637 132.18624,500.54237 132.42224,500.54237 L 132.42224,500.43637 C 132.11024,500.40537 132.06424,500.38237 132.06424,500.04737 L 132.06424,497.27437 C 132.06424,496.09337 131.37924,495.54537 130.20624,495.54537 C 129.04024,495.54537 128.35524,496.09337 128.35524,497.27437 L 128.35524,500.04737 C 128.35524,500.38237 128.30924,500.40537 127.99724,500.43637 L 127.99724,500.54237" /><path
         id="path2657"
         style="fill:#000000;stroke:none;stroke-width:0.208;stroke-linecap:butt;stroke-linejoin:miter;stroke-miterlimit:4;stroke-dasharray:none;stroke-opacity:1"
         d="M 127.99724,500.54237 C 128.23324,500.54237 128.46924,500.49637 128.67524,500.49637 C 129.06324,500.49637 129.30724,500.54237 129.54324,500.54237 L 129.54324,500.43637 C 129.37524,500.42837 129.10124,500.38237 129.10124,500.10837 L 129.10124,497.12937 C 129.10124,496.32237 129.58924,495.92637 130.20624,495.92637 C 130.83024,495.92637 131.31824,496.32237 131.31824,497.12937 L 131.31824,500.10837 C 131.31824,500.38237 131.04424,500.42837 130.87624,500.43637 L 130.87624,500.54237 C 131.11224,500.54237 131.35624,500.49637 131.74524,500.49637 C 131.95024,500.49637 132.18624,500.54237 132.42224,500.54237 L 132.42224,500.43637 C 132.11024,500.40537 132.06424,500.38237 132.06424,500.04737 L 132.06424,497.27437 C 132.06424,496.09337 131.37924,495.54537 130.20624,495.54537 C 129.04024,495.54537 128.35524,496.09337 128.35524,497.27437 L 128.35524,500.04737 C 128.35524,500.38237 128.30924,500.40537 127.99724,500.43637 L 127.99724,500.54237 z" /><path
         id="path2659"
         style="fill:#000000;fill-opacity:1;fill-rule:nonzero;stroke:none"
         d="M 133.32924,500.07037 C 133.32924,500.28337 133.23824,500.34437 132.94024,500.39037 L 132.94024,500.49637 L 136.61224,500.49637 C 136.61224,500.12337 136.62724,499.74237 136.65824,499.36937 L 136.50624,499.36937 C 136.41424,499.97837 136.15524,500.07037 135.82024,500.07037 L 134.07524,500.07037 L 134.07524,498.44037 L 135.15724,498.44037 C 135.43124,498.44037 135.58324,498.46337 135.63724,498.88137 L 135.79024,498.88137 C 135.76724,498.66137 135.74424,498.45537 135.74424,498.23437 C 135.74424,497.99837 135.76724,497.79237 135.79024,497.57137 L 135.63724,497.57137 C 135.58324,497.99037 135.43124,498.01337 135.15724,498.01337 L 134.07524,498.01337 L 134.07524,496.09337 L 135.69024,496.09337 C 136.33024,496.09337 136.60424,496.22337 136.74224,496.91637 L 136.88624,496.91637 C 136.84824,496.49737 136.81824,496.08637 136.81024,495.66737 L 132.94024,495.66737 L 132.94024,495.77337 C 133.23824,495.81937 133.32924,495.88037 133.32924,496.09337 L 133.32924,500.07037" /><path
         id="path2661"
         style="fill:#000000;stroke:none;stroke-width:0.208;stroke-linecap:butt;stroke-linejoin:miter;stroke-miterlimit:4;stroke-dasharray:none;stroke-opacity:1"
         d="M 133.32924,500.07037 C 133.32924,500.28337 133.23824,500.34437 132.94024,500.39037 L 132.94024,500.49637 L 136.61224,500.49637 C 136.61224,500.12337 136.62724,499.74237 136.65824,499.36937 L 136.50624,499.36937 C 136.41424,499.97837 136.15524,500.07037 135.82024,500.07037 L 134.07524,500.07037 L 134.07524,498.44037 L 135.15724,498.44037 C 135.43124,498.44037 135.58324,498.46337 135.63724,498.88137 L 135.79024,498.88137 C 135.76724,498.66137 135.74424,498.45537 135.74424,498.23437 C 135.74424,497.99837 135.76724,497.79237 135.79024,497.57137 L 135.63724,497.57137 C 135.58324,497.99037 135.43124,498.01337 135.15724,498.01337 L 134.07524,498.01337 L 134.07524,496.09337 L 135.69024,496.09337 C 136.33024,496.09337 136.60424,496.22337 136.74224,496.91637 L 136.88624,496.91637 C 136.84824,496.49737 136.81824,496.08637 136.81024,495.66737 L 132.94024,495.66737 L 132.94024,495.77337 C 133.23824,495.81937 133.32924,495.88037 133.32924,496.09337 L 133.32924,500.07037 z" /></g></g></svg>